<svg width="727" height="153" viewBox="0 0 727 153" fill="none" xmlns="http://www.w3.org/2000/svg">
<path d="M0 0H727V113C727 135.091 709.091 153 687 153H40C17.9086 153 0 135.091 0 113V0Z" fill="#9A2828"/>
<path d="M247.819 68V20.4925H268.382C272.636 20.4925 276.3 21.1938 279.377 22.5964C282.454 23.9538 284.829 25.922 286.503 28.5009C288.177 31.0799 289.014 34.1566 289.014 37.731C289.014 41.2601 288.177 44.3141 286.503 46.8931C284.829 49.4721 282.454 51.4629 279.377 52.8655C276.3 54.2228 272.636 54.9015 268.382 54.9015H253.927L258.813 49.9472V68H247.819ZM258.813 51.1688L253.927 45.943H267.772C271.165 45.943 273.699 45.219 275.373 43.7712C277.047 42.3233 277.884 40.3099 277.884 37.731C277.884 35.1067 277.047 33.0707 275.373 31.6229C273.699 30.175 271.165 29.4511 267.772 29.4511H253.927L258.813 24.2253V51.1688ZM306.976 39.6313H329.847V48.1826H306.976V39.6313ZM307.79 59.1772H333.648V68H296.864V20.4925H332.766V29.3153H307.79V59.1772ZM358.006 68.8144C354.205 68.8144 350.563 68.3167 347.079 67.3213C343.595 66.2807 340.79 64.9459 338.663 63.3171L342.396 55.0372C344.432 56.4851 346.83 57.6841 349.59 58.6342C352.395 59.5391 355.223 59.9916 358.074 59.9916C360.245 59.9916 361.987 59.788 363.299 59.3808C364.657 58.9283 365.652 58.3175 366.286 57.5484C366.919 56.7792 367.236 55.8969 367.236 54.9015C367.236 53.6346 366.738 52.6393 365.743 51.9153C364.747 51.1462 363.435 50.5354 361.806 50.0829C360.177 49.5852 358.368 49.1327 356.377 48.7255C354.431 48.2731 352.463 47.7301 350.472 47.0967C348.527 46.4633 346.74 45.6489 345.111 44.6535C343.482 43.6581 342.147 42.346 341.107 40.7171C340.111 39.0883 339.613 37.007 339.613 34.4733C339.613 31.7586 340.337 29.2927 341.785 27.0757C343.278 24.8134 345.495 23.0263 348.436 21.7142C351.422 20.3568 355.155 19.6781 359.634 19.6781C362.621 19.6781 365.562 20.0401 368.457 20.764C371.353 21.4427 373.909 22.4833 376.126 23.8859L372.733 32.2337C370.516 30.9668 368.299 30.0393 366.082 29.4511C363.865 28.8177 361.693 28.5009 359.567 28.5009C357.44 28.5009 355.698 28.7498 354.341 29.2475C352.983 29.7452 352.011 30.4012 351.422 31.2156C350.834 31.9848 350.54 32.8897 350.54 33.9304C350.54 35.152 351.038 36.1474 352.033 36.9165C353.029 37.6405 354.341 38.2287 355.97 38.6811C357.598 39.1336 359.386 39.586 361.331 40.0385C363.322 40.4909 365.29 41.0112 367.236 41.5994C369.226 42.1876 371.036 42.9794 372.665 43.9748C374.294 44.9702 375.606 46.2823 376.601 47.9111C377.642 49.54 378.162 51.5986 378.162 54.0871C378.162 56.7566 377.416 59.1998 375.923 61.4168C374.43 63.6338 372.19 65.421 369.204 66.7784C366.263 68.1357 362.53 68.8144 358.006 68.8144ZM379.431 68L400.606 20.4925H411.465L432.707 68H421.17L403.796 26.0577H408.139L390.697 68H379.431ZM390.019 57.8198L392.937 49.4721H417.369L420.355 57.8198H390.019ZM437.636 68V20.4925H446.731L474.76 54.6979H470.349V20.4925H481.207V68H472.181L444.084 33.7946H448.495V68H437.636ZM176.97 126.814C173.169 126.814 169.527 126.317 166.043 125.321C162.559 124.281 159.754 122.946 157.627 121.317L161.36 113.037C163.396 114.485 165.794 115.684 168.554 116.634C171.359 117.539 174.187 117.992 177.037 117.992C179.209 117.992 180.951 117.788 182.263 117.381C183.621 116.928 184.616 116.318 185.249 115.548C185.883 114.779 186.2 113.897 186.2 112.902C186.2 111.635 185.702 110.639 184.707 109.915C183.711 109.146 182.399 108.535 180.77 108.083C179.141 107.585 177.332 107.133 175.341 106.726C173.395 106.273 171.427 105.73 169.436 105.097C167.491 104.463 165.704 103.649 164.075 102.653C162.446 101.658 161.111 100.346 160.07 98.7171C159.075 97.0883 158.577 95.007 158.577 92.4733C158.577 89.7586 159.301 87.2927 160.749 85.0757C162.242 82.8134 164.459 81.0263 167.4 79.7142C170.386 78.3568 174.119 77.6781 178.598 77.6781C181.585 77.6781 184.526 78.0401 187.421 78.764C190.317 79.4427 192.873 80.4833 195.09 81.8859L191.697 90.2337C189.48 88.9668 187.263 88.0393 185.046 87.4511C182.829 86.8177 180.657 86.5009 178.531 86.5009C176.404 86.5009 174.662 86.7498 173.305 87.2475C171.947 87.7452 170.975 88.4012 170.386 89.2156C169.798 89.9848 169.504 90.8897 169.504 91.9304C169.504 93.152 170.002 94.1474 170.997 94.9165C171.993 95.6405 173.305 96.2287 174.934 96.6811C176.562 97.1336 178.35 97.586 180.295 98.0385C182.286 98.4909 184.254 99.0112 186.2 99.5994C188.19 100.188 190 100.979 191.629 101.975C193.258 102.97 194.57 104.282 195.565 105.911C196.606 107.54 197.126 109.599 197.126 112.087C197.126 114.757 196.38 117.2 194.887 119.417C193.394 121.634 191.154 123.421 188.168 124.778C185.227 126.136 181.494 126.814 176.97 126.814ZM214.751 97.6313H237.623V106.183H214.751V97.6313ZM215.566 117.177H241.423V126H204.639V78.4925H240.541V87.3153H215.566V117.177ZM260.012 115.141L259.401 102.45L282.137 78.4925H294.353L273.857 100.55L267.749 107.065L260.012 115.141ZM250.171 126V78.4925H261.098V126H250.171ZM282.68 126L265.781 105.3L272.975 97.4955L295.507 126H282.68ZM292.045 126L313.22 78.4925H324.078L345.321 126H333.783L316.409 84.0577H320.753L303.311 126H292.045ZM302.632 115.82L305.55 107.472H329.983L332.969 115.82H302.632ZM350.25 126V78.4925H370.814C375.067 78.4925 378.732 79.1938 381.808 80.5964C384.885 81.9538 387.26 83.922 388.935 86.5009C390.609 89.0799 391.446 92.1566 391.446 95.731C391.446 99.2601 390.609 102.314 388.935 104.893C387.26 107.427 384.885 109.372 381.808 110.73C378.732 112.087 375.067 112.766 370.814 112.766H356.358L361.244 107.947V126H350.25ZM380.451 126L368.574 108.762H380.315L392.328 126H380.451ZM361.244 109.169L356.358 104.011H370.203C373.596 104.011 376.13 103.287 377.804 101.839C379.478 100.346 380.315 98.3099 380.315 95.731C380.315 93.1067 379.478 91.0707 377.804 89.6229C376.13 88.175 373.596 87.4511 370.203 87.4511H356.358L361.244 82.2253V109.169ZM393.913 126L415.087 78.4925H425.946L447.189 126H435.651L418.277 84.0577H422.621L405.179 126H393.913ZM404.5 115.82L407.418 107.472H431.851L434.837 115.82H404.5ZM452.118 126V78.4925H461.212L489.242 112.698H484.83V78.4925H495.689V126H486.663L458.565 91.7946H462.977V126H452.118ZM529.868 126.814C526.113 126.814 522.652 126.226 519.485 125.05C516.363 123.828 513.625 122.109 511.273 119.892C508.965 117.675 507.155 115.073 505.843 112.087C504.576 109.101 503.943 105.821 503.943 102.246C503.943 98.6719 504.576 95.3916 505.843 92.4054C507.155 89.4192 508.988 86.8177 511.34 84.6006C513.693 82.3836 516.453 80.6869 519.62 79.5105C522.788 78.2889 526.271 77.6781 530.072 77.6781C534.28 77.6781 538.058 78.3794 541.406 79.782C544.799 81.1846 547.65 83.2207 549.957 85.8901L542.899 92.4054C541.18 90.5956 539.302 89.2609 537.266 88.4012C535.23 87.4963 533.013 87.0439 530.615 87.0439C528.307 87.0439 526.204 87.4058 524.303 88.1298C522.403 88.8537 520.751 89.8943 519.349 91.2517C517.992 92.609 516.928 94.2152 516.159 96.0703C515.435 97.9254 515.073 99.984 515.073 102.246C515.073 104.463 515.435 106.499 516.159 108.354C516.928 110.209 517.992 111.838 519.349 113.241C520.751 114.598 522.38 115.639 524.235 116.363C526.136 117.087 528.217 117.449 530.479 117.449C532.651 117.449 534.755 117.109 536.791 116.431C538.872 115.707 540.886 114.508 542.831 112.834L549.075 120.774C546.496 122.72 543.487 124.213 540.049 125.253C536.655 126.294 533.262 126.814 529.868 126.814ZM539.031 119.349V101.5H549.075V120.774L539.031 119.349ZM559.288 109.508L557.184 78.4925H569.808L567.704 109.508H559.288ZM563.496 126.543C561.596 126.543 560.035 125.932 558.813 124.711C557.591 123.489 556.981 122.041 556.981 120.367C556.981 118.648 557.591 117.222 558.813 116.091C560.035 114.915 561.596 114.327 563.496 114.327C565.441 114.327 567.002 114.915 568.179 116.091C569.4 117.222 570.011 118.648 570.011 120.367C570.011 122.041 569.4 123.489 568.179 124.711C567.002 125.932 565.441 126.543 563.496 126.543Z" fill="#F1F1F1"/>
<path fill-rule="evenodd" clip-rule="evenodd" d="M82.5 122C98.2401 122 111 109.24 111 93.5C111 77.7599 98.2401 65 82.5 65C66.7599 65 54 77.7599 54 93.5C54 109.24 66.7599 122 82.5 122ZM115 93.5C115 111.449 100.449 126 82.5 126C64.5507 126 50 111.449 50 93.5C50 75.5507 64.5507 61 82.5 61C100.449 61 115 75.5507 115 93.5Z" fill="#F1F1F1"/>
<path fill-rule="evenodd" clip-rule="evenodd" d="M646.5 122C662.24 122 675 109.24 675 93.5C675 77.7599 662.24 65 646.5 65C630.76 65 618 77.7599 618 93.5C618 109.24 630.76 122 646.5 122ZM679 93.5C679 111.449 664.449 126 646.5 126C628.551 126 614 111.449 614 93.5C614 75.5507 628.551 61 646.5 61C664.449 61 679 75.5507 679 93.5Z" fill="#F1F1F1"/>
<path fill-rule="evenodd" clip-rule="evenodd" d="M83.7675 109.768C82.7912 110.744 81.2083 110.744 80.232 109.768L64.3221 93.8579C63.3458 92.8816 63.3458 91.2986 64.3221 90.3223C65.2984 89.346 66.8813 89.346 67.8576 90.3223L79.4997 101.964L79.4997 82.5C79.4997 81.1193 80.619 80 81.9997 80V80C83.3805 80 84.4997 81.1193 84.4997 82.5L84.4997 101.964L96.1419 90.3223C97.1182 89.346 98.7011 89.346 99.6774 90.3223C100.654 91.2986 100.654 92.8816 99.6774 93.8579L83.7675 109.768Z" fill="#F1F1F1"/>
<path fill-rule="evenodd" clip-rule="evenodd" d="M648.178 109.768C647.201 110.744 645.618 110.744 644.642 109.768L628.732 93.8579C627.756 92.8816 627.756 91.2986 628.732 90.3223C629.709 89.346 631.291 89.346 632.268 90.3223L643.91 101.964L643.91 82.5C643.91 81.1193 645.029 80 646.41 80V80C647.791 80 648.91 81.1193 648.91 82.5L648.91 101.964L660.552 90.3223C661.528 89.346 663.111 89.346 664.088 90.3223C665.064 91.2986 665.064 92.8816 664.088 93.8579L648.178 109.768Z" fill="#F1F1F1"/>
</svg>
