<svg width="1080" height="326" viewBox="0 0 1080 326" fill="none" xmlns="http://www.w3.org/2000/svg">
<rect x="63" y="57" width="954" height="203" rx="21" fill="#9A2828"/>
<path d="M278.77 127.626C275.955 127.626 273.331 127.174 270.898 126.27C268.5 125.332 266.414 124.011 264.642 122.308C262.869 120.605 261.479 118.606 260.471 116.312C259.498 114.019 259.011 111.499 259.011 108.753C259.011 106.007 259.498 103.487 260.471 101.194C261.479 98.8996 262.869 96.9011 264.642 95.1981C266.449 93.495 268.552 92.1917 270.95 91.288C273.348 90.3496 275.972 89.8804 278.822 89.8804C281.985 89.8804 284.835 90.4365 287.372 91.5487C289.944 92.6261 292.099 94.2249 293.837 96.345L288.415 101.35C287.164 99.9249 285.774 98.8649 284.244 98.1697C282.715 97.4399 281.047 97.0749 279.239 97.0749C277.536 97.0749 275.972 97.353 274.547 97.9091C273.122 98.4652 271.888 99.2646 270.846 100.307C269.803 101.35 268.986 102.584 268.395 104.009C267.839 105.434 267.561 107.015 267.561 108.753C267.561 110.491 267.839 112.072 268.395 113.497C268.986 114.922 269.803 116.156 270.846 117.199C271.888 118.241 273.122 119.041 274.547 119.597C275.972 120.153 277.536 120.431 279.239 120.431C281.047 120.431 282.715 120.084 284.244 119.388C285.774 118.659 287.164 117.564 288.415 116.104L293.837 121.109C292.099 123.229 289.944 124.845 287.372 125.957C284.835 127.07 281.968 127.626 278.77 127.626ZM307.308 105.208H324.878V111.777H307.308V105.208ZM307.934 120.223H327.797V127H299.54V90.506H327.119V97.2835H307.934V120.223ZM342.077 118.659L341.607 108.909L359.072 90.506H368.457L352.712 107.45L348.02 112.455L342.077 118.659ZM334.517 127V90.506H342.911V127H334.517ZM359.49 127L346.508 111.099L352.034 105.104L369.343 127H359.49ZM398.822 127L383.077 90.506H392.201L405.964 122.829H400.594L414.566 90.506H422.96L407.163 127H398.822ZM419.988 127L436.254 90.506H444.596L460.914 127H452.051L438.705 94.781H442.041L428.643 127H419.988ZM428.121 119.18L430.363 112.767H449.132L451.425 119.18H428.121ZM464.7 127V90.506H480.497C483.764 90.506 486.579 91.0447 488.943 92.1222C491.306 93.1648 493.131 94.6767 494.417 96.6578C495.703 98.6389 496.346 101.002 496.346 103.748C496.346 106.459 495.703 108.805 494.417 110.786C493.131 112.733 491.306 114.227 488.943 115.27C486.579 116.312 483.764 116.834 480.497 116.834H469.392L473.146 113.132V127H464.7ZM487.9 127L478.776 113.758H487.796L497.023 127H487.9ZM473.146 114.071L469.392 110.108H480.028C482.634 110.108 484.581 109.552 485.867 108.44C487.153 107.293 487.796 105.729 487.796 103.748C487.796 101.732 487.153 100.168 485.867 99.056C484.581 97.9438 482.634 97.3877 480.028 97.3877H469.392L473.146 93.3734V114.071ZM503.037 127V90.506H511.483V127H503.037ZM515.347 127L531.613 90.506H539.955L556.273 127H547.41L534.064 94.781H537.4L524.002 127H515.347ZM523.48 119.18L525.722 112.767H544.49L546.784 119.18H523.48ZM560.059 127V90.506H567.045L588.577 116.782H585.188V90.506H593.529V127H586.595L565.012 100.724H568.401V127H560.059ZM616.928 127V90.506H633.507C637.469 90.506 640.962 91.2706 643.986 92.7999C647.01 94.2944 649.373 96.3972 651.076 99.1082C652.779 101.819 653.631 105.034 653.631 108.753C653.631 112.437 652.779 115.652 651.076 118.398C649.373 121.109 647.01 123.229 643.986 124.758C640.962 126.253 637.469 127 633.507 127H616.928ZM625.374 120.066H633.09C635.523 120.066 637.626 119.614 639.398 118.711C641.205 117.772 642.596 116.451 643.569 114.748C644.577 113.045 645.081 111.047 645.081 108.753C645.081 106.424 644.577 104.426 643.569 102.758C642.596 101.055 641.205 99.7511 639.398 98.8475C637.626 97.9091 635.523 97.4399 633.09 97.4399H625.374V120.066ZM667.768 105.208H685.337V111.777H667.768V105.208ZM668.394 120.223H688.257V127H660V90.506H687.579V97.2835H668.394V120.223ZM706.968 127.626C704.048 127.626 701.25 127.243 698.574 126.479C695.898 125.679 693.743 124.654 692.11 123.403L694.977 117.042C696.541 118.155 698.383 119.076 700.503 119.805C702.658 120.501 704.83 120.848 707.02 120.848C708.688 120.848 710.026 120.692 711.034 120.379C712.077 120.031 712.842 119.562 713.328 118.971C713.815 118.38 714.058 117.703 714.058 116.938C714.058 115.965 713.676 115.2 712.911 114.644C712.146 114.053 711.139 113.584 709.887 113.237C708.636 112.854 707.246 112.507 705.717 112.194C704.222 111.846 702.71 111.429 701.181 110.943C699.686 110.456 698.314 109.83 697.062 109.066C695.811 108.301 694.786 107.293 693.986 106.042C693.222 104.791 692.839 103.192 692.839 101.246C692.839 99.1603 693.396 97.2661 694.508 95.563C695.655 93.8252 697.358 92.4523 699.617 91.4444C701.911 90.4017 704.778 89.8804 708.219 89.8804C710.513 89.8804 712.772 90.1584 714.996 90.7145C717.221 91.2359 719.185 92.0353 720.888 93.1127L718.281 99.5252C716.578 98.5521 714.875 97.8396 713.172 97.3877C711.469 96.9011 709.8 96.6578 708.167 96.6578C706.533 96.6578 705.195 96.849 704.153 97.2313C703.11 97.6136 702.363 98.1176 701.911 98.7432C701.459 99.3341 701.233 100.029 701.233 100.829C701.233 101.767 701.615 102.532 702.38 103.122C703.145 103.679 704.153 104.13 705.404 104.478C706.655 104.826 708.028 105.173 709.522 105.521C711.052 105.868 712.564 106.268 714.058 106.72C715.587 107.172 716.978 107.78 718.229 108.544C719.48 109.309 720.488 110.317 721.253 111.568C722.052 112.819 722.452 114.401 722.452 116.312C722.452 118.363 721.878 120.24 720.731 121.943C719.584 123.646 717.864 125.019 715.57 126.062C713.311 127.104 710.443 127.626 706.968 127.626ZM723.426 127L739.692 90.506H748.034L764.352 127H755.489L742.143 94.781H745.479L732.081 127H723.426ZM731.559 119.18L733.801 112.767H752.569L754.863 119.18H731.559ZM768.138 127V90.506H776.584V127H768.138ZM785.245 127V90.506H792.231L813.762 116.782H810.373V90.506H818.715V127H811.781L790.197 100.724H793.586V127H785.245ZM159.965 180.626C157.046 180.626 154.248 180.243 151.571 179.479C148.895 178.679 146.74 177.654 145.107 176.403L147.974 170.042C149.538 171.155 151.38 172.076 153.5 172.805C155.655 173.501 157.828 173.848 160.017 173.848C161.685 173.848 163.024 173.692 164.032 173.379C165.074 173.031 165.839 172.562 166.325 171.971C166.812 171.38 167.055 170.703 167.055 169.938C167.055 168.965 166.673 168.2 165.908 167.644C165.144 167.053 164.136 166.584 162.885 166.237C161.633 165.854 160.243 165.507 158.714 165.194C157.219 164.846 155.707 164.429 154.178 163.943C152.684 163.456 151.311 162.83 150.06 162.066C148.808 161.301 147.783 160.293 146.984 159.042C146.219 157.791 145.837 156.192 145.837 154.246C145.837 152.16 146.393 150.266 147.505 148.563C148.652 146.825 150.355 145.452 152.614 144.444C154.908 143.402 157.775 142.88 161.216 142.88C163.51 142.88 165.769 143.158 167.994 143.715C170.218 144.236 172.182 145.035 173.885 146.113L171.278 152.525C169.575 151.552 167.872 150.84 166.169 150.388C164.466 149.901 162.798 149.658 161.164 149.658C159.531 149.658 158.193 149.849 157.15 150.231C156.107 150.614 155.36 151.118 154.908 151.743C154.456 152.334 154.23 153.029 154.23 153.829C154.23 154.767 154.613 155.532 155.377 156.122C156.142 156.679 157.15 157.13 158.401 157.478C159.652 157.826 161.025 158.173 162.52 158.521C164.049 158.868 165.561 159.268 167.055 159.72C168.585 160.172 169.975 160.78 171.226 161.544C172.477 162.309 173.485 163.317 174.25 164.568C175.049 165.819 175.449 167.401 175.449 169.312C175.449 171.363 174.875 173.24 173.729 174.943C172.582 176.646 170.861 178.019 168.567 179.062C166.308 180.104 163.441 180.626 159.965 180.626ZM188.988 158.208H206.557V164.777H188.988V158.208ZM189.614 173.223H209.477V180H181.22V143.506H208.799V150.283H189.614V173.223ZM223.756 171.659L223.287 161.909L240.752 143.506H250.136L234.392 160.45L229.7 165.455L223.756 171.659ZM216.197 180V143.506H224.59V180H216.197ZM241.169 180L228.188 164.099L233.714 158.104L251.022 180H241.169ZM248.363 180L264.629 143.506H272.97L289.288 180H280.425L267.079 147.781H270.416L257.017 180H248.363ZM256.496 172.18L258.738 165.767H277.506L279.8 172.18H256.496ZM293.074 180V143.506H301.52V173.118H319.819V180H293.074ZM324.538 180V143.506H332.984V180H324.538ZM359.266 180.626C356.382 180.626 353.723 180.174 351.29 179.27C348.892 178.332 346.789 177.011 344.982 175.308C343.209 173.605 341.819 171.606 340.811 169.312C339.838 167.019 339.351 164.499 339.351 161.753C339.351 159.007 339.838 156.487 340.811 154.194C341.819 151.9 343.226 149.901 345.034 148.198C346.841 146.495 348.961 145.192 351.394 144.288C353.827 143.35 356.503 142.88 359.423 142.88C362.655 142.88 365.557 143.419 368.129 144.497C370.736 145.574 372.925 147.138 374.698 149.189L369.276 154.194C367.955 152.803 366.513 151.778 364.949 151.118C363.385 150.422 361.682 150.075 359.84 150.075C358.067 150.075 356.451 150.353 354.991 150.909C353.532 151.465 352.263 152.265 351.185 153.307C350.143 154.35 349.326 155.584 348.735 157.009C348.179 158.434 347.901 160.015 347.901 161.753C347.901 163.456 348.179 165.02 348.735 166.445C349.326 167.87 350.143 169.121 351.185 170.199C352.263 171.241 353.514 172.041 354.939 172.597C356.399 173.153 357.998 173.431 359.736 173.431C361.404 173.431 363.02 173.17 364.584 172.649C366.183 172.093 367.729 171.172 369.224 169.886L374.02 175.986C372.039 177.48 369.728 178.627 367.086 179.427C364.48 180.226 361.873 180.626 359.266 180.626ZM366.304 174.891V161.18H374.02V175.986L366.304 174.891ZM398.079 180.626C392.901 180.626 388.852 179.183 385.932 176.298C383.013 173.414 381.553 169.295 381.553 163.943V143.506H389.999V163.63C389.999 167.105 390.711 169.608 392.136 171.137C393.561 172.666 395.56 173.431 398.132 173.431C400.704 173.431 402.702 172.666 404.127 171.137C405.552 169.608 406.265 167.105 406.265 163.63V143.506H414.606V163.943C414.606 169.295 413.146 173.414 410.227 176.298C407.307 179.183 403.258 180.626 398.079 180.626ZM434.943 180.626C432.023 180.626 429.225 180.243 426.549 179.479C423.873 178.679 421.718 177.654 420.085 176.403L422.952 170.042C424.516 171.155 426.358 172.076 428.478 172.805C430.633 173.501 432.805 173.848 434.995 173.848C436.663 173.848 438.001 173.692 439.009 173.379C440.052 173.031 440.817 172.562 441.303 171.971C441.79 171.38 442.033 170.703 442.033 169.938C442.033 168.965 441.651 168.2 440.886 167.644C440.122 167.053 439.114 166.584 437.862 166.237C436.611 165.854 435.221 165.507 433.692 165.194C432.197 164.846 430.685 164.429 429.156 163.943C427.661 163.456 426.289 162.83 425.037 162.066C423.786 161.301 422.761 160.293 421.961 159.042C421.197 157.791 420.814 156.192 420.814 154.246C420.814 152.16 421.371 150.266 422.483 148.563C423.63 146.825 425.333 145.452 427.592 144.444C429.886 143.402 432.753 142.88 436.194 142.88C438.488 142.88 440.747 143.158 442.972 143.715C445.196 144.236 447.16 145.035 448.863 146.113L446.256 152.525C444.553 151.552 442.85 150.84 441.147 150.388C439.444 149.901 437.776 149.658 436.142 149.658C434.508 149.658 433.17 149.849 432.128 150.231C431.085 150.614 430.338 151.118 429.886 151.743C429.434 152.334 429.208 153.029 429.208 153.829C429.208 154.767 429.59 155.532 430.355 156.122C431.12 156.679 432.128 157.13 433.379 157.478C434.63 157.826 436.003 158.173 437.497 158.521C439.027 158.868 440.539 159.268 442.033 159.72C443.562 160.172 444.953 160.78 446.204 161.544C447.455 162.309 448.463 163.317 449.228 164.568C450.027 165.819 450.427 167.401 450.427 169.312C450.427 171.363 449.853 173.24 448.706 174.943C447.559 176.646 445.839 178.019 443.545 179.062C441.286 180.104 438.419 180.626 434.943 180.626ZM470.962 180V143.506H486.759C490.026 143.506 492.841 144.045 495.205 145.122C497.568 146.165 499.393 147.677 500.679 149.658C501.965 151.639 502.608 154.002 502.608 156.748C502.608 159.459 501.965 161.805 500.679 163.786C499.393 165.767 497.568 167.297 495.205 168.374C492.841 169.417 490.026 169.938 486.759 169.938H475.654L479.408 166.132V180H470.962ZM479.408 167.071L475.654 163.056H486.29C488.897 163.056 490.843 162.5 492.129 161.388C493.415 160.276 494.058 158.729 494.058 156.748C494.058 154.732 493.415 153.168 492.129 152.056C490.843 150.944 488.897 150.388 486.29 150.388H475.654L479.408 146.373V167.071ZM516.406 158.208H533.975V164.777H516.406V158.208ZM517.031 173.223H536.894V180H508.638V143.506H536.217V150.283H517.031V173.223ZM543.614 180V143.506H550.6L566.136 169.26H562.435L577.71 143.506H584.644L584.748 180H576.824L576.772 155.653H578.232L566.032 176.142H562.226L549.766 155.653H551.539V180H543.614ZM601.175 158.208H618.744V164.777H601.175V158.208ZM601.8 173.223H621.663V180H593.407V143.506H620.986V150.283H601.8V173.223ZM640.374 180.626C637.455 180.626 634.657 180.243 631.981 179.479C629.305 178.679 627.15 177.654 625.516 176.403L628.384 170.042C629.948 171.155 631.79 172.076 633.91 172.805C636.065 173.501 638.237 173.848 640.427 173.848C642.095 173.848 643.433 173.692 644.441 173.379C645.484 173.031 646.248 172.562 646.735 171.971C647.221 171.38 647.465 170.703 647.465 169.938C647.465 168.965 647.082 168.2 646.318 167.644C645.553 167.053 644.545 166.584 643.294 166.237C642.043 165.854 640.652 165.507 639.123 165.194C637.629 164.846 636.117 164.429 634.587 163.943C633.093 163.456 631.72 162.83 630.469 162.066C629.218 161.301 628.192 160.293 627.393 159.042C626.628 157.791 626.246 156.192 626.246 154.246C626.246 152.16 626.802 150.266 627.914 148.563C629.061 146.825 630.764 145.452 633.023 144.444C635.317 143.402 638.185 142.88 641.626 142.88C643.92 142.88 646.179 143.158 648.403 143.715C650.627 144.236 652.591 145.035 654.294 146.113L651.688 152.525C649.984 151.552 648.281 150.84 646.578 150.388C644.875 149.901 643.207 149.658 641.573 149.658C639.94 149.658 638.602 149.849 637.559 150.231C636.516 150.614 635.769 151.118 635.317 151.743C634.866 152.334 634.64 153.029 634.64 153.829C634.64 154.767 635.022 155.532 635.787 156.122C636.551 156.679 637.559 157.13 638.81 157.478C640.062 157.826 641.434 158.173 642.929 158.521C644.458 158.868 645.97 159.268 647.465 159.72C648.994 160.172 650.384 160.78 651.635 161.544C652.887 162.309 653.895 163.317 654.659 164.568C655.459 165.819 655.858 167.401 655.858 169.312C655.858 171.363 655.285 173.24 654.138 174.943C652.991 176.646 651.27 178.019 648.977 179.062C646.717 180.104 643.85 180.626 640.374 180.626ZM656.833 180L673.099 143.506H681.44L697.758 180H688.896L675.549 147.781H678.886L665.487 180H656.833ZM664.966 172.18L667.208 165.767H685.976L688.27 172.18H664.966ZM701.545 180V143.506H708.531L730.062 169.782H726.673V143.506H735.015V180H728.081L706.497 153.724H709.886V180H701.545ZM738.853 180L755.119 143.506H763.46L779.778 180H770.915L757.569 147.781H760.906L747.507 180H738.853ZM746.986 172.18L749.228 165.767H767.996L770.29 172.18H746.986ZM783.565 180V143.506H790.551L812.082 169.782H808.693V143.506H817.035V180H810.101L788.517 153.724H791.906V180H783.565ZM825.669 180V143.506H832.655L854.186 169.782H850.798V143.506H859.139V180H852.205L830.622 153.724H834.01V180H825.669ZM876.845 180V165.09L878.774 170.199L862.717 143.506H871.684L883.987 163.995H878.826L891.182 143.506H899.471L883.414 170.199L885.291 165.09V180H876.845ZM895.968 180L912.234 143.506H920.576L936.894 180H928.031L914.685 147.781H918.021L904.623 180H895.968ZM904.101 172.18L906.343 165.767H925.112L927.405 172.18H904.101ZM459.456 233V196.506H476.035C479.997 196.506 483.49 197.271 486.514 198.8C489.538 200.294 491.901 202.397 493.604 205.108C495.307 207.819 496.159 211.034 496.159 214.753C496.159 218.437 495.307 221.652 493.604 224.398C491.901 227.109 489.538 229.229 486.514 230.758C483.49 232.253 479.997 233 476.035 233H459.456ZM467.902 226.066H475.618C478.051 226.066 480.153 225.614 481.926 224.711C483.733 223.772 485.124 222.451 486.097 220.748C487.105 219.045 487.609 217.047 487.609 214.753C487.609 212.424 487.105 210.426 486.097 208.758C485.124 207.055 483.733 205.751 481.926 204.847C480.153 203.909 478.051 203.44 475.618 203.44H467.902V226.066ZM502.528 233V196.506H510.974V233H502.528ZM531.625 233.626C528.706 233.626 525.908 233.243 523.232 232.479C520.556 231.679 518.401 230.654 516.767 229.403L519.635 223.042C521.199 224.155 523.041 225.076 525.161 225.805C527.316 226.501 529.488 226.848 531.678 226.848C533.346 226.848 534.684 226.692 535.692 226.379C536.735 226.031 537.499 225.562 537.986 224.971C538.472 224.38 538.716 223.703 538.716 222.938C538.716 221.965 538.333 221.2 537.569 220.644C536.804 220.053 535.796 219.584 534.545 219.237C533.294 218.854 531.904 218.507 530.374 218.194C528.88 217.846 527.368 217.429 525.839 216.943C524.344 216.456 522.971 215.83 521.72 215.066C520.469 214.301 519.443 213.293 518.644 212.042C517.879 210.791 517.497 209.192 517.497 207.246C517.497 205.16 518.053 203.266 519.165 201.563C520.312 199.825 522.015 198.452 524.275 197.444C526.568 196.402 529.436 195.88 532.877 195.88C535.171 195.88 537.43 196.158 539.654 196.715C541.879 197.236 543.842 198.035 545.545 199.113L542.939 205.525C541.236 204.552 539.533 203.84 537.829 203.388C536.126 202.901 534.458 202.658 532.825 202.658C531.191 202.658 529.853 202.849 528.81 203.231C527.768 203.614 527.02 204.118 526.568 204.743C526.117 205.334 525.891 206.029 525.891 206.829C525.891 207.767 526.273 208.532 527.038 209.122C527.802 209.679 528.81 210.13 530.061 210.478C531.313 210.826 532.686 211.173 534.18 211.521C535.709 211.868 537.221 212.268 538.716 212.72C540.245 213.172 541.635 213.78 542.887 214.544C544.138 215.309 545.146 216.317 545.91 217.568C546.71 218.819 547.109 220.401 547.109 222.312C547.109 224.363 546.536 226.24 545.389 227.943C544.242 229.646 542.522 231.019 540.228 232.062C537.969 233.104 535.101 233.626 531.625 233.626ZM552.88 233V196.506H561.326V233H552.88ZM569.987 233V196.506H576.973L598.504 222.782H595.116V196.506H603.457V233H596.523L574.94 206.724H578.328V233H569.987ZM612.092 233V196.506H620.537V233H612.092Z" fill="#F1F1F1"/>
</svg>
