<svg width="1080" height="261" viewBox="0 0 1080 261" fill="none" xmlns="http://www.w3.org/2000/svg">
<g clip-path="url(#clip0_365_1141)">
<rect width="1080" height="261" fill="white"/>
<rect width="1080" height="60" fill="#7C5938"/>
<rect y="60" width="1080" height="201" fill="#F1F1F1"/>
<path d="M263.02 145.947H281.145V154.532H263.02V145.947ZM263.805 168H252.695V128.72H283.502V137.305H263.805V168ZM288.193 168V137.586H298.855V168H288.193ZM293.524 134.219C291.579 134.219 290.007 133.676 288.81 132.591C287.613 131.507 287.015 130.16 287.015 128.551C287.015 126.943 287.613 125.596 288.81 124.511C290.007 123.426 291.579 122.884 293.524 122.884C295.469 122.884 297.04 123.407 298.238 124.455C299.435 125.465 300.033 126.774 300.033 128.383C300.033 130.066 299.435 131.469 298.238 132.591C297.078 133.676 295.507 134.219 293.524 134.219ZM319.364 168.505C315.473 168.505 312.443 167.551 310.273 165.643C308.103 163.698 307.018 160.78 307.018 156.889V130.796H317.68V156.777C317.68 157.862 317.979 158.722 318.578 159.358C319.176 159.957 319.943 160.256 320.879 160.256C322.151 160.256 323.235 159.938 324.133 159.302L326.771 166.765C325.873 167.364 324.769 167.794 323.46 168.056C322.151 168.355 320.785 168.505 319.364 168.505ZM302.585 146.676V138.708H324.638V146.676H302.585ZM343.676 168.505C341.207 168.505 338.981 168.019 336.999 167.046C335.053 166.073 333.519 164.558 332.397 162.501C331.312 160.406 330.77 157.768 330.77 154.589V137.586H341.432V152.849C341.432 155.206 341.862 156.889 342.722 157.899C343.62 158.909 344.873 159.414 346.482 159.414C347.529 159.414 348.483 159.171 349.344 158.685C350.204 158.199 350.896 157.432 351.42 156.384C351.944 155.299 352.206 153.915 352.206 152.232V137.586H362.868V168H352.711V159.414L354.675 161.827C353.627 164.072 352.112 165.755 350.129 166.878C348.147 167.963 345.996 168.505 343.676 168.505ZM369.735 168V137.586H379.892V146.452L378.377 143.927C379.275 141.645 380.734 139.943 382.754 138.82C384.774 137.66 387.224 137.081 390.105 137.081V146.676C389.618 146.601 389.188 146.564 388.814 146.564C388.477 146.527 388.103 146.508 387.692 146.508C385.522 146.508 383.764 147.107 382.417 148.304C381.07 149.463 380.397 151.371 380.397 154.027V168H369.735ZM424.917 168.786C421.924 168.786 419.25 168.318 416.893 167.383C414.536 166.41 412.665 165.082 411.281 163.399C409.934 161.715 409.261 159.826 409.261 157.731C409.261 155.673 409.71 153.84 410.608 152.232C411.543 150.623 412.965 149.145 414.873 147.799C416.818 146.452 419.287 145.161 422.28 143.927C424.262 143.066 425.815 142.299 426.937 141.626C428.06 140.953 428.845 140.317 429.294 139.718C429.78 139.082 430.024 138.446 430.024 137.81C430.024 137.025 429.762 136.389 429.238 135.902C428.714 135.416 427.929 135.173 426.881 135.173C425.796 135.173 424.936 135.453 424.3 136.014C423.701 136.576 423.402 137.268 423.402 138.091C423.402 138.577 423.496 139.063 423.683 139.55C423.907 140.036 424.319 140.597 424.917 141.233C425.553 141.869 426.432 142.692 427.555 143.702L448.261 162.108L442.537 168.673L419.193 147.855C417.921 146.732 416.874 145.648 416.051 144.6C415.265 143.553 414.667 142.505 414.255 141.458C413.881 140.41 413.694 139.344 413.694 138.259C413.694 136.239 414.237 134.481 415.321 132.984C416.406 131.45 417.94 130.272 419.923 129.449C421.906 128.589 424.225 128.158 426.881 128.158C429.313 128.158 431.426 128.532 433.222 129.281C435.055 130.029 436.477 131.114 437.487 132.535C438.497 133.957 439.002 135.64 439.002 137.586C439.002 139.307 438.553 140.878 437.655 142.299C436.795 143.721 435.448 145.03 433.615 146.227C431.819 147.425 429.519 148.603 426.713 149.763C424.992 150.473 423.608 151.184 422.56 151.895C421.55 152.606 420.821 153.335 420.372 154.083C419.923 154.794 419.698 155.617 419.698 156.553C419.698 157.301 419.942 157.993 420.428 158.629C420.914 159.265 421.606 159.77 422.504 160.144C423.402 160.481 424.468 160.649 425.703 160.649C427.873 160.649 429.874 160.125 431.707 159.078C433.54 157.993 435.111 156.422 436.421 154.364C437.767 152.307 438.684 149.819 439.17 146.901L447.756 149.482C446.933 153.335 445.437 156.702 443.267 159.583C441.134 162.463 438.497 164.727 435.355 166.373C432.25 167.981 428.77 168.786 424.917 168.786ZM479.908 159.302L479.291 146.845L496.181 128.72H508.415L491.58 146.957L485.407 153.41L479.908 159.302ZM469.976 168V128.72H480.974V168H469.976ZM496.35 168L483.556 151.783L490.794 144.039L509.256 168H496.35ZM526.398 168.505C522.806 168.505 519.664 167.832 516.97 166.485C514.314 165.101 512.238 163.23 510.742 160.873C509.283 158.479 508.553 155.767 508.553 152.737C508.553 149.707 509.264 147.013 510.685 144.656C512.144 142.262 514.146 140.41 516.69 139.101C519.234 137.754 522.095 137.081 525.275 137.081C528.268 137.081 530.999 137.698 533.468 138.932C535.937 140.13 537.901 141.907 539.36 144.263C540.819 146.62 541.549 149.482 541.549 152.849C541.549 153.223 541.53 153.653 541.493 154.14C541.455 154.626 541.418 155.075 541.38 155.486H517.307V149.875H535.713L531.672 151.446C531.71 150.062 531.448 148.865 530.887 147.855C530.363 146.845 529.615 146.059 528.642 145.498C527.707 144.937 526.603 144.656 525.331 144.656C524.059 144.656 522.937 144.937 521.965 145.498C521.029 146.059 520.3 146.863 519.776 147.911C519.252 148.921 518.99 150.118 518.99 151.502V153.13C518.99 154.626 519.29 155.917 519.888 157.001C520.524 158.086 521.422 158.928 522.582 159.527C523.741 160.088 525.126 160.368 526.734 160.368C528.231 160.368 529.503 160.163 530.55 159.751C531.635 159.302 532.701 158.629 533.749 157.731L539.36 163.567C537.901 165.176 536.105 166.41 533.973 167.271C531.841 168.094 529.316 168.505 526.398 168.505ZM559.259 168.505C556.79 168.505 554.564 168.019 552.581 167.046C550.636 166.073 549.102 164.558 547.98 162.501C546.895 160.406 546.352 157.768 546.352 154.589V137.586H557.014V152.849C557.014 155.206 557.444 156.889 558.305 157.899C559.202 158.909 560.456 159.414 562.064 159.414C563.112 159.414 564.066 159.171 564.926 158.685C565.787 158.199 566.479 157.432 567.002 156.384C567.526 155.299 567.788 153.915 567.788 152.232V137.586H578.45V168H568.293V159.414L570.257 161.827C569.21 164.072 567.695 165.755 565.712 166.878C563.729 167.963 561.578 168.505 559.259 168.505ZM605.126 137.081C607.483 137.081 609.615 137.567 611.523 138.54C613.431 139.475 614.927 140.934 616.012 142.917C617.135 144.899 617.696 147.462 617.696 150.604V168H607.034V152.344C607.034 150.174 606.585 148.603 605.687 147.63C604.827 146.62 603.611 146.115 602.04 146.115C600.917 146.115 599.889 146.377 598.953 146.901C598.018 147.387 597.289 148.154 596.765 149.201C596.241 150.249 595.979 151.614 595.979 153.298V168H585.317V137.586H595.474V146.227L593.51 143.702C594.67 141.495 596.26 139.849 598.28 138.764C600.3 137.642 602.582 137.081 605.126 137.081ZM639.644 179.391C636.726 179.391 633.939 179.055 631.283 178.381C628.664 177.708 626.419 176.717 624.549 175.407L628.421 167.944C629.693 168.954 631.264 169.74 633.134 170.301C635.042 170.899 636.894 171.199 638.69 171.199C641.57 171.199 643.647 170.563 644.919 169.291C646.191 168.056 646.826 166.242 646.826 163.847V160.256L647.388 151.727L647.332 143.141V137.586H657.488V162.445C657.488 168.206 655.936 172.47 652.831 175.239C649.726 178.007 645.33 179.391 639.644 179.391ZM637.792 166.429C635.098 166.429 632.611 165.83 630.329 164.633C628.084 163.399 626.27 161.696 624.886 159.527C623.539 157.319 622.865 154.719 622.865 151.727C622.865 148.734 623.539 146.153 624.886 143.983C626.27 141.776 628.084 140.073 630.329 138.876C632.611 137.679 635.098 137.081 637.792 137.081C640.373 137.081 642.58 137.604 644.414 138.652C646.247 139.662 647.631 141.252 648.566 143.422C649.539 145.591 650.025 148.36 650.025 151.727C650.025 155.094 649.539 157.862 648.566 160.032C647.631 162.201 646.247 163.81 644.414 164.858C642.58 165.905 640.373 166.429 637.792 166.429ZM640.317 157.955C641.589 157.955 642.711 157.694 643.684 157.17C644.694 156.646 645.48 155.917 646.041 154.981C646.639 154.046 646.939 152.961 646.939 151.727C646.939 150.492 646.639 149.407 646.041 148.472C645.48 147.537 644.694 146.826 643.684 146.34C642.711 145.816 641.589 145.554 640.317 145.554C639.045 145.554 637.904 145.816 636.894 146.34C635.884 146.826 635.08 147.537 634.481 148.472C633.92 149.407 633.639 150.492 633.639 151.727C633.639 152.961 633.92 154.046 634.481 154.981C635.08 155.917 635.884 156.646 636.894 157.17C637.904 157.694 639.045 157.955 640.317 157.955ZM679.209 179.391C676.291 179.391 673.504 179.055 670.848 178.381C668.229 177.708 665.985 176.717 664.114 175.407L667.986 167.944C669.258 168.954 670.829 169.74 672.7 170.301C674.608 170.899 676.46 171.199 678.255 171.199C681.136 171.199 683.212 170.563 684.484 169.291C685.756 168.056 686.392 166.242 686.392 163.847V160.256L686.953 151.727L686.897 143.141V137.586H697.054V162.445C697.054 168.206 695.501 172.47 692.396 175.239C689.291 178.007 684.896 179.391 679.209 179.391ZM677.357 166.429C674.664 166.429 672.176 165.83 669.894 164.633C667.65 163.399 665.835 161.696 664.451 159.527C663.104 157.319 662.431 154.719 662.431 151.727C662.431 148.734 663.104 146.153 664.451 143.983C665.835 141.776 667.65 140.073 669.894 138.876C672.176 137.679 674.664 137.081 677.357 137.081C679.939 137.081 682.146 137.604 683.979 138.652C685.812 139.662 687.196 141.252 688.132 143.422C689.104 145.591 689.591 148.36 689.591 151.727C689.591 155.094 689.104 157.862 688.132 160.032C687.196 162.201 685.812 163.81 683.979 164.858C682.146 165.905 679.939 166.429 677.357 166.429ZM679.883 157.955C681.155 157.955 682.277 157.694 683.25 157.17C684.26 156.646 685.045 155.917 685.606 154.981C686.205 154.046 686.504 152.961 686.504 151.727C686.504 150.492 686.205 149.407 685.606 148.472C685.045 147.537 684.26 146.826 683.25 146.34C682.277 145.816 681.155 145.554 679.883 145.554C678.611 145.554 677.47 145.816 676.46 146.34C675.45 146.826 674.645 147.537 674.047 148.472C673.485 149.407 673.205 150.492 673.205 151.727C673.205 152.961 673.485 154.046 674.047 154.981C674.645 155.917 675.45 156.646 676.46 157.17C677.47 157.694 678.611 157.955 679.883 157.955ZM716.698 168.505C714.229 168.505 712.003 168.019 710.021 167.046C708.075 166.073 706.542 164.558 705.419 162.501C704.334 160.406 703.792 157.768 703.792 154.589V137.586H714.454V152.849C714.454 155.206 714.884 156.889 715.744 157.899C716.642 158.909 717.896 159.414 719.504 159.414C720.552 159.414 721.506 159.171 722.366 158.685C723.226 158.199 723.919 157.432 724.442 156.384C724.966 155.299 725.228 153.915 725.228 152.232V137.586H735.89V168H725.733V159.414L727.697 161.827C726.649 164.072 725.134 165.755 723.152 166.878C721.169 167.963 719.018 168.505 716.698 168.505ZM742.757 168V126.363H753.419V168H742.757ZM778.922 168V162.332L778.193 160.93V150.492C778.193 148.809 777.669 147.518 776.621 146.62C775.611 145.685 773.984 145.217 771.739 145.217C770.28 145.217 768.803 145.46 767.306 145.947C765.81 146.396 764.538 147.032 763.49 147.855L759.899 140.616C761.62 139.494 763.677 138.633 766.072 138.035C768.503 137.399 770.916 137.081 773.311 137.081C778.249 137.081 782.064 138.222 784.758 140.504C787.489 142.748 788.854 146.283 788.854 151.109V168H778.922ZM769.944 168.505C767.512 168.505 765.454 168.094 763.771 167.271C762.088 166.447 760.797 165.325 759.899 163.904C759.039 162.482 758.608 160.892 758.608 159.134C758.608 157.263 759.076 155.655 760.011 154.308C760.984 152.924 762.462 151.876 764.444 151.166C766.427 150.417 768.99 150.043 772.132 150.043H779.315V155.599H773.591C771.87 155.599 770.654 155.879 769.944 156.44C769.27 157.001 768.934 157.75 768.934 158.685C768.934 159.62 769.289 160.368 770 160.93C770.711 161.491 771.683 161.771 772.918 161.771C774.077 161.771 775.125 161.491 776.06 160.93C777.033 160.331 777.744 159.433 778.193 158.236L779.651 162.164C779.09 164.259 777.987 165.849 776.341 166.934C774.732 167.981 772.6 168.505 769.944 168.505ZM815.393 137.081C817.75 137.081 819.882 137.567 821.79 138.54C823.698 139.475 825.194 140.934 826.279 142.917C827.401 144.899 827.963 147.462 827.963 150.604V168H817.301V152.344C817.301 150.174 816.852 148.603 815.954 147.63C815.094 146.62 813.878 146.115 812.307 146.115C811.184 146.115 810.155 146.377 809.22 146.901C808.285 147.387 807.555 148.154 807.032 149.201C806.508 150.249 806.246 151.614 806.246 153.298V168H795.584V137.586H805.741V146.227L803.777 143.702C804.937 141.495 806.527 139.849 808.547 138.764C810.567 137.642 812.849 137.081 815.393 137.081ZM412.659 225V194.53H400.595V185.72H435.779V194.53H423.77V225H412.659ZM452.281 225.505C448.69 225.505 445.547 224.832 442.854 223.485C440.197 222.101 438.121 220.23 436.625 217.873C435.166 215.479 434.436 212.767 434.436 209.737C434.436 206.707 435.147 204.013 436.569 201.656C438.028 199.262 440.029 197.41 442.573 196.101C445.117 194.754 447.979 194.081 451.159 194.081C454.151 194.081 456.882 194.698 459.351 195.932C461.82 197.13 463.784 198.907 465.243 201.263C466.702 203.62 467.432 206.482 467.432 209.849C467.432 210.223 467.413 210.653 467.376 211.14C467.338 211.626 467.301 212.075 467.264 212.486H443.19V206.875H461.596L457.556 208.446C457.593 207.062 457.331 205.865 456.77 204.855C456.246 203.845 455.498 203.059 454.525 202.498C453.59 201.937 452.487 201.656 451.215 201.656C449.943 201.656 448.82 201.937 447.848 202.498C446.913 203.059 446.183 203.863 445.659 204.911C445.136 205.921 444.874 207.118 444.874 208.502V210.13C444.874 211.626 445.173 212.917 445.772 214.001C446.408 215.086 447.305 215.928 448.465 216.527C449.625 217.088 451.009 217.368 452.618 217.368C454.114 217.368 455.386 217.163 456.433 216.751C457.518 216.302 458.584 215.629 459.632 214.731L465.243 220.567C463.784 222.176 461.989 223.41 459.856 224.271C457.724 225.094 455.199 225.505 452.281 225.505ZM511.965 194.081C514.322 194.081 516.417 194.567 518.25 195.54C520.12 196.475 521.579 197.934 522.627 199.917C523.712 201.899 524.254 204.462 524.254 207.604V225H513.592V209.344C513.592 207.174 513.181 205.603 512.358 204.63C511.535 203.62 510.412 203.115 508.991 203.115C507.981 203.115 507.064 203.358 506.241 203.845C505.418 204.331 504.782 205.079 504.333 206.089C503.884 207.062 503.66 208.334 503.66 209.905V225H492.998V209.344C492.998 207.174 492.586 205.603 491.763 204.63C490.978 203.62 489.856 203.115 488.397 203.115C487.349 203.115 486.414 203.358 485.591 203.845C484.805 204.331 484.169 205.079 483.683 206.089C483.234 207.062 483.01 208.334 483.01 209.905V225H472.348V194.586H482.504V203.059L480.484 200.646C481.607 198.476 483.14 196.849 485.086 195.764C487.031 194.642 489.201 194.081 491.595 194.081C494.326 194.081 496.72 194.791 498.778 196.213C500.873 197.597 502.276 199.767 502.986 202.722L499.507 201.993C500.592 199.524 502.22 197.597 504.389 196.213C506.597 194.791 509.122 194.081 511.965 194.081ZM550.119 225.505C547.537 225.505 545.33 224.944 543.497 223.822C541.664 222.662 540.261 220.941 539.288 218.659C538.353 216.34 537.886 213.384 537.886 209.793C537.886 206.164 538.335 203.209 539.232 200.927C540.13 198.607 541.477 196.886 543.273 195.764C545.106 194.642 547.388 194.081 550.119 194.081C552.887 194.081 555.393 194.735 557.638 196.045C559.92 197.317 561.716 199.131 563.025 201.488C564.372 203.807 565.045 206.576 565.045 209.793C565.045 213.01 564.372 215.797 563.025 218.154C561.716 220.511 559.92 222.325 557.638 223.597C555.393 224.869 552.887 225.505 550.119 225.505ZM530.983 235.886V194.586H541.14V199.748L541.084 209.793L541.645 219.894V235.886H530.983ZM547.874 217.032C549.071 217.032 550.137 216.751 551.073 216.19C552.045 215.629 552.812 214.806 553.373 213.721C553.972 212.636 554.271 211.327 554.271 209.793C554.271 208.259 553.972 206.95 553.373 205.865C552.812 204.78 552.045 203.957 551.073 203.396C550.137 202.835 549.071 202.554 547.874 202.554C546.677 202.554 545.592 202.835 544.619 203.396C543.684 203.957 542.917 204.78 542.319 205.865C541.758 206.95 541.477 208.259 541.477 209.793C541.477 211.327 541.758 212.636 542.319 213.721C542.917 214.806 543.684 215.629 544.619 216.19C545.592 216.751 546.677 217.032 547.874 217.032ZM570.001 225V183.363H580.663V225H570.001ZM606.166 225V219.332L605.436 217.93V207.492C605.436 205.809 604.912 204.518 603.865 203.62C602.855 202.685 601.228 202.217 598.983 202.217C597.524 202.217 596.046 202.46 594.55 202.947C593.054 203.396 591.782 204.032 590.734 204.855L587.143 197.616C588.864 196.494 590.921 195.633 593.315 195.035C595.747 194.399 598.16 194.081 600.554 194.081C605.492 194.081 609.308 195.222 612.002 197.504C614.733 199.748 616.098 203.283 616.098 208.109V225H606.166ZM597.187 225.505C594.756 225.505 592.698 225.094 591.015 224.271C589.331 223.447 588.041 222.325 587.143 220.904C586.282 219.482 585.852 217.892 585.852 216.134C585.852 214.263 586.32 212.655 587.255 211.308C588.228 209.924 589.705 208.876 591.688 208.166C593.671 207.417 596.233 207.043 599.376 207.043H606.559V212.599H600.835C599.114 212.599 597.898 212.879 597.187 213.44C596.514 214.001 596.177 214.75 596.177 215.685C596.177 216.62 596.533 217.368 597.243 217.93C597.954 218.491 598.927 218.771 600.161 218.771C601.321 218.771 602.369 218.491 603.304 217.93C604.277 217.331 604.987 216.433 605.436 215.236L606.895 219.164C606.334 221.259 605.23 222.849 603.584 223.934C601.976 224.981 599.843 225.505 597.187 225.505ZM636.408 225.505C632.517 225.505 629.487 224.551 627.317 222.643C625.147 220.698 624.062 217.78 624.062 213.889V187.796H634.724V213.777C634.724 214.862 635.024 215.722 635.622 216.358C636.221 216.957 636.988 217.256 637.923 217.256C639.195 217.256 640.28 216.938 641.178 216.302L643.815 223.765C642.917 224.364 641.813 224.794 640.504 225.056C639.195 225.355 637.829 225.505 636.408 225.505ZM619.629 203.676V195.708H641.683V203.676H619.629ZM662.986 225.505C659.395 225.505 656.252 224.832 653.559 223.485C650.903 222.101 648.826 220.23 647.33 217.873C645.871 215.479 645.142 212.767 645.142 209.737C645.142 206.707 645.852 204.013 647.274 201.656C648.733 199.262 650.734 197.41 653.278 196.101C655.822 194.754 658.684 194.081 661.864 194.081C664.857 194.081 667.588 194.698 670.057 195.932C672.526 197.13 674.49 198.907 675.949 201.263C677.408 203.62 678.137 206.482 678.137 209.849C678.137 210.223 678.118 210.653 678.081 211.14C678.044 211.626 678.006 212.075 677.969 212.486H653.895V206.875H672.301L668.261 208.446C668.298 207.062 668.036 205.865 667.475 204.855C666.952 203.845 666.203 203.059 665.231 202.498C664.295 201.937 663.192 201.656 661.92 201.656C660.648 201.656 659.526 201.937 658.553 202.498C657.618 203.059 656.888 203.863 656.365 204.911C655.841 205.921 655.579 207.118 655.579 208.502V210.13C655.579 211.626 655.878 212.917 656.477 214.001C657.113 215.086 658.011 215.928 659.17 216.527C660.33 217.088 661.714 217.368 663.323 217.368C664.819 217.368 666.091 217.163 667.139 216.751C668.223 216.302 669.29 215.629 670.337 214.731L675.949 220.567C674.49 222.176 672.694 223.41 670.562 224.271C668.429 225.094 665.904 225.505 662.986 225.505Z" fill="#303030"/>
<path d="M528.545 104.299L508.146 71.8491C505.768 68.0646 502.493 64.9502 498.622 62.7929C494.751 60.6357 490.41 59.5049 485.997 59.5048L436 59.5048L436 59.5001L648 59.5001L598.093 59.5C593.656 59.4992 589.292 60.6416 585.407 62.8208C581.521 65 578.24 68.145 575.87 71.963L555.823 104.22C549.499 114.408 534.92 114.448 528.545 104.299Z" fill="#7C5938"/>
</g>
<defs>
<clipPath id="clip0_365_1141">
<rect width="1080" height="261" fill="white"/>
</clipPath>
</defs>
</svg>
