<svg width="1080" height="468" viewBox="0 0 1080 468" fill="none" xmlns="http://www.w3.org/2000/svg">
<rect width="1080" height="468" fill="#F1F1F1"/>
<rect x="111" y="192" width="858" height="276" fill="#D9D9D9"/>
<rect x="47" y="47" width="986" height="145" fill="#5E341D"/>
<path d="M116.633 143V95.4925H137.197C141.45 95.4925 145.115 96.1938 148.192 97.5964C151.268 98.9538 153.644 100.922 155.318 103.501C156.992 106.08 157.829 109.157 157.829 112.731C157.829 116.26 156.992 119.314 155.318 121.893C153.644 124.472 151.268 126.463 148.192 127.865C145.115 129.223 141.45 129.902 137.197 129.902H122.741L127.628 124.947V143H116.633ZM127.628 126.169L122.741 120.943H136.586C139.98 120.943 142.513 120.219 144.187 118.771C145.861 117.323 146.698 115.31 146.698 112.731C146.698 110.107 145.861 108.071 144.187 106.623C142.513 105.175 139.98 104.451 136.586 104.451H122.741L127.628 99.2253V126.169ZM175.79 114.631H198.662V123.183H175.79V114.631ZM176.605 134.177H202.462V143H165.678V95.4925H201.58V104.315H176.605V134.177ZM226.82 143.814C223.02 143.814 219.377 143.317 215.893 142.321C212.41 141.281 209.604 139.946 207.478 138.317L211.211 130.037C213.247 131.485 215.645 132.684 218.405 133.634C221.21 134.539 224.038 134.992 226.888 134.992C229.06 134.992 230.802 134.788 232.114 134.381C233.471 133.928 234.467 133.318 235.1 132.548C235.733 131.779 236.05 130.897 236.05 129.902C236.05 128.635 235.552 127.639 234.557 126.915C233.562 126.146 232.25 125.535 230.621 125.083C228.992 124.585 227.182 124.133 225.191 123.726C223.246 123.273 221.278 122.73 219.287 122.097C217.341 121.463 215.554 120.649 213.925 119.653C212.296 118.658 210.962 117.346 209.921 115.717C208.926 114.088 208.428 112.007 208.428 109.473C208.428 106.759 209.152 104.293 210.6 102.076C212.093 99.8134 214.31 98.0263 217.251 96.7142C220.237 95.3568 223.97 94.6781 228.449 94.6781C231.435 94.6781 234.376 95.0401 237.272 95.764C240.167 96.4427 242.724 97.4833 244.941 98.8859L241.547 107.234C239.33 105.967 237.113 105.039 234.896 104.451C232.679 103.818 230.508 103.501 228.381 103.501C226.255 103.501 224.513 103.75 223.155 104.247C221.798 104.745 220.825 105.401 220.237 106.216C219.649 106.985 219.355 107.89 219.355 108.93C219.355 110.152 219.852 111.147 220.848 111.917C221.843 112.64 223.155 113.229 224.784 113.681C226.413 114.134 228.2 114.586 230.146 115.038C232.136 115.491 234.105 116.011 236.05 116.599C238.041 117.188 239.851 117.979 241.48 118.975C243.108 119.97 244.421 121.282 245.416 122.911C246.457 124.54 246.977 126.599 246.977 129.087C246.977 131.757 246.23 134.2 244.737 136.417C243.244 138.634 241.004 140.421 238.018 141.778C235.077 143.136 231.345 143.814 226.82 143.814ZM248.246 143L269.42 95.4925H280.279L301.522 143H289.984L272.61 101.058H276.954L259.512 143H248.246ZM258.833 132.82L261.751 124.472H286.184L289.17 132.82H258.833ZM306.451 143V95.4925H315.545L343.574 129.698H339.163V95.4925H350.022V143H340.996L312.898 108.795H317.31V143H306.451ZM390.323 143V104.451H375.121V95.4925H416.52V104.451H401.318V143H390.323ZM432.548 114.631H455.42V123.183H432.548V114.631ZM433.363 134.177H459.22V143H422.436V95.4925H458.338V104.315H433.363V134.177ZM467.968 143V95.4925H477.063L497.287 129.019H492.469L512.354 95.4925H521.38L521.516 143H511.2L511.132 111.306H513.032L497.151 137.978H492.197L475.977 111.306H478.284V143H467.968ZM532.787 143V95.4925H553.351C557.604 95.4925 561.269 96.1938 564.346 97.5964C567.422 98.9538 569.798 100.922 571.472 103.501C573.146 106.08 573.983 109.157 573.983 112.731C573.983 116.26 573.146 119.314 571.472 121.893C569.798 124.472 567.422 126.463 564.346 127.865C561.269 129.223 557.604 129.902 553.351 129.902H538.895L543.782 124.947V143H532.787ZM543.782 126.169L538.895 120.943H552.74C556.134 120.943 558.668 120.219 560.342 118.771C562.016 117.323 562.853 115.31 562.853 112.731C562.853 110.107 562.016 108.071 560.342 106.623C558.668 105.175 556.134 104.451 552.74 104.451H538.895L543.782 99.2253V126.169ZM581.832 143V95.4925H592.827V134.041H616.649V143H581.832ZM616.813 143L637.988 95.4925H648.847L670.089 143H658.552L641.177 101.058H645.521L628.079 143H616.813ZM627.4 132.82L630.319 124.472H654.751L657.737 132.82H627.4ZM682.473 143V104.451H667.27V95.4925H708.67V104.451H693.467V143H682.473ZM724.698 114.631H747.569V123.183H724.698V114.631ZM725.512 134.177H751.37V143H714.585V95.4925H750.488V104.315H725.512V134.177ZM794.948 143.814C791.147 143.814 787.505 143.317 784.021 142.321C780.537 141.281 777.732 139.946 775.606 138.317L779.338 130.037C781.374 131.485 783.772 132.684 786.532 133.634C789.337 134.539 792.165 134.992 795.016 134.992C797.188 134.992 798.929 134.788 800.242 134.381C801.599 133.928 802.594 133.318 803.228 132.548C803.861 131.779 804.178 130.897 804.178 129.902C804.178 128.635 803.68 127.639 802.685 126.915C801.689 126.146 800.377 125.535 798.748 125.083C797.12 124.585 795.31 124.133 793.319 123.726C791.374 123.273 789.405 122.73 787.415 122.097C785.469 121.463 783.682 120.649 782.053 119.653C780.424 118.658 779.089 117.346 778.049 115.717C777.053 114.088 776.556 112.007 776.556 109.473C776.556 106.759 777.28 104.293 778.727 102.076C780.221 99.8134 782.438 98.0263 785.379 96.7142C788.365 95.3568 792.097 94.6781 796.577 94.6781C799.563 94.6781 802.504 95.0401 805.4 95.764C808.295 96.4427 810.852 97.4833 813.069 98.8859L809.675 107.234C807.458 105.967 805.241 105.039 803.024 104.451C800.807 103.818 798.635 103.501 796.509 103.501C794.382 103.501 792.64 103.75 791.283 104.247C789.926 104.745 788.953 105.401 788.365 106.216C787.777 106.985 787.482 107.89 787.482 108.93C787.482 110.152 787.98 111.147 788.976 111.917C789.971 112.64 791.283 113.229 792.912 113.681C794.541 114.134 796.328 114.586 798.273 115.038C800.264 115.491 802.232 116.011 804.178 116.599C806.169 117.188 807.979 117.979 809.607 118.975C811.236 119.97 812.548 121.282 813.544 122.911C814.584 124.54 815.105 126.599 815.105 129.087C815.105 131.757 814.358 134.2 812.865 136.417C811.372 138.634 809.132 140.421 806.146 141.778C803.205 143.136 799.472 143.814 794.948 143.814ZM816.373 143L837.548 95.4925H848.407L869.65 143H858.112L840.738 101.058H845.082L827.639 143H816.373ZM826.961 132.82L829.879 124.472H854.312L857.298 132.82H826.961ZM884.328 143.814C881.115 143.814 878.152 143.226 875.437 142.05C872.768 140.828 870.573 139.109 868.854 136.892L874.962 129.562C876.274 131.281 877.654 132.594 879.102 133.499C880.55 134.358 882.111 134.788 883.785 134.788C888.264 134.788 890.504 132.164 890.504 126.915V104.315H873.808V95.4925H901.43V126.305C901.43 132.186 899.983 136.575 897.087 139.471C894.191 142.367 889.938 143.814 884.328 143.814ZM905.052 143L926.227 95.4925H937.086L958.329 143H946.791L929.417 101.058H933.76L916.318 143H905.052ZM915.64 132.82L918.558 124.472H942.99L945.977 132.82H915.64Z" fill="#E6E6E6"/>
<path d="M311.045 368V300.1H340.436C346.515 300.1 351.753 301.102 356.15 303.107C360.547 305.047 363.942 307.86 366.335 311.546C368.728 315.232 369.924 319.629 369.924 324.738C369.924 329.782 368.728 334.147 366.335 337.833C363.942 341.454 360.547 344.235 356.15 346.175C351.753 348.115 346.515 349.085 340.436 349.085H319.775L326.759 342.198V368H311.045ZM354.21 368L337.235 343.362H354.016L371.185 368H354.21ZM326.759 343.944L319.775 336.572H339.563C344.413 336.572 348.034 335.537 350.427 333.468C352.82 331.334 354.016 328.424 354.016 324.738C354.016 320.987 352.82 318.077 350.427 316.008C348.034 313.939 344.413 312.904 339.563 312.904H319.775L326.759 305.435V343.944ZM412.153 368.776C407.756 368.776 403.908 367.806 400.61 365.866C397.312 363.926 394.726 360.984 392.85 357.039C391.04 353.03 390.134 347.986 390.134 341.907C390.134 335.764 391.007 330.72 392.753 326.775C394.499 322.83 397.021 319.888 400.319 317.948C403.617 316.008 407.562 315.038 412.153 315.038C417.068 315.038 421.465 316.17 425.345 318.433C429.29 320.632 432.394 323.736 434.657 327.745C436.985 331.754 438.149 336.475 438.149 341.907C438.149 347.404 436.985 352.157 434.657 356.166C432.394 360.175 429.29 363.279 425.345 365.478C421.465 367.677 417.068 368.776 412.153 368.776ZM381.307 386.818V315.814H395.76V326.484L395.469 342.004L396.439 357.427V386.818H381.307ZM409.534 356.36C412.056 356.36 414.287 355.778 416.227 354.614C418.232 353.45 419.816 351.801 420.98 349.667C422.209 347.468 422.823 344.882 422.823 341.907C422.823 338.868 422.209 336.281 420.98 334.147C419.816 332.013 418.232 330.364 416.227 329.2C414.287 328.036 412.056 327.454 409.534 327.454C407.012 327.454 404.749 328.036 402.744 329.2C400.74 330.364 399.155 332.013 397.991 334.147C396.827 336.281 396.245 338.868 396.245 341.907C396.245 344.882 396.827 347.468 397.991 349.667C399.155 351.801 400.74 353.45 402.744 354.614C404.749 355.778 407.012 356.36 409.534 356.36ZM453.339 368.776C450.752 368.776 448.521 367.903 446.646 366.157C444.835 364.346 443.93 362.051 443.93 359.27C443.93 356.489 444.835 354.258 446.646 352.577C448.521 350.831 450.752 349.958 453.339 349.958C455.99 349.958 458.221 350.831 460.032 352.577C461.843 354.258 462.748 356.489 462.748 359.27C462.748 362.051 461.843 364.346 460.032 366.157C458.221 367.903 455.99 368.776 453.339 368.776ZM496.496 353.741V343.168L528.506 300.1H544.996L513.665 343.168L506.002 340.937H559.449V353.741H496.496ZM533.065 368V353.741L533.55 340.937V328.23H548.391V368H533.065ZM574.968 368.776C572.381 368.776 570.15 367.903 568.275 366.157C566.464 364.346 565.559 362.051 565.559 359.27C565.559 356.489 566.464 354.258 568.275 352.577C570.15 350.831 572.381 349.958 574.968 349.958C577.619 349.958 579.85 350.831 581.661 352.577C583.471 354.258 584.377 356.489 584.377 359.27C584.377 362.051 583.471 364.346 581.661 366.157C579.85 367.903 577.619 368.776 574.968 368.776ZM614.516 369.164C609.796 369.164 605.107 368.55 600.451 367.321C595.86 366.028 591.915 364.217 588.617 361.889L594.825 349.861C597.412 351.736 600.387 353.224 603.749 354.323C607.177 355.422 610.636 355.972 614.128 355.972C618.073 355.972 621.177 355.196 623.44 353.644C625.704 352.092 626.835 349.926 626.835 347.145C626.835 345.399 626.383 343.847 625.477 342.489C624.572 341.131 622.955 340.096 620.627 339.385C618.364 338.674 615.163 338.318 611.024 338.318H593.661L597.153 300.1H638.572V312.71H602.779L610.927 305.532L608.502 332.789L600.354 325.611H614.71C621.436 325.611 626.835 326.549 630.909 328.424C635.048 330.235 638.055 332.724 639.93 335.893C641.806 339.062 642.743 342.651 642.743 346.66C642.743 350.669 641.741 354.388 639.736 357.815C637.732 361.178 634.628 363.926 630.424 366.06C626.286 368.129 620.983 369.164 614.516 369.164ZM678.219 369.164C672.658 369.164 667.678 367.806 663.281 365.09C658.884 362.309 655.424 358.3 652.902 353.062C650.38 347.824 649.119 341.487 649.119 334.05C649.119 326.613 650.38 320.276 652.902 315.038C655.424 309.8 658.884 305.823 663.281 303.107C667.678 300.326 672.658 298.936 678.219 298.936C683.845 298.936 688.824 300.326 693.157 303.107C697.554 305.823 701.014 309.8 703.536 315.038C706.058 320.276 707.319 326.613 707.319 334.05C707.319 341.487 706.058 347.824 703.536 353.062C701.014 358.3 697.554 362.309 693.157 365.09C688.824 367.806 683.845 369.164 678.219 369.164ZM678.219 355.875C680.87 355.875 683.166 355.131 685.106 353.644C687.111 352.157 688.663 349.796 689.762 346.563C690.926 343.33 691.508 339.159 691.508 334.05C691.508 328.941 690.926 324.77 689.762 321.537C688.663 318.304 687.111 315.943 685.106 314.456C683.166 312.969 680.87 312.225 678.219 312.225C675.632 312.225 673.337 312.969 671.332 314.456C669.392 315.943 667.84 318.304 666.676 321.537C665.577 324.77 665.027 328.941 665.027 334.05C665.027 339.159 665.577 343.33 666.676 346.563C667.84 349.796 669.392 352.157 671.332 353.644C673.337 355.131 675.632 355.875 678.219 355.875ZM744.054 369.164C738.493 369.164 733.513 367.806 729.116 365.09C724.719 362.309 721.259 358.3 718.737 353.062C716.215 347.824 714.954 341.487 714.954 334.05C714.954 326.613 716.215 320.276 718.737 315.038C721.259 309.8 724.719 305.823 729.116 303.107C733.513 300.326 738.493 298.936 744.054 298.936C749.68 298.936 754.659 300.326 758.992 303.107C763.389 305.823 766.849 309.8 769.371 315.038C771.893 320.276 773.154 326.613 773.154 334.05C773.154 341.487 771.893 347.824 769.371 353.062C766.849 358.3 763.389 362.309 758.992 365.09C754.659 367.806 749.68 369.164 744.054 369.164ZM744.054 355.875C746.705 355.875 749.001 355.131 750.941 353.644C752.946 352.157 754.498 349.796 755.597 346.563C756.761 343.33 757.343 339.159 757.343 334.05C757.343 328.941 756.761 324.77 755.597 321.537C754.498 318.304 752.946 315.943 750.941 314.456C749.001 312.969 746.705 312.225 744.054 312.225C741.467 312.225 739.172 312.969 737.167 314.456C735.227 315.943 733.675 318.304 732.511 321.537C731.412 324.77 730.862 328.941 730.862 334.05C730.862 339.159 731.412 343.33 732.511 346.563C733.675 349.796 735.227 352.157 737.167 353.644C739.172 355.131 741.467 355.875 744.054 355.875Z" fill="#5E341D"/>
<path d="M416.268 273V232.433H431.452C434.891 232.433 437.846 232.993 440.319 234.113C442.791 235.195 444.685 236.779 445.998 238.865C447.35 240.913 448.027 243.405 448.027 246.341C448.027 249.2 447.35 251.673 445.998 253.759C444.685 255.807 442.791 257.391 440.319 258.512C437.846 259.593 434.891 260.134 431.452 260.134H418.644L420.557 258.164V273H416.268ZM443.97 273L433.538 258.28H438.175L448.664 273H443.97ZM420.557 258.512L418.644 256.483H431.336C435.393 256.483 438.464 255.595 440.551 253.817C442.676 252.04 443.738 249.548 443.738 246.341C443.738 243.096 442.676 240.585 440.551 238.807C438.464 237.03 435.393 236.142 431.336 236.142H418.644L420.557 234.113V258.512ZM472.985 273.29C470.357 273.29 467.981 272.691 465.856 271.493C463.731 270.257 462.031 268.499 460.756 266.219C459.52 263.901 458.902 261.081 458.902 257.758C458.902 254.436 459.52 251.635 460.756 249.355C461.993 247.037 463.673 245.279 465.798 244.081C467.923 242.884 470.319 242.285 472.985 242.285C475.882 242.285 478.471 242.942 480.75 244.255C483.068 245.53 484.884 247.346 486.198 249.703C487.512 252.021 488.168 254.706 488.168 257.758C488.168 260.849 487.512 263.554 486.198 265.872C484.884 268.19 483.068 270.006 480.75 271.319C478.471 272.633 475.882 273.29 472.985 273.29ZM457.279 284.243V242.574H461.22V251.731L460.814 257.816L461.394 263.959V284.243H457.279ZM472.695 269.639C474.858 269.639 476.79 269.156 478.49 268.19C480.19 267.185 481.542 265.794 482.547 264.017C483.551 262.201 484.054 260.115 484.054 257.758C484.054 255.401 483.551 253.334 482.547 251.557C481.542 249.78 480.19 248.389 478.49 247.385C476.79 246.38 474.858 245.878 472.695 245.878C470.531 245.878 468.58 246.38 466.842 247.385C465.142 248.389 463.789 249.78 462.785 251.557C461.819 253.334 461.336 255.401 461.336 257.758C461.336 260.115 461.819 262.201 462.785 264.017C463.789 265.794 465.142 267.185 466.842 268.19C468.58 269.156 470.531 269.639 472.695 269.639ZM496.113 273.29C495.263 273.29 494.529 272.981 493.911 272.363C493.331 271.744 493.041 270.991 493.041 270.102C493.041 269.175 493.331 268.422 493.911 267.842C494.529 267.263 495.263 266.973 496.113 266.973C496.963 266.973 497.678 267.263 498.257 267.842C498.875 268.422 499.185 269.175 499.185 270.102C499.185 270.991 498.875 271.744 498.257 272.363C497.678 272.981 496.963 273.29 496.113 273.29ZM527.56 273L545.062 234.287L546.337 236.142H521.243L523.388 234.113V243.734H519.273V232.433H549.061V235.388L532.081 273H527.56ZM554.632 273.29C553.782 273.29 553.048 272.981 552.43 272.363C551.851 271.744 551.561 270.991 551.561 270.102C551.561 269.175 551.851 268.422 552.43 267.842C553.048 267.263 553.782 266.973 554.632 266.973C555.482 266.973 556.197 267.263 556.777 267.842C557.395 268.422 557.704 269.175 557.704 270.102C557.704 270.991 557.395 271.744 556.777 272.363C556.197 272.981 555.482 273.29 554.632 273.29ZM576.592 273.348C573.694 273.348 570.932 272.884 568.304 271.957C565.677 270.991 563.591 269.716 562.045 268.132L564.074 264.829C565.349 266.181 567.087 267.301 569.29 268.19C571.53 269.078 573.945 269.523 576.534 269.523C579.972 269.523 582.58 268.769 584.357 267.263C586.173 265.717 587.081 263.708 587.081 261.235C587.081 259.497 586.656 258.009 585.806 256.773C584.995 255.498 583.604 254.513 581.634 253.817C579.663 253.122 576.959 252.774 573.52 252.774H564.885L566.971 232.433H589.168V236.142H568.652L570.796 234.113L569 251.152L566.856 249.065H574.447C578.543 249.065 581.827 249.568 584.299 250.572C586.772 251.577 588.549 252.987 589.631 254.803C590.752 256.58 591.312 258.666 591.312 261.062C591.312 263.341 590.771 265.427 589.689 267.321C588.607 269.175 586.985 270.643 584.821 271.725C582.657 272.807 579.914 273.348 576.592 273.348ZM612.778 273.348C609.649 273.348 606.867 272.536 604.433 270.914C601.999 269.252 600.086 266.896 598.695 263.843C597.305 260.753 596.609 257.043 596.609 252.716C596.609 248.389 597.305 244.699 598.695 241.647C600.086 238.556 601.999 236.2 604.433 234.577C606.867 232.916 609.649 232.085 612.778 232.085C615.908 232.085 618.689 232.916 621.123 234.577C623.557 236.2 625.47 238.556 626.861 241.647C628.29 244.699 629.005 248.389 629.005 252.716C629.005 257.043 628.29 260.753 626.861 263.843C625.47 266.896 623.557 269.252 621.123 270.914C618.689 272.536 615.908 273.348 612.778 273.348ZM612.778 269.523C615.174 269.523 617.26 268.885 619.037 267.61C620.814 266.297 622.205 264.404 623.21 261.931C624.214 259.42 624.717 256.348 624.717 252.716C624.717 249.085 624.214 246.032 623.21 243.56C622.205 241.048 620.814 239.155 619.037 237.88C617.26 236.567 615.174 235.91 612.778 235.91C610.46 235.91 608.393 236.567 606.577 237.88C604.761 239.155 603.351 241.048 602.347 243.56C601.342 246.032 600.84 249.085 600.84 252.716C600.84 256.348 601.342 259.42 602.347 261.931C603.351 264.404 604.761 266.297 606.577 267.61C608.393 268.885 610.46 269.523 612.778 269.523ZM651.15 273.348C648.02 273.348 645.238 272.536 642.804 270.914C640.37 269.252 638.458 266.896 637.067 263.843C635.676 260.753 634.981 257.043 634.981 252.716C634.981 248.389 635.676 244.699 637.067 241.647C638.458 238.556 640.37 236.2 642.804 234.577C645.238 232.916 648.02 232.085 651.15 232.085C654.279 232.085 657.061 232.916 659.495 234.577C661.929 236.2 663.841 238.556 665.232 241.647C666.662 244.699 667.377 248.389 667.377 252.716C667.377 257.043 666.662 260.753 665.232 263.843C663.841 266.896 661.929 269.252 659.495 270.914C657.061 272.536 654.279 273.348 651.15 273.348ZM651.15 269.523C653.545 269.523 655.631 268.885 657.409 267.61C659.186 266.297 660.577 264.404 661.581 261.931C662.586 259.42 663.088 256.348 663.088 252.716C663.088 249.085 662.586 246.032 661.581 243.56C660.577 241.048 659.186 239.155 657.409 237.88C655.631 236.567 653.545 235.91 651.15 235.91C648.831 235.91 646.764 236.567 644.949 237.88C643.133 239.155 641.723 241.048 640.718 243.56C639.713 246.032 639.211 249.085 639.211 252.716C639.211 256.348 639.713 259.42 640.718 261.931C641.723 264.404 643.133 266.297 644.949 267.61C646.764 268.885 648.831 269.523 651.15 269.523Z" fill="#212121"/>
<path d="M409.661 255.034H670.332V257.932H409.661V255.034Z" fill="#212121"/>
<path d="M247.238 440.264C243.308 440.264 240.213 439.135 237.954 436.876C235.696 434.617 234.566 431.273 234.566 426.844V409.2H237.822V426.712C237.822 430.349 238.644 433.033 240.286 434.764C241.929 436.495 244.246 437.36 247.238 437.36C250.26 437.36 252.592 436.495 254.234 434.764C255.877 433.033 256.698 430.349 256.698 426.712V409.2H259.866V426.844C259.866 431.273 258.737 434.617 256.478 436.876C254.249 439.135 251.169 440.264 247.238 440.264ZM280.81 416.68C282.687 416.68 284.33 417.047 285.738 417.78C287.175 418.484 288.29 419.569 289.082 421.036C289.903 422.503 290.314 424.351 290.314 426.58V440H287.19V426.888C287.19 424.453 286.574 422.62 285.342 421.388C284.139 420.127 282.438 419.496 280.238 419.496C278.595 419.496 277.158 419.833 275.926 420.508C274.723 421.153 273.785 422.107 273.11 423.368C272.465 424.6 272.142 426.096 272.142 427.856V440H269.018V416.9H272.01V423.236L271.526 422.048C272.259 420.376 273.433 419.071 275.046 418.132C276.659 417.164 278.581 416.68 280.81 416.68ZM306.056 440.22C303.886 440.22 302.214 439.633 301.04 438.46C299.867 437.287 299.28 435.629 299.28 433.488V411.796H302.404V433.312C302.404 434.661 302.742 435.703 303.416 436.436C304.12 437.169 305.118 437.536 306.408 437.536C307.787 437.536 308.931 437.14 309.84 436.348L310.94 438.592C310.324 439.149 309.576 439.56 308.696 439.824C307.846 440.088 306.966 440.22 306.056 440.22ZM295.144 419.496V416.9H309.444V419.496H295.144ZM326.175 440.22C324.21 440.22 322.494 439.853 321.027 439.12C319.561 438.387 318.417 437.287 317.595 435.82C316.803 434.353 316.407 432.52 316.407 430.32V416.9H319.531V429.968C319.531 432.432 320.133 434.295 321.335 435.556C322.567 436.788 324.283 437.404 326.483 437.404C328.097 437.404 329.49 437.081 330.663 436.436C331.866 435.761 332.775 434.793 333.391 433.532C334.037 432.271 334.359 430.76 334.359 429V416.9H337.483V440H334.491V433.664L334.975 434.808C334.242 436.509 333.098 437.844 331.543 438.812C330.018 439.751 328.229 440.22 326.175 440.22ZM348.654 434.016L348.742 430.012L363.13 416.9H366.958L356.794 426.624L355.034 428.12L348.654 434.016ZM346.19 440V407.352H349.314V440H346.19ZM364.098 440L354.462 427.988L356.486 425.568L367.926 440H364.098ZM393.283 440.264C390.995 440.264 388.795 439.897 386.683 439.164C384.601 438.401 382.987 437.433 381.843 436.26L383.119 433.752C384.205 434.808 385.657 435.703 387.475 436.436C389.323 437.14 391.259 437.492 393.283 437.492C395.219 437.492 396.789 437.257 397.991 436.788C399.223 436.289 400.118 435.629 400.675 434.808C401.262 433.987 401.555 433.077 401.555 432.08C401.555 430.877 401.203 429.909 400.499 429.176C399.825 428.443 398.93 427.871 397.815 427.46C396.701 427.02 395.469 426.639 394.119 426.316C392.77 425.993 391.421 425.656 390.071 425.304C388.722 424.923 387.475 424.424 386.331 423.808C385.217 423.192 384.307 422.385 383.603 421.388C382.929 420.361 382.591 419.027 382.591 417.384C382.591 415.859 382.987 414.465 383.779 413.204C384.601 411.913 385.847 410.887 387.519 410.124C389.191 409.332 391.333 408.936 393.943 408.936C395.674 408.936 397.39 409.185 399.091 409.684C400.793 410.153 402.259 410.813 403.491 411.664L402.391 414.26C401.071 413.38 399.663 412.735 398.167 412.324C396.701 411.913 395.278 411.708 393.899 411.708C392.051 411.708 390.526 411.957 389.323 412.456C388.121 412.955 387.226 413.629 386.639 414.48C386.082 415.301 385.803 416.24 385.803 417.296C385.803 418.499 386.141 419.467 386.815 420.2C387.519 420.933 388.429 421.505 389.543 421.916C390.687 422.327 391.934 422.693 393.283 423.016C394.633 423.339 395.967 423.691 397.287 424.072C398.637 424.453 399.869 424.952 400.983 425.568C402.127 426.155 403.037 426.947 403.711 427.944C404.415 428.941 404.767 430.247 404.767 431.86C404.767 433.356 404.357 434.749 403.535 436.04C402.714 437.301 401.453 438.328 399.751 439.12C398.079 439.883 395.923 440.264 393.283 440.264ZM421.014 440.22C418.608 440.22 416.496 439.721 414.678 438.724C412.859 437.697 411.436 436.304 410.41 434.544C409.383 432.755 408.87 430.716 408.87 428.428C408.87 426.14 409.354 424.116 410.322 422.356C411.319 420.596 412.668 419.217 414.37 418.22C416.1 417.193 418.036 416.68 420.178 416.68C422.348 416.68 424.27 417.179 425.942 418.176C427.643 419.144 428.978 420.523 429.946 422.312C430.914 424.072 431.398 426.111 431.398 428.428C431.398 428.575 431.383 428.736 431.354 428.912C431.354 429.059 431.354 429.22 431.354 429.396H411.246V427.064H429.682L428.45 427.988C428.45 426.316 428.083 424.835 427.35 423.544C426.646 422.224 425.678 421.197 424.446 420.464C423.214 419.731 421.791 419.364 420.178 419.364C418.594 419.364 417.171 419.731 415.91 420.464C414.648 421.197 413.666 422.224 412.962 423.544C412.258 424.864 411.906 426.375 411.906 428.076V428.56C411.906 430.32 412.287 431.875 413.05 433.224C413.842 434.544 414.927 435.585 416.306 436.348C417.714 437.081 419.312 437.448 421.102 437.448C422.51 437.448 423.815 437.199 425.018 436.7C426.25 436.201 427.306 435.439 428.186 434.412L429.946 436.436C428.919 437.668 427.628 438.607 426.074 439.252C424.548 439.897 422.862 440.22 421.014 440.22ZM437.756 440V416.9H440.748V423.192L440.44 422.092C441.086 420.332 442.171 418.997 443.696 418.088C445.222 417.149 447.114 416.68 449.372 416.68V419.716C449.255 419.716 449.138 419.716 449.02 419.716C448.903 419.687 448.786 419.672 448.668 419.672C446.234 419.672 444.327 420.42 442.948 421.916C441.57 423.383 440.88 425.48 440.88 428.208V440H437.756ZM463.365 440.22C461.194 440.22 459.522 439.633 458.349 438.46C457.176 437.287 456.589 435.629 456.589 433.488V411.796H459.713V433.312C459.713 434.661 460.05 435.703 460.725 436.436C461.429 437.169 462.426 437.536 463.717 437.536C465.096 437.536 466.24 437.14 467.149 436.348L468.249 438.592C467.633 439.149 466.885 439.56 466.005 439.824C465.154 440.088 464.274 440.22 463.365 440.22ZM452.453 419.496V416.9H466.753V419.496H452.453ZM473.936 440V416.9H477.06V440H473.936ZM475.52 411.796C474.875 411.796 474.332 411.576 473.892 411.136C473.452 410.696 473.232 410.168 473.232 409.552C473.232 408.936 473.452 408.423 473.892 408.012C474.332 407.572 474.875 407.352 475.52 407.352C476.165 407.352 476.708 407.557 477.148 407.968C477.588 408.379 477.808 408.892 477.808 409.508C477.808 410.153 477.588 410.696 477.148 411.136C476.737 411.576 476.195 411.796 475.52 411.796ZM500.228 440V434.896L500.096 434.06V425.524C500.096 423.559 499.539 422.048 498.424 420.992C497.339 419.936 495.711 419.408 493.54 419.408C492.044 419.408 490.622 419.657 489.272 420.156C487.923 420.655 486.779 421.315 485.84 422.136L484.432 419.804C485.606 418.807 487.014 418.044 488.656 417.516C490.299 416.959 492.03 416.68 493.848 416.68C496.84 416.68 499.143 417.428 500.756 418.924C502.399 420.391 503.22 422.635 503.22 425.656V440H500.228ZM492.264 440.22C490.534 440.22 489.023 439.941 487.732 439.384C486.471 438.797 485.503 438.005 484.828 437.008C484.154 435.981 483.816 434.808 483.816 433.488C483.816 432.285 484.095 431.2 484.652 430.232C485.239 429.235 486.178 428.443 487.468 427.856C488.788 427.24 490.548 426.932 492.748 426.932H500.712V429.264H492.836C490.607 429.264 489.052 429.66 488.172 430.452C487.322 431.244 486.896 432.227 486.896 433.4C486.896 434.72 487.41 435.776 488.436 436.568C489.463 437.36 490.9 437.756 492.748 437.756C494.508 437.756 496.019 437.36 497.28 436.568C498.571 435.747 499.51 434.573 500.096 433.048L500.8 435.204C500.214 436.729 499.187 437.947 497.72 438.856C496.283 439.765 494.464 440.22 492.264 440.22ZM523.63 440.22C521.635 440.22 519.831 439.765 518.218 438.856C516.604 437.917 515.314 436.583 514.346 434.852C513.407 433.092 512.938 430.951 512.938 428.428C512.938 425.905 513.407 423.779 514.346 422.048C515.284 420.288 516.56 418.953 518.174 418.044C519.787 417.135 521.606 416.68 523.63 416.68C525.83 416.68 527.795 417.179 529.526 418.176C531.286 419.144 532.664 420.523 533.662 422.312C534.659 424.072 535.158 426.111 535.158 428.428C535.158 430.775 534.659 432.828 533.662 434.588C532.664 436.348 531.286 437.727 529.526 438.724C527.795 439.721 525.83 440.22 523.63 440.22ZM511.706 448.536V416.9H514.698V423.852L514.39 428.472L514.83 433.136V448.536H511.706ZM523.41 437.448C525.052 437.448 526.519 437.081 527.81 436.348C529.1 435.585 530.127 434.529 530.89 433.18C531.652 431.801 532.034 430.217 532.034 428.428C532.034 426.639 531.652 425.069 530.89 423.72C530.127 422.371 529.1 421.315 527.81 420.552C526.519 419.789 525.052 419.408 523.41 419.408C521.767 419.408 520.286 419.789 518.966 420.552C517.675 421.315 516.648 422.371 515.886 423.72C515.152 425.069 514.786 426.639 514.786 428.428C514.786 430.217 515.152 431.801 515.886 433.18C516.648 434.529 517.675 435.585 518.966 436.348C520.286 437.081 521.767 437.448 523.41 437.448ZM562.458 440L548.818 409.2H552.338L565.098 438.196H563.162L576.01 409.2H579.31L565.67 440H562.458ZM595.834 440V434.896L595.702 434.06V425.524C595.702 423.559 595.145 422.048 594.03 420.992C592.945 419.936 591.317 419.408 589.146 419.408C587.65 419.408 586.227 419.657 584.878 420.156C583.529 420.655 582.385 421.315 581.446 422.136L580.038 419.804C581.211 418.807 582.619 418.044 584.262 417.516C585.905 416.959 587.635 416.68 589.454 416.68C592.446 416.68 594.749 417.428 596.362 418.924C598.005 420.391 598.826 422.635 598.826 425.656V440H595.834ZM587.87 440.22C586.139 440.22 584.629 439.941 583.338 439.384C582.077 438.797 581.109 438.005 580.434 437.008C579.759 435.981 579.422 434.808 579.422 433.488C579.422 432.285 579.701 431.2 580.258 430.232C580.845 429.235 581.783 428.443 583.074 427.856C584.394 427.24 586.154 426.932 588.354 426.932H596.318V429.264H588.442C586.213 429.264 584.658 429.66 583.778 430.452C582.927 431.244 582.502 432.227 582.502 433.4C582.502 434.72 583.015 435.776 584.042 436.568C585.069 437.36 586.506 437.756 588.354 437.756C590.114 437.756 591.625 437.36 592.886 436.568C594.177 435.747 595.115 434.573 595.702 433.048L596.406 435.204C595.819 436.729 594.793 437.947 593.326 438.856C591.889 439.765 590.07 440.22 587.87 440.22ZM607.311 440V416.9H610.303V423.192L609.995 422.092C610.64 420.332 611.726 418.997 613.251 418.088C614.776 417.149 616.668 416.68 618.927 416.68V419.716C618.81 419.716 618.692 419.716 618.575 419.716C618.458 419.687 618.34 419.672 618.223 419.672C615.788 419.672 613.882 420.42 612.503 421.916C611.124 423.383 610.435 425.48 610.435 428.208V440H607.311ZM624.627 440V416.9H627.751V440H624.627ZM626.211 411.796C625.566 411.796 625.023 411.576 624.583 411.136C624.143 410.696 623.923 410.168 623.923 409.552C623.923 408.936 624.143 408.423 624.583 408.012C625.023 407.572 625.566 407.352 626.211 407.352C626.857 407.352 627.399 407.557 627.839 407.968C628.279 408.379 628.499 408.892 628.499 409.508C628.499 410.153 628.279 410.696 627.839 411.136C627.429 411.576 626.886 411.796 626.211 411.796ZM650.92 440V434.896L650.788 434.06V425.524C650.788 423.559 650.231 422.048 649.116 420.992C648.031 419.936 646.403 419.408 644.232 419.408C642.736 419.408 641.313 419.657 639.964 420.156C638.615 420.655 637.471 421.315 636.532 422.136L635.124 419.804C636.297 418.807 637.705 418.044 639.348 417.516C640.991 416.959 642.721 416.68 644.54 416.68C647.532 416.68 649.835 417.428 651.448 418.924C653.091 420.391 653.912 422.635 653.912 425.656V440H650.92ZM642.956 440.22C641.225 440.22 639.715 439.941 638.424 439.384C637.163 438.797 636.195 438.005 635.52 437.008C634.845 435.981 634.508 434.808 634.508 433.488C634.508 432.285 634.787 431.2 635.344 430.232C635.931 429.235 636.869 428.443 638.16 427.856C639.48 427.24 641.24 426.932 643.44 426.932H651.404V429.264H643.528C641.299 429.264 639.744 429.66 638.864 430.452C638.013 431.244 637.588 432.227 637.588 433.4C637.588 434.72 638.101 435.776 639.128 436.568C640.155 437.36 641.592 437.756 643.44 437.756C645.2 437.756 646.711 437.36 647.972 436.568C649.263 435.747 650.201 434.573 650.788 433.048L651.492 435.204C650.905 436.729 649.879 437.947 648.412 438.856C646.975 439.765 645.156 440.22 642.956 440.22ZM674.189 416.68C676.066 416.68 677.709 417.047 679.117 417.78C680.554 418.484 681.669 419.569 682.461 421.036C683.282 422.503 683.693 424.351 683.693 426.58V440H680.569V426.888C680.569 424.453 679.953 422.62 678.721 421.388C677.518 420.127 675.817 419.496 673.617 419.496C671.974 419.496 670.537 419.833 669.305 420.508C668.102 421.153 667.164 422.107 666.489 423.368C665.844 424.6 665.521 426.096 665.521 427.856V440H662.397V416.9H665.389V423.236L664.905 422.048C665.638 420.376 666.812 419.071 668.425 418.132C670.038 417.164 671.96 416.68 674.189 416.68ZM704.307 440V409.2H716.847C720.132 409.2 723.007 409.86 725.471 411.18C727.964 412.471 729.9 414.275 731.279 416.592C732.658 418.909 733.347 421.579 733.347 424.6C733.347 427.621 732.658 430.291 731.279 432.608C729.9 434.925 727.964 436.744 725.471 438.064C723.007 439.355 720.132 440 716.847 440H704.307ZM707.563 437.184H716.671C719.399 437.184 721.76 436.656 723.755 435.6C725.779 434.515 727.348 433.033 728.463 431.156C729.578 429.249 730.135 427.064 730.135 424.6C730.135 422.107 729.578 419.921 728.463 418.044C727.348 416.167 725.779 414.7 723.755 413.644C721.76 412.559 719.399 412.016 716.671 412.016H707.563V437.184ZM749.811 440.22C747.405 440.22 745.293 439.721 743.475 438.724C741.656 437.697 740.233 436.304 739.207 434.544C738.18 432.755 737.667 430.716 737.667 428.428C737.667 426.14 738.151 424.116 739.119 422.356C740.116 420.596 741.465 419.217 743.167 418.22C744.897 417.193 746.833 416.68 748.975 416.68C751.145 416.68 753.067 417.179 754.739 418.176C756.44 419.144 757.775 420.523 758.743 422.312C759.711 424.072 760.195 426.111 760.195 428.428C760.195 428.575 760.18 428.736 760.151 428.912C760.151 429.059 760.151 429.22 760.151 429.396H740.043V427.064H758.479L757.247 427.988C757.247 426.316 756.88 424.835 756.147 423.544C755.443 422.224 754.475 421.197 753.243 420.464C752.011 419.731 750.588 419.364 748.975 419.364C747.391 419.364 745.968 419.731 744.707 420.464C743.445 421.197 742.463 422.224 741.759 423.544C741.055 424.864 740.703 426.375 740.703 428.076V428.56C740.703 430.32 741.084 431.875 741.847 433.224C742.639 434.544 743.724 435.585 745.103 436.348C746.511 437.081 748.109 437.448 749.899 437.448C751.307 437.448 752.612 437.199 753.815 436.7C755.047 436.201 756.103 435.439 756.983 434.412L758.743 436.436C757.716 437.668 756.425 438.607 754.871 439.252C753.345 439.897 751.659 440.22 749.811 440.22ZM772.757 440.22C770.851 440.22 769.047 439.956 767.345 439.428C765.644 438.871 764.309 438.181 763.341 437.36L764.749 434.896C765.688 435.6 766.891 436.216 768.357 436.744C769.824 437.243 771.364 437.492 772.977 437.492C775.177 437.492 776.761 437.155 777.729 436.48C778.697 435.776 779.181 434.852 779.181 433.708C779.181 432.857 778.903 432.197 778.345 431.728C777.817 431.229 777.113 430.863 776.233 430.628C775.353 430.364 774.371 430.144 773.285 429.968C772.2 429.792 771.115 429.587 770.029 429.352C768.973 429.117 768.005 428.78 767.125 428.34C766.245 427.871 765.527 427.24 764.969 426.448C764.441 425.656 764.177 424.6 764.177 423.28C764.177 422.019 764.529 420.889 765.233 419.892C765.937 418.895 766.964 418.117 768.313 417.56C769.692 416.973 771.364 416.68 773.329 416.68C774.825 416.68 776.321 416.885 777.817 417.296C779.313 417.677 780.545 418.191 781.513 418.836L780.149 421.344C779.123 420.64 778.023 420.141 776.849 419.848C775.676 419.525 774.503 419.364 773.329 419.364C771.247 419.364 769.707 419.731 768.709 420.464C767.741 421.168 767.257 422.077 767.257 423.192C767.257 424.072 767.521 424.761 768.049 425.26C768.607 425.759 769.325 426.155 770.205 426.448C771.115 426.712 772.097 426.932 773.153 427.108C774.239 427.284 775.309 427.504 776.365 427.768C777.451 428.003 778.433 428.34 779.313 428.78C780.223 429.191 780.941 429.792 781.469 430.584C782.027 431.347 782.305 432.359 782.305 433.62C782.305 434.969 781.924 436.143 781.161 437.14C780.428 438.108 779.343 438.871 777.905 439.428C776.497 439.956 774.781 440.22 772.757 440.22ZM802.514 440V434.896L802.382 434.06V425.524C802.382 423.559 801.824 422.048 800.71 420.992C799.624 419.936 797.996 419.408 795.826 419.408C794.33 419.408 792.907 419.657 791.558 420.156C790.208 420.655 789.064 421.315 788.126 422.136L786.718 419.804C787.891 418.807 789.299 418.044 790.942 417.516C792.584 416.959 794.315 416.68 796.134 416.68C799.126 416.68 801.428 417.428 803.042 418.924C804.684 420.391 805.506 422.635 805.506 425.656V440H802.514ZM794.55 440.22C792.819 440.22 791.308 439.941 790.018 439.384C788.756 438.797 787.788 438.005 787.114 437.008C786.439 435.981 786.102 434.808 786.102 433.488C786.102 432.285 786.38 431.2 786.938 430.232C787.524 429.235 788.463 428.443 789.754 427.856C791.074 427.24 792.834 426.932 795.034 426.932H802.998V429.264H795.122C792.892 429.264 791.338 429.66 790.458 430.452C789.607 431.244 789.182 432.227 789.182 433.4C789.182 434.72 789.695 435.776 790.722 436.568C791.748 437.36 793.186 437.756 795.034 437.756C796.794 437.756 798.304 437.36 799.566 436.568C800.856 435.747 801.795 434.573 802.382 433.048L803.086 435.204C802.499 436.729 801.472 437.947 800.006 438.856C798.568 439.765 796.75 440.22 794.55 440.22ZM813.991 440V416.9H817.115V440H813.991ZM815.575 411.796C814.929 411.796 814.387 411.576 813.947 411.136C813.507 410.696 813.287 410.168 813.287 409.552C813.287 408.936 813.507 408.423 813.947 408.012C814.387 407.572 814.929 407.352 815.575 407.352C816.22 407.352 816.763 407.557 817.203 407.968C817.643 408.379 817.863 408.892 817.863 409.508C817.863 410.153 817.643 410.696 817.203 411.136C816.792 411.576 816.249 411.796 815.575 411.796ZM837.599 416.68C839.477 416.68 841.119 417.047 842.527 417.78C843.965 418.484 845.079 419.569 845.871 421.036C846.693 422.503 847.103 424.351 847.103 426.58V440H843.979V426.888C843.979 424.453 843.363 422.62 842.131 421.388C840.929 420.127 839.227 419.496 837.027 419.496C835.385 419.496 833.947 419.833 832.715 420.508C831.513 421.153 830.574 422.107 829.899 423.368C829.254 424.6 828.931 426.096 828.931 427.856V440H825.807V416.9H828.799V423.236L828.315 422.048C829.049 420.376 830.222 419.071 831.835 418.132C833.449 417.164 835.37 416.68 837.599 416.68Z" fill="#212121"/>
<path d="M47 192H111V256L47 192Z" fill="#915F44"/>
<path d="M1033 192H969V256L1033 192Z" fill="#915F44"/>
</svg>
