<svg width="1080" height="144" viewBox="0 0 1080 144" fill="none" xmlns="http://www.w3.org/2000/svg">
<rect width="1080" height="144" fill="#303030"/>
<path d="M47 80C47 115.346 75.6538 144 111 144H969C1004.35 144 1033 115.346 1033 80V0H47V80Z" fill="#F1F1F1"/>
<path d="M376.062 59V37.6949H367.66V32.7437H390.54V37.6949H382.138V59H376.062ZM401.472 59.3001C399.797 59.3001 398.297 58.975 396.971 58.3248C395.671 57.6747 394.658 56.6869 393.933 55.3616C393.208 54.0113 392.845 52.2984 392.845 50.2229V38.8202H398.697V49.3602C398.697 51.0356 399.047 52.2734 399.747 53.0736C400.472 53.8488 401.485 54.2364 402.785 54.2364C403.685 54.2364 404.485 54.0488 405.186 53.6737C405.886 53.2736 406.436 52.6735 406.836 51.8733C407.236 51.0481 407.436 50.0228 407.436 48.7976V38.8202H413.288V59H407.736V53.4487L408.749 55.0616C408.074 56.4619 407.074 57.5246 405.748 58.2498C404.448 58.95 403.023 59.3001 401.472 59.3001ZM430.974 38.5201C432.574 38.5201 434 38.8452 435.25 39.4953C436.525 40.1205 437.526 41.0957 438.251 42.421C438.976 43.7213 439.338 45.3967 439.338 47.4472V59H433.487V48.3474C433.487 46.7221 433.125 45.5218 432.399 44.7466C431.699 43.9714 430.699 43.5838 429.399 43.5838C428.473 43.5838 427.636 43.7839 426.886 44.184C426.16 44.559 425.585 45.1467 425.16 45.9469C424.76 46.7471 424.56 47.7723 424.56 49.0226V59H418.709V38.8202H424.297V44.409L423.247 42.7211C423.972 41.3708 425.01 40.333 426.36 39.6079C427.711 38.8827 429.249 38.5201 430.974 38.5201ZM454.279 66.5768C452.378 66.5768 450.54 66.3393 448.765 65.8641C447.015 65.414 445.552 64.7264 444.376 63.8012L446.702 59.6001C447.552 60.3003 448.627 60.8504 449.928 61.2505C451.253 61.6756 452.553 61.8882 453.829 61.8882C455.904 61.8882 457.405 61.4256 458.33 60.5004C459.28 59.5751 459.755 58.1998 459.755 56.3744V53.3361L460.13 48.2724L460.055 43.1712V38.8202H465.606V55.6242C465.606 59.3751 464.631 62.1383 462.681 63.9137C460.73 65.6891 457.93 66.5768 454.279 66.5768ZM453.379 58.0248C451.503 58.0248 449.803 57.6247 448.277 56.8245C446.777 55.9993 445.564 54.8615 444.639 53.4112C443.739 51.9358 443.289 50.2229 443.289 48.2724C443.289 46.297 443.739 44.584 444.639 43.1337C445.564 41.6583 446.777 40.5206 448.277 39.7204C449.803 38.9202 451.503 38.5201 453.379 38.5201C455.079 38.5201 456.579 38.8702 457.88 39.5703C459.18 40.2455 460.193 41.3083 460.918 42.7586C461.643 44.184 462.006 46.0219 462.006 48.2724C462.006 50.498 461.643 52.3359 460.918 53.7863C460.193 55.2116 459.18 56.2743 457.88 56.9745C456.579 57.6747 455.079 58.0248 453.379 58.0248ZM454.541 53.2236C455.567 53.2236 456.479 53.0236 457.279 52.6235C458.08 52.1984 458.705 51.6107 459.155 50.8606C459.605 50.1104 459.83 49.2477 459.83 48.2724C459.83 47.2722 459.605 46.4095 459.155 45.6843C458.705 44.9341 458.08 44.359 457.279 43.9589C456.479 43.5338 455.567 43.3212 454.541 43.3212C453.516 43.3212 452.603 43.5338 451.803 43.9589C451.003 44.359 450.365 44.9341 449.89 45.6843C449.44 46.4095 449.215 47.2722 449.215 48.2724C449.215 49.2477 449.44 50.1104 449.89 50.8606C450.365 51.6107 451.003 52.1984 451.803 52.6235C452.603 53.0236 453.516 53.2236 454.541 53.2236ZM480.542 66.5768C478.642 66.5768 476.804 66.3393 475.029 65.8641C473.278 65.414 471.815 64.7264 470.64 63.8012L472.966 59.6001C473.816 60.3003 474.891 60.8504 476.191 61.2505C477.517 61.6756 478.817 61.8882 480.092 61.8882C482.168 61.8882 483.668 61.4256 484.593 60.5004C485.544 59.5751 486.019 58.1998 486.019 56.3744V53.3361L486.394 48.2724L486.319 43.1712V38.8202H491.87V55.6242C491.87 59.3751 490.895 62.1383 488.944 63.9137C486.994 65.6891 484.193 66.5768 480.542 66.5768ZM479.642 58.0248C477.767 58.0248 476.066 57.6247 474.541 56.8245C473.041 55.9993 471.828 54.8615 470.903 53.4112C470.002 51.9358 469.552 50.2229 469.552 48.2724C469.552 46.297 470.002 44.584 470.903 43.1337C471.828 41.6583 473.041 40.5206 474.541 39.7204C476.066 38.9202 477.767 38.5201 479.642 38.5201C481.343 38.5201 482.843 38.8702 484.143 39.5703C485.444 40.2455 486.456 41.3083 487.182 42.7586C487.907 44.184 488.269 46.0219 488.269 48.2724C488.269 50.498 487.907 52.3359 487.182 53.7863C486.456 55.2116 485.444 56.2743 484.143 56.9745C482.843 57.6747 481.343 58.0248 479.642 58.0248ZM480.805 53.2236C481.83 53.2236 482.743 53.0236 483.543 52.6235C484.343 52.1984 484.968 51.6107 485.419 50.8606C485.869 50.1104 486.094 49.2477 486.094 48.2724C486.094 47.2722 485.869 46.4095 485.419 45.6843C484.968 44.9341 484.343 44.359 483.543 43.9589C482.743 43.5338 481.83 43.3212 480.805 43.3212C479.78 43.3212 478.867 43.5338 478.067 43.9589C477.267 44.359 476.629 44.9341 476.154 45.6843C475.704 46.4095 475.479 47.2722 475.479 48.2724C475.479 49.2477 475.704 50.1104 476.154 50.8606C476.629 51.6107 477.267 52.1984 478.067 52.6235C478.867 53.0236 479.78 53.2236 480.805 53.2236ZM505.831 59.3001C504.155 59.3001 502.655 58.975 501.33 58.3248C500.029 57.6747 499.017 56.6869 498.291 55.3616C497.566 54.0113 497.204 52.2984 497.204 50.2229V38.8202H503.055V49.3602C503.055 51.0356 503.405 52.2734 504.105 53.0736C504.831 53.8488 505.843 54.2364 507.144 54.2364C508.044 54.2364 508.844 54.0488 509.544 53.6737C510.244 53.2736 510.794 52.6735 511.195 51.8733C511.595 51.0481 511.795 50.0228 511.795 48.7976V38.8202H517.646V59H512.095V53.4487L513.108 55.0616C512.432 56.4619 511.432 57.5246 510.107 58.2498C508.807 58.95 507.381 59.3001 505.831 59.3001ZM530.651 59L542.354 32.7437H548.356L560.096 59H553.719L544.117 35.8194H546.518L536.878 59H530.651ZM536.503 53.3737L538.116 48.76H551.619L553.269 53.3737H536.503ZM574.335 59.3001C572.635 59.3001 571.147 58.925 569.872 58.1748C568.596 57.4246 567.596 56.2869 566.871 54.7615C566.171 53.2111 565.821 51.2606 565.821 48.9101C565.821 46.5345 566.158 44.584 566.834 43.0587C567.509 41.5333 568.484 40.3955 569.759 39.6454C571.035 38.8952 572.56 38.5201 574.335 38.5201C576.236 38.5201 577.936 38.9577 579.437 39.8329C580.962 40.6831 582.162 41.8834 583.037 43.4338C583.938 44.9841 584.388 46.8096 584.388 48.9101C584.388 51.0356 583.938 52.8735 583.037 54.4239C582.162 55.9743 580.962 57.1746 579.437 58.0248C577.936 58.875 576.236 59.3001 574.335 59.3001ZM562.407 66.2767V38.8202H567.996V42.9462L567.884 48.9476L568.259 54.9115V66.2767H562.407ZM573.323 54.4989C574.298 54.4989 575.161 54.2739 575.911 53.8238C576.686 53.3737 577.299 52.736 577.749 51.9108C578.224 51.0606 578.461 50.0604 578.461 48.9101C578.461 47.7348 578.224 46.7346 577.749 45.9094C577.299 45.0842 576.686 44.4465 575.911 43.9964C575.161 43.5463 574.298 43.3212 573.323 43.3212C572.347 43.3212 571.472 43.5463 570.697 43.9964C569.922 44.4465 569.309 45.0842 568.859 45.9094C568.409 46.7346 568.184 47.7348 568.184 48.9101C568.184 50.0604 568.409 51.0606 568.859 51.9108C569.309 52.736 569.922 53.3737 570.697 53.8238C571.472 54.2739 572.347 54.4989 573.323 54.4989ZM600.353 59V55.0616L599.978 54.1988V47.1472C599.978 45.8969 599.59 44.9216 598.815 44.2215C598.065 43.5213 596.902 43.1712 595.327 43.1712C594.252 43.1712 593.189 43.3463 592.139 43.6963C591.113 44.0214 590.238 44.4715 589.513 45.0467L587.413 40.9582C588.513 40.183 589.838 39.5828 591.388 39.1577C592.939 38.7326 594.514 38.5201 596.115 38.5201C599.19 38.5201 601.578 39.2453 603.279 40.6956C604.979 42.146 605.829 44.409 605.829 47.4847V59H600.353ZM594.202 59.3001C592.626 59.3001 591.276 59.0375 590.151 58.5124C589.025 57.9623 588.163 57.2246 587.563 56.2994C586.962 55.3741 586.662 54.3364 586.662 53.1861C586.662 51.9858 586.95 50.9356 587.525 50.0354C588.125 49.1351 589.063 48.435 590.338 47.9348C591.614 47.4097 593.276 47.1472 595.327 47.1472H600.691V50.5605H595.965C594.589 50.5605 593.639 50.7855 593.114 51.2356C592.614 51.6857 592.364 52.2484 592.364 52.9235C592.364 53.6737 592.651 54.2739 593.226 54.724C593.827 55.1491 594.639 55.3616 595.664 55.3616C596.64 55.3616 597.515 55.1366 598.29 54.6865C599.065 54.2114 599.628 53.5237 599.978 52.6235L600.878 55.3241C600.453 56.6244 599.678 57.6122 598.553 58.2873C597.427 58.9625 595.977 59.3001 594.202 59.3001ZM622.16 59V32.7437H628.237V54.0488H641.403V59H622.16ZM656.91 59V55.0616L656.535 54.1988V47.1472C656.535 45.8969 656.147 44.9216 655.372 44.2215C654.622 43.5213 653.459 43.1712 651.883 43.1712C650.808 43.1712 649.745 43.3463 648.695 43.6963C647.67 44.0214 646.795 44.4715 646.07 45.0467L643.969 40.9582C645.069 40.183 646.395 39.5828 647.945 39.1577C649.495 38.7326 651.071 38.5201 652.671 38.5201C655.747 38.5201 658.135 39.2453 659.835 40.6956C661.536 42.146 662.386 44.409 662.386 47.4847V59H656.91ZM650.758 59.3001C649.183 59.3001 647.832 59.0375 646.707 58.5124C645.582 57.9623 644.719 57.2246 644.119 56.2994C643.519 55.3741 643.219 54.3364 643.219 53.1861C643.219 51.9858 643.506 50.9356 644.082 50.0354C644.682 49.1351 645.619 48.435 646.895 47.9348C648.17 47.4097 649.833 47.1472 651.883 47.1472H657.247V50.5605H652.521C651.146 50.5605 650.196 50.7855 649.67 51.2356C649.17 51.6857 648.92 52.2484 648.92 52.9235C648.92 53.6737 649.208 54.2739 649.783 54.724C650.383 55.1491 651.196 55.3616 652.221 55.3616C653.196 55.3616 654.071 55.1366 654.847 54.6865C655.622 54.2114 656.184 53.5237 656.535 52.6235L657.435 55.3241C657.01 56.6244 656.234 57.6122 655.109 58.2873C653.984 58.9625 652.534 59.3001 650.758 59.3001ZM677.318 66.5768C675.418 66.5768 673.58 66.3393 671.804 65.8641C670.054 65.414 668.591 64.7264 667.416 63.8012L669.741 59.6001C670.591 60.3003 671.667 60.8504 672.967 61.2505C674.292 61.6756 675.593 61.8882 676.868 61.8882C678.943 61.8882 680.444 61.4256 681.369 60.5004C682.319 59.5751 682.794 58.1998 682.794 56.3744V53.3361L683.169 48.2724L683.094 43.1712V38.8202H688.646V55.6242C688.646 59.3751 687.671 62.1383 685.72 63.9137C683.77 65.6891 680.969 66.5768 677.318 66.5768ZM676.418 58.0248C674.542 58.0248 672.842 57.6247 671.317 56.8245C669.816 55.9993 668.603 54.8615 667.678 53.4112C666.778 51.9358 666.328 50.2229 666.328 48.2724C666.328 46.297 666.778 44.584 667.678 43.1337C668.603 41.6583 669.816 40.5206 671.317 39.7204C672.842 38.9202 674.542 38.5201 676.418 38.5201C678.118 38.5201 679.619 38.8702 680.919 39.5703C682.219 40.2455 683.232 41.3083 683.957 42.7586C684.682 44.184 685.045 46.0219 685.045 48.2724C685.045 50.498 684.682 52.3359 683.957 53.7863C683.232 55.2116 682.219 56.2743 680.919 56.9745C679.619 57.6747 678.118 58.0248 676.418 58.0248ZM677.581 53.2236C678.606 53.2236 679.519 53.0236 680.319 52.6235C681.119 52.1984 681.744 51.6107 682.194 50.8606C682.644 50.1104 682.869 49.2477 682.869 48.2724C682.869 47.2722 682.644 46.4095 682.194 45.6843C681.744 44.9341 681.119 44.359 680.319 43.9589C679.519 43.5338 678.606 43.3212 677.581 43.3212C676.555 43.3212 675.643 43.5338 674.842 43.9589C674.042 44.359 673.405 44.9341 672.929 45.6843C672.479 46.4095 672.254 47.2722 672.254 48.2724C672.254 49.2477 672.479 50.1104 672.929 50.8606C673.405 51.6107 674.042 52.1984 674.842 52.6235C675.643 53.0236 676.555 53.2236 677.581 53.2236ZM694.092 59V38.8202H699.943V59H694.092ZM697.018 36.007C695.942 36.007 695.067 35.6944 694.392 35.0693C693.717 34.4441 693.379 33.6689 693.379 32.7437C693.379 31.8185 693.717 31.0433 694.392 30.4182C695.067 29.793 695.942 29.4804 697.018 29.4804C698.093 29.4804 698.968 29.7805 699.643 30.3806C700.318 30.9558 700.656 31.706 700.656 32.6312C700.656 33.6064 700.318 34.4191 699.643 35.0693C698.993 35.6944 698.118 36.007 697.018 36.007ZM704.361 64.7764L706.837 55.7742L707.662 59.15C706.587 59.15 705.699 58.8375 704.999 58.2123C704.324 57.5872 703.986 56.7245 703.986 55.6242C703.986 54.5239 704.336 53.6487 705.036 52.9986C705.736 52.3484 706.599 52.0233 707.624 52.0233C708.675 52.0233 709.537 52.3609 710.213 53.0361C710.888 53.6862 711.225 54.5489 711.225 55.6242C711.225 55.9493 711.2 56.2743 711.15 56.5994C711.1 56.8995 711 57.2746 710.85 57.7247C710.725 58.1498 710.513 58.6999 710.213 59.3751L708.075 64.7764H704.361ZM245.484 102V91.2724L246.872 94.9483L235.319 75.7437H241.77L250.622 90.4847H246.909L255.799 75.7437H261.763L250.21 94.9483L251.56 91.2724V102H245.484ZM271.088 102.3C269.413 102.3 267.913 101.975 266.587 101.325C265.287 100.675 264.274 99.6869 263.549 98.3616C262.824 97.0113 262.461 95.2984 262.461 93.2229V81.8202H268.313V92.3602C268.313 94.0356 268.663 95.2734 269.363 96.0736C270.088 96.8488 271.101 97.2364 272.401 97.2364C273.301 97.2364 274.102 97.0488 274.802 96.6737C275.502 96.2736 276.052 95.6735 276.452 94.8733C276.852 94.0481 277.052 93.0228 277.052 91.7976V81.8202H282.904V102H277.352V96.4487L278.365 98.0616C277.69 99.4619 276.69 100.525 275.364 101.25C274.064 101.95 272.639 102.3 271.088 102.3ZM293.163 97.874L293.313 90.7473L302.728 81.8202H309.705L300.665 91.0099L297.627 93.4855L293.163 97.874ZM288.325 102V74.1683H294.176V102H288.325ZM303.366 102L296.539 93.523L300.215 88.9844L310.455 102H303.366ZM332.749 102.45C330.648 102.45 328.635 102.175 326.71 101.625C324.784 101.05 323.234 100.312 322.059 99.4119L324.122 94.8358C325.247 95.636 326.572 96.2986 328.098 96.8238C329.648 97.3239 331.211 97.5739 332.786 97.5739C333.986 97.5739 334.949 97.4614 335.674 97.2364C336.425 96.9863 336.975 96.6487 337.325 96.2236C337.675 95.7985 337.85 95.3109 337.85 94.7608C337.85 94.0606 337.575 93.5105 337.025 93.1104C336.475 92.6853 335.749 92.3477 334.849 92.0976C333.949 91.8226 332.949 91.5725 331.848 91.3474C330.773 91.0974 329.685 90.7973 328.585 90.4472C327.51 90.0971 326.522 89.647 325.622 89.0969C324.722 88.5468 323.984 87.8216 323.409 86.9214C322.859 86.0212 322.584 84.8709 322.584 83.4706C322.584 81.9702 322.984 80.6074 323.784 79.3821C324.609 78.1318 325.835 77.144 327.46 76.4189C329.11 75.6687 331.173 75.2936 333.649 75.2936C335.299 75.2936 336.925 75.4937 338.525 75.8937C340.125 76.2688 341.538 76.844 342.764 77.6192L340.888 82.2328C339.663 81.5326 338.438 81.02 337.212 80.6949C335.987 80.3448 334.787 80.1698 333.611 80.1698C332.436 80.1698 331.473 80.3073 330.723 80.5824C329.973 80.8574 329.435 81.22 329.11 81.6701C328.785 82.0952 328.623 82.5954 328.623 83.1705C328.623 83.8457 328.898 84.3958 329.448 84.8209C329.998 85.221 330.723 85.5461 331.623 85.7961C332.524 86.0462 333.511 86.2962 334.587 86.5463C335.687 86.7964 336.775 87.0839 337.85 87.409C338.95 87.7341 339.95 88.1717 340.851 88.7218C341.751 89.272 342.476 89.9971 343.026 90.8973C343.601 91.7976 343.889 92.9353 343.889 94.3107C343.889 95.786 343.476 97.1363 342.651 98.3616C341.826 99.5869 340.588 100.575 338.938 101.325C337.312 102.075 335.249 102.45 332.749 102.45ZM357.643 102.3C355.343 102.3 353.317 101.85 351.567 100.95C349.841 100.05 348.503 98.8242 347.553 97.2739C346.603 95.6985 346.128 93.9106 346.128 91.9101C346.128 89.8846 346.591 88.0967 347.516 86.5463C348.466 84.9709 349.754 83.7456 351.379 82.8704C353.005 81.9702 354.843 81.5201 356.893 81.5201C358.868 81.5201 360.644 81.9452 362.219 82.7954C363.82 83.6206 365.082 84.8209 366.008 86.3963C366.933 87.9466 367.396 89.8096 367.396 91.9851C367.396 92.2102 367.383 92.4727 367.358 92.7728C367.333 93.0479 367.308 93.3104 367.283 93.5605H350.892V90.1472H364.207L361.957 91.1599C361.957 90.1097 361.744 89.1969 361.319 88.4217C360.894 87.6466 360.306 87.0464 359.556 86.6213C358.806 86.1712 357.931 85.9462 356.931 85.9462C355.93 85.9462 355.043 86.1712 354.267 86.6213C353.517 87.0464 352.93 87.6591 352.504 88.4593C352.079 89.2344 351.867 90.1597 351.867 91.2349V92.1351C351.867 93.2354 352.104 94.2106 352.579 95.0608C353.08 95.886 353.767 96.5237 354.642 96.9738C355.543 97.3989 356.593 97.6114 357.793 97.6114C358.868 97.6114 359.806 97.4489 360.606 97.1238C361.432 96.7988 362.182 96.3111 362.857 95.661L365.97 99.0368C365.045 100.087 363.882 100.9 362.482 101.475C361.082 102.025 359.469 102.3 357.643 102.3ZM380.781 109.577C378.881 109.577 377.043 109.339 375.267 108.864C373.517 108.414 372.054 107.726 370.879 106.801L373.204 102.6C374.054 103.3 375.13 103.85 376.43 104.251C377.755 104.676 379.056 104.888 380.331 104.888C382.406 104.888 383.907 104.426 384.832 103.5C385.782 102.575 386.257 101.2 386.257 99.3744V96.3361L386.632 91.2724L386.557 86.1712V81.8202H392.109V98.6242C392.109 102.375 391.133 105.138 389.183 106.914C387.233 108.689 384.432 109.577 380.781 109.577ZM379.881 101.025C378.005 101.025 376.305 100.625 374.78 99.8245C373.279 98.9993 372.066 97.8615 371.141 96.4112C370.241 94.9358 369.791 93.2229 369.791 91.2724C369.791 89.297 370.241 87.584 371.141 86.1337C372.066 84.6583 373.279 83.5206 374.78 82.7204C376.305 81.9202 378.005 81.5201 379.881 81.5201C381.581 81.5201 383.082 81.8702 384.382 82.5703C385.682 83.2455 386.695 84.3083 387.42 85.7586C388.145 87.184 388.508 89.0219 388.508 91.2724C388.508 93.498 388.145 95.3359 387.42 96.7863C386.695 98.2116 385.682 99.2743 384.382 99.9745C383.082 100.675 381.581 101.025 379.881 101.025ZM381.044 96.2236C382.069 96.2236 382.981 96.0236 383.782 95.6235C384.582 95.1984 385.207 94.6107 385.657 93.8606C386.107 93.1104 386.332 92.2477 386.332 91.2724C386.332 90.2722 386.107 89.4095 385.657 88.6843C385.207 87.9341 384.582 87.359 383.782 86.9589C382.981 86.5338 382.069 86.3212 381.044 86.3212C380.018 86.3212 379.106 86.5338 378.305 86.9589C377.505 87.359 376.868 87.9341 376.392 88.6843C375.942 89.4095 375.717 90.2722 375.717 91.2724C375.717 92.2477 375.942 93.1104 376.392 93.8606C376.868 94.6107 377.505 95.1984 378.305 95.6235C379.106 96.0236 380.018 96.2236 381.044 96.2236ZM407.57 102.3C405.269 102.3 403.244 101.85 401.493 100.95C399.768 100.05 398.43 98.8242 397.48 97.2739C396.53 95.6985 396.054 93.9106 396.054 91.9101C396.054 89.8846 396.517 88.0967 397.442 86.5463C398.393 84.9709 399.68 83.7456 401.306 82.8704C402.931 81.9702 404.769 81.5201 406.82 81.5201C408.795 81.5201 410.57 81.9452 412.146 82.7954C413.746 83.6206 415.009 84.8209 415.934 86.3963C416.859 87.9466 417.322 89.8096 417.322 91.9851C417.322 92.2102 417.31 92.4727 417.285 92.7728C417.26 93.0479 417.235 93.3104 417.21 93.5605H400.818V90.1472H414.134L411.883 91.1599C411.883 90.1097 411.671 89.1969 411.246 88.4217C410.82 87.6466 410.233 87.0464 409.483 86.6213C408.732 86.1712 407.857 85.9462 406.857 85.9462C405.857 85.9462 404.969 86.1712 404.194 86.6213C403.444 87.0464 402.856 87.6591 402.431 88.4593C402.006 89.2344 401.793 90.1597 401.793 91.2349V92.1351C401.793 93.2354 402.031 94.2106 402.506 95.0608C403.006 95.886 403.694 96.5237 404.569 96.9738C405.469 97.3989 406.519 97.6114 407.72 97.6114C408.795 97.6114 409.733 97.4489 410.533 97.1238C411.358 96.7988 412.108 96.3111 412.783 95.661L415.897 99.0368C414.971 100.087 413.809 100.9 412.408 101.475C411.008 102.025 409.395 102.3 407.57 102.3ZM421.218 102V81.8202H426.807V87.5215L426.019 85.8711C426.619 84.4458 427.582 83.3705 428.907 82.6454C430.232 81.8952 431.845 81.5201 433.746 81.5201V86.9214C433.496 86.8964 433.271 86.8839 433.071 86.8839C432.87 86.8589 432.658 86.8464 432.433 86.8464C430.832 86.8464 429.532 87.309 428.532 88.2342C427.557 89.1344 427.069 90.5473 427.069 92.4727V102H421.218ZM448.284 102V98.0616L447.909 97.1988V90.1472C447.909 88.8969 447.522 87.9216 446.746 87.2215C445.996 86.5213 444.833 86.1712 443.258 86.1712C442.183 86.1712 441.12 86.3463 440.07 86.6963C439.045 87.0214 438.169 87.4715 437.444 88.0467L435.344 83.9582C436.444 83.183 437.769 82.5828 439.32 82.1577C440.87 81.7326 442.445 81.5201 444.046 81.5201C447.121 81.5201 449.51 82.2453 451.21 83.6956C452.91 85.146 453.761 87.409 453.761 90.4847V102H448.284ZM442.133 102.3C440.557 102.3 439.207 102.038 438.082 101.512C436.957 100.962 436.094 100.225 435.494 99.2994C434.894 98.3741 434.593 97.3364 434.593 96.1861C434.593 94.9858 434.881 93.9356 435.456 93.0354C436.056 92.1351 436.994 91.435 438.269 90.9348C439.545 90.4097 441.208 90.1472 443.258 90.1472H448.622V93.5605H443.896C442.52 93.5605 441.57 93.7855 441.045 94.2356C440.545 94.6857 440.295 95.2484 440.295 95.9235C440.295 96.6737 440.582 97.2739 441.158 97.724C441.758 98.1491 442.57 98.3616 443.596 98.3616C444.571 98.3616 445.446 98.1366 446.221 97.6865C446.996 97.2114 447.559 96.5237 447.909 95.6235L448.809 98.3241C448.384 99.6244 447.609 100.612 446.484 101.287C445.359 101.962 443.908 102.3 442.133 102.3ZM470.092 102V75.7437H481.457C483.807 75.7437 485.833 76.1313 487.533 76.9065C489.234 77.6567 490.547 78.7444 491.472 80.1698C492.397 81.5951 492.86 83.2955 492.86 85.271C492.86 87.2215 492.397 88.9094 491.472 90.3347C490.547 91.76 489.234 92.8603 487.533 93.6355C485.833 94.3857 483.807 94.7608 481.457 94.7608H473.467L476.168 92.0226V102H470.092ZM476.168 92.6978L473.467 89.8096H481.119C482.995 89.8096 484.395 89.4095 485.32 88.6093C486.245 87.8091 486.708 86.6963 486.708 85.271C486.708 83.8206 486.245 82.6954 485.32 81.8952C484.395 81.095 482.995 80.6949 481.119 80.6949H473.467L476.168 77.8067V92.6978ZM506.763 102.3C504.463 102.3 502.437 101.85 500.687 100.95C498.961 100.05 497.624 98.8242 496.673 97.2739C495.723 95.6985 495.248 93.9106 495.248 91.9101C495.248 89.8846 495.711 88.0967 496.636 86.5463C497.586 84.9709 498.874 83.7456 500.499 82.8704C502.125 81.9702 503.963 81.5201 506.013 81.5201C507.989 81.5201 509.764 81.9452 511.339 82.7954C512.94 83.6206 514.203 84.8209 515.128 86.3963C516.053 87.9466 516.516 89.8096 516.516 91.9851C516.516 92.2102 516.503 92.4727 516.478 92.7728C516.453 93.0479 516.428 93.3104 516.403 93.5605H500.012V90.1472H513.327L511.077 91.1599C511.077 90.1097 510.864 89.1969 510.439 88.4217C510.014 87.6466 509.427 87.0464 508.676 86.6213C507.926 86.1712 507.051 85.9462 506.051 85.9462C505.05 85.9462 504.163 86.1712 503.388 86.6213C502.637 87.0464 502.05 87.6591 501.625 88.4593C501.2 89.2344 500.987 90.1597 500.987 91.2349V92.1351C500.987 93.2354 501.225 94.2106 501.7 95.0608C502.2 95.886 502.887 96.5237 503.763 96.9738C504.663 97.3989 505.713 97.6114 506.913 97.6114C507.989 97.6114 508.926 97.4489 509.727 97.1238C510.552 96.7988 511.302 96.3111 511.977 95.661L515.09 99.0368C514.165 100.087 513.002 100.9 511.602 101.475C510.202 102.025 508.589 102.3 506.763 102.3ZM527.2 102.3C525.475 102.3 523.812 102.1 522.212 101.7C520.636 101.275 519.386 100.75 518.461 100.125L520.411 95.9235C521.337 96.4987 522.424 96.9738 523.675 97.3489C524.95 97.699 526.2 97.874 527.426 97.874C528.776 97.874 529.726 97.7115 530.276 97.3864C530.851 97.0613 531.139 96.6112 531.139 96.0361C531.139 95.561 530.914 95.2109 530.464 94.9858C530.039 94.7358 529.464 94.5482 528.738 94.4232C528.013 94.2982 527.213 94.1731 526.338 94.0481C525.488 93.9231 524.625 93.7605 523.75 93.5605C522.874 93.3354 522.074 93.0103 521.349 92.5852C520.624 92.1601 520.036 91.585 519.586 90.8598C519.161 90.1347 518.949 89.1969 518.949 88.0467C518.949 86.7714 519.311 85.6461 520.036 84.6708C520.786 83.6956 521.862 82.9329 523.262 82.3828C524.662 81.8077 526.338 81.5201 528.288 81.5201C529.664 81.5201 531.064 81.6701 532.489 81.9702C533.915 82.2703 535.102 82.7079 536.053 83.283L534.102 87.4465C533.127 86.8714 532.139 86.4838 531.139 86.2837C530.164 86.0587 529.213 85.9462 528.288 85.9462C526.988 85.9462 526.038 86.1212 525.438 86.4713C524.837 86.8214 524.537 87.2715 524.537 87.8216C524.537 88.3217 524.75 88.6968 525.175 88.9469C525.625 89.1969 526.213 89.397 526.938 89.547C527.663 89.6971 528.451 89.8346 529.301 89.9596C530.176 90.0596 531.051 90.2222 531.927 90.4472C532.802 90.6723 533.59 90.9974 534.29 91.4225C535.015 91.8226 535.603 92.3852 536.053 93.1104C536.503 93.8105 536.728 94.7358 536.728 95.886C536.728 97.1363 536.353 98.2491 535.603 99.2243C534.852 100.175 533.765 100.925 532.339 101.475C530.939 102.025 529.226 102.3 527.2 102.3ZM552.716 102V98.0616L552.341 97.1988V90.1472C552.341 88.8969 551.953 87.9216 551.178 87.2215C550.428 86.5213 549.265 86.1712 547.69 86.1712C546.615 86.1712 545.552 86.3463 544.502 86.6963C543.476 87.0214 542.601 87.4715 541.876 88.0467L539.775 83.9582C540.876 83.183 542.201 82.5828 543.751 82.1577C545.302 81.7326 546.877 81.5201 548.477 81.5201C551.553 81.5201 553.941 82.2453 555.642 83.6956C557.342 85.146 558.192 87.409 558.192 90.4847V102H552.716ZM546.564 102.3C544.989 102.3 543.639 102.038 542.514 101.512C541.388 100.962 540.526 100.225 539.925 99.2994C539.325 98.3741 539.025 97.3364 539.025 96.1861C539.025 94.9858 539.313 93.9356 539.888 93.0354C540.488 92.1351 541.426 91.435 542.701 90.9348C543.976 90.4097 545.639 90.1472 547.69 90.1472H553.054V93.5605H548.327C546.952 93.5605 546.002 93.7855 545.477 94.2356C544.977 94.6857 544.727 95.2484 544.727 95.9235C544.727 96.6737 545.014 97.2739 545.589 97.724C546.189 98.1491 547.002 98.3616 548.027 98.3616C549.003 98.3616 549.878 98.1366 550.653 97.6865C551.428 97.2114 551.991 96.5237 552.341 95.6235L553.241 98.3241C552.816 99.6244 552.041 100.612 550.916 101.287C549.79 101.962 548.34 102.3 546.564 102.3ZM575.754 81.5201C577.354 81.5201 578.779 81.8452 580.03 82.4953C581.305 83.1205 582.305 84.0957 583.03 85.421C583.755 86.7213 584.118 88.3967 584.118 90.4472V102H578.267V91.3474C578.267 89.7221 577.904 88.5218 577.179 87.7466C576.479 86.9714 575.478 86.5838 574.178 86.5838C573.253 86.5838 572.415 86.7839 571.665 87.184C570.94 87.559 570.365 88.1467 569.94 88.9469C569.54 89.7471 569.339 90.7723 569.339 92.0226V102H563.488V81.8202H569.077V87.409L568.027 85.7211C568.752 84.3708 569.79 83.333 571.14 82.6079C572.49 81.8827 574.028 81.5201 575.754 81.5201ZM600.457 102V75.7437H606.534V97.0488H619.699V102H600.457ZM635.206 102V98.0616L634.831 97.1988V90.1472C634.831 88.8969 634.444 87.9216 633.669 87.2215C632.918 86.5213 631.756 86.1712 630.18 86.1712C629.105 86.1712 628.042 86.3463 626.992 86.6963C625.967 87.0214 625.092 87.4715 624.366 88.0467L622.266 83.9582C623.366 83.183 624.691 82.5828 626.242 82.1577C627.792 81.7326 629.368 81.5201 630.968 81.5201C634.044 81.5201 636.432 82.2453 638.132 83.6956C639.833 85.146 640.683 87.409 640.683 90.4847V102H635.206ZM629.055 102.3C627.48 102.3 626.129 102.038 625.004 101.512C623.879 100.962 623.016 100.225 622.416 99.2994C621.816 98.3741 621.516 97.3364 621.516 96.1861C621.516 94.9858 621.803 93.9356 622.378 93.0354C622.979 92.1351 623.916 91.435 625.192 90.9348C626.467 90.4097 628.13 90.1472 630.18 90.1472H635.544V93.5605H630.818C629.443 93.5605 628.492 93.7855 627.967 94.2356C627.467 94.6857 627.217 95.2484 627.217 95.9235C627.217 96.6737 627.505 97.2739 628.08 97.724C628.68 98.1491 629.493 98.3616 630.518 98.3616C631.493 98.3616 632.368 98.1366 633.143 97.6865C633.919 97.2114 634.481 96.5237 634.831 95.6235L635.732 98.3241C635.306 99.6244 634.531 100.612 633.406 101.287C632.281 101.962 630.83 102.3 629.055 102.3ZM648.163 109.577C647.113 109.577 646.075 109.414 645.05 109.089C644.024 108.764 643.187 108.314 642.537 107.739L644.675 103.575C645.125 103.975 645.637 104.288 646.212 104.513C646.813 104.738 647.4 104.851 647.975 104.851C648.801 104.851 649.451 104.651 649.926 104.251C650.426 103.875 650.876 103.238 651.276 102.338L652.326 99.862L652.776 99.2243L660.016 81.8202H665.642L656.527 103.238C655.877 104.863 655.127 106.138 654.277 107.064C653.452 107.989 652.526 108.639 651.501 109.014C650.501 109.389 649.388 109.577 648.163 109.577ZM651.614 102.788L642.612 81.8202H648.65L655.627 98.6992L651.614 102.788ZM679.748 102V98.0616L679.373 97.1988V90.1472C679.373 88.8969 678.986 87.9216 678.21 87.2215C677.46 86.5213 676.298 86.1712 674.722 86.1712C673.647 86.1712 672.584 86.3463 671.534 86.6963C670.509 87.0214 669.633 87.4715 668.908 88.0467L666.808 83.9582C667.908 83.183 669.233 82.5828 670.784 82.1577C672.334 81.7326 673.909 81.5201 675.51 81.5201C678.586 81.5201 680.974 82.2453 682.674 83.6956C684.374 85.146 685.225 87.409 685.225 90.4847V102H679.748ZM673.597 102.3C672.021 102.3 670.671 102.038 669.546 101.512C668.421 100.962 667.558 100.225 666.958 99.2994C666.358 98.3741 666.058 97.3364 666.058 96.1861C666.058 94.9858 666.345 93.9356 666.92 93.0354C667.52 92.1351 668.458 91.435 669.733 90.9348C671.009 90.4097 672.672 90.1472 674.722 90.1472H680.086V93.5605H675.36C673.984 93.5605 673.034 93.7855 672.509 94.2356C672.009 94.6857 671.759 95.2484 671.759 95.9235C671.759 96.6737 672.047 97.2739 672.622 97.724C673.222 98.1491 674.034 98.3616 675.06 98.3616C676.035 98.3616 676.91 98.1366 677.685 97.6865C678.461 97.2114 679.023 96.5237 679.373 95.6235L680.273 98.3241C679.848 99.6244 679.073 100.612 677.948 101.287C676.823 101.962 675.372 102.3 673.597 102.3ZM702.786 81.5201C704.386 81.5201 705.812 81.8452 707.062 82.4953C708.337 83.1205 709.337 84.0957 710.063 85.421C710.788 86.7213 711.15 88.3967 711.15 90.4472V102H705.299V91.3474C705.299 89.7221 704.936 88.5218 704.211 87.7466C703.511 86.9714 702.511 86.5838 701.211 86.5838C700.285 86.5838 699.448 86.7839 698.697 87.184C697.972 87.559 697.397 88.1467 696.972 88.9469C696.572 89.7471 696.372 90.7723 696.372 92.0226V102H690.52V81.8202H696.109V87.409L695.059 85.7211C695.784 84.3708 696.822 83.333 698.172 82.6079C699.523 81.8827 701.06 81.5201 702.786 81.5201ZM728.832 102V98.0616L728.457 97.1988V90.1472C728.457 88.8969 728.07 87.9216 727.295 87.2215C726.544 86.5213 725.382 86.1712 723.806 86.1712C722.731 86.1712 721.668 86.3463 720.618 86.6963C719.593 87.0214 718.717 87.4715 717.992 88.0467L715.892 83.9582C716.992 83.183 718.317 82.5828 719.868 82.1577C721.418 81.7326 722.993 81.5201 724.594 81.5201C727.67 81.5201 730.058 82.2453 731.758 83.6956C733.459 85.146 734.309 87.409 734.309 90.4847V102H728.832ZM722.681 102.3C721.106 102.3 719.755 102.038 718.63 101.512C717.505 100.962 716.642 100.225 716.042 99.2994C715.442 98.3741 715.142 97.3364 715.142 96.1861C715.142 94.9858 715.429 93.9356 716.004 93.0354C716.604 92.1351 717.542 91.435 718.817 90.9348C720.093 90.4097 721.756 90.1472 723.806 90.1472H729.17V93.5605H724.444C723.069 93.5605 722.118 93.7855 721.593 94.2356C721.093 94.6857 720.843 95.2484 720.843 95.9235C720.843 96.6737 721.131 97.2739 721.706 97.724C722.306 98.1491 723.119 98.3616 724.144 98.3616C725.119 98.3616 725.994 98.1366 726.769 97.6865C727.545 97.2114 728.107 96.5237 728.457 95.6235L729.358 98.3241C728.932 99.6244 728.157 100.612 727.032 101.287C725.907 101.962 724.456 102.3 722.681 102.3ZM751.87 81.5201C753.47 81.5201 754.896 81.8452 756.146 82.4953C757.421 83.1205 758.421 84.0957 759.147 85.421C759.872 86.7213 760.234 88.3967 760.234 90.4472V102H754.383V91.3474C754.383 89.7221 754.02 88.5218 753.295 87.7466C752.595 86.9714 751.595 86.5838 750.295 86.5838C749.369 86.5838 748.532 86.7839 747.781 87.184C747.056 87.559 746.481 88.1467 746.056 88.9469C745.656 89.7471 745.456 90.7723 745.456 92.0226V102H739.604V81.8202H745.193V87.409L744.143 85.7211C744.868 84.3708 745.906 83.333 747.256 82.6079C748.607 81.8827 750.144 81.5201 751.87 81.5201ZM777.804 81.5201C779.404 81.5201 780.83 81.8452 782.08 82.4953C783.355 83.1205 784.355 84.0957 785.081 85.421C785.806 86.7213 786.168 88.3967 786.168 90.4472V102H780.317V91.3474C780.317 89.7221 779.954 88.5218 779.229 87.7466C778.529 86.9714 777.529 86.5838 776.228 86.5838C775.303 86.5838 774.466 86.7839 773.715 87.184C772.99 87.559 772.415 88.1467 771.99 88.9469C771.59 89.7471 771.39 90.7723 771.39 92.0226V102H765.538V81.8202H771.127V87.409L770.077 85.7211C770.802 84.3708 771.84 83.333 773.19 82.6079C774.541 81.8827 776.078 81.5201 777.804 81.5201ZM793.657 109.577C792.606 109.577 791.569 109.414 790.543 109.089C789.518 108.764 788.68 108.314 788.03 107.739L790.168 103.575C790.618 103.975 791.131 104.288 791.706 104.513C792.306 104.738 792.894 104.851 793.469 104.851C794.294 104.851 794.944 104.651 795.42 104.251C795.92 103.875 796.37 103.238 796.77 102.338L797.82 99.862L798.27 99.2243L805.509 81.8202H811.136L802.021 103.238C801.371 104.863 800.621 106.138 799.771 107.064C798.945 107.989 798.02 108.639 796.995 109.014C795.995 109.389 794.882 109.577 793.657 109.577ZM797.107 102.788L788.105 81.8202H794.144L801.121 98.6992L797.107 102.788ZM825.242 102V98.0616L824.867 97.1988V90.1472C824.867 88.8969 824.48 87.9216 823.704 87.2215C822.954 86.5213 821.791 86.1712 820.216 86.1712C819.141 86.1712 818.078 86.3463 817.028 86.6963C816.002 87.0214 815.127 87.4715 814.402 88.0467L812.302 83.9582C813.402 83.183 814.727 82.5828 816.278 82.1577C817.828 81.7326 819.403 81.5201 821.004 81.5201C824.079 81.5201 826.467 82.2453 828.168 83.6956C829.868 85.146 830.718 87.409 830.718 90.4847V102H825.242ZM819.091 102.3C817.515 102.3 816.165 102.038 815.04 101.512C813.914 100.962 813.052 100.225 812.452 99.2994C811.851 98.3741 811.551 97.3364 811.551 96.1861C811.551 94.9858 811.839 93.9356 812.414 93.0354C813.014 92.1351 813.952 91.435 815.227 90.9348C816.503 90.4097 818.165 90.1472 820.216 90.1472H825.58V93.5605H820.854C819.478 93.5605 818.528 93.7855 818.003 94.2356C817.503 94.6857 817.253 95.2484 817.253 95.9235C817.253 96.6737 817.54 97.2739 818.115 97.724C818.716 98.1491 819.528 98.3616 820.554 98.3616C821.529 98.3616 822.404 98.1366 823.179 97.6865C823.954 97.2114 824.517 96.5237 824.867 95.6235L825.767 98.3241C825.342 99.6244 824.567 100.612 823.442 101.287C822.316 101.962 820.866 102.3 819.091 102.3ZM836.427 92.8853L835.264 75.7437H842.241L841.078 92.8853H836.427ZM838.753 102.3C837.702 102.3 836.84 101.962 836.164 101.287C835.489 100.612 835.152 99.812 835.152 98.8868C835.152 97.9365 835.489 97.1488 836.164 96.5237C836.84 95.8735 837.702 95.5485 838.753 95.5485C839.828 95.5485 840.69 95.8735 841.341 96.5237C842.016 97.1488 842.353 97.9365 842.353 98.8868C842.353 99.812 842.016 100.612 841.341 101.287C840.69 101.962 839.828 102.3 838.753 102.3Z" fill="#303030"/>
</svg>
