<svg width="1080" height="202" viewBox="0 0 1080 202" fill="none" xmlns="http://www.w3.org/2000/svg">
<rect width="1080" height="202" fill="#303030"/>
<path d="M156.607 71V44.7437H159.383V68.5994H174.087V71H156.607ZM190.473 71V66.649L190.36 65.9363V58.6595C190.36 56.9841 189.885 55.6963 188.935 54.7961C188.01 53.8959 186.622 53.4458 184.772 53.4458C183.496 53.4458 182.284 53.6583 181.133 54.0834C179.983 54.5085 179.008 55.0712 178.208 55.7714L177.007 53.7834C178.008 52.9332 179.208 52.283 180.608 51.8329C182.008 51.3578 183.484 51.1202 185.034 51.1202C187.585 51.1202 189.548 51.7579 190.923 53.0332C192.323 54.2835 193.024 56.1965 193.024 58.7721V71H190.473ZM183.684 71.1875C182.209 71.1875 180.921 70.95 179.82 70.4749C178.745 69.9748 177.92 69.2996 177.345 68.4494C176.77 67.5742 176.482 66.5739 176.482 65.4487C176.482 64.4234 176.72 63.4982 177.195 62.673C177.695 61.8228 178.495 61.1476 179.595 60.6475C180.721 60.1224 182.221 59.8598 184.096 59.8598H190.886V61.8478H184.171C182.271 61.8478 180.946 62.1854 180.196 62.8606C179.47 63.5357 179.108 64.3734 179.108 65.3737C179.108 66.4989 179.545 67.3991 180.421 68.0743C181.296 68.7495 182.521 69.087 184.096 69.087C185.597 69.087 186.885 68.7495 187.96 68.0743C189.06 67.3741 189.86 66.3739 190.36 65.0736L190.961 66.9115C190.46 68.2118 189.585 69.2496 188.335 70.0248C187.11 70.8 185.559 71.1875 183.684 71.1875ZM210.309 51.1202C211.91 51.1202 213.31 51.4328 214.51 52.058C215.736 52.6581 216.686 53.5833 217.361 54.8336C218.061 56.0839 218.411 57.6593 218.411 59.5598V71H215.748V59.8223C215.748 57.7468 215.223 56.184 214.173 55.1337C213.148 54.0584 211.697 53.5208 209.822 53.5208C208.421 53.5208 207.196 53.8084 206.146 54.3835C205.121 54.9337 204.32 55.7463 203.745 56.8216C203.195 57.8719 202.92 59.1472 202.92 60.6475V71H200.257V51.3078H202.808V56.7091L202.395 55.6963C203.02 54.271 204.02 53.1582 205.396 52.358C206.771 51.5328 208.409 51.1202 210.309 51.1202ZM234.007 78.4643C232.206 78.4643 230.481 78.2017 228.831 77.6766C227.18 77.1515 225.842 76.4013 224.817 75.4261L226.167 73.4006C227.093 74.2258 228.23 74.8759 229.581 75.351C230.956 75.8512 232.406 76.1012 233.932 76.1012C236.432 76.1012 238.27 75.5136 239.446 74.3383C240.621 73.188 241.209 71.3876 241.209 68.937V64.0233L241.584 60.6475L241.321 57.2717V51.3078H243.872V68.5994C243.872 72.0002 243.034 74.4883 241.359 76.0637C239.708 77.6641 237.258 78.4643 234.007 78.4643ZM233.519 70.2498C231.644 70.2498 229.956 69.8497 228.456 69.0495C226.955 68.2243 225.767 67.0866 224.892 65.6362C224.042 64.1859 223.617 62.523 223.617 60.6475C223.617 58.7721 224.042 57.1217 224.892 55.6963C225.767 54.246 226.955 53.1207 228.456 52.3205C229.956 51.5203 231.644 51.1202 233.519 51.1202C235.27 51.1202 236.845 51.4828 238.245 52.208C239.646 52.9332 240.758 54.0084 241.584 55.4338C242.409 56.8591 242.821 58.597 242.821 60.6475C242.821 62.698 242.409 64.4359 241.584 65.8613C240.758 67.2866 239.646 68.3744 238.245 69.1246C236.845 69.8747 235.27 70.2498 233.519 70.2498ZM233.782 67.8868C235.232 67.8868 236.52 67.5867 237.645 66.9865C238.77 66.3614 239.658 65.5112 240.308 64.4359C240.959 63.3357 241.284 62.0729 241.284 60.6475C241.284 59.2222 240.959 57.9719 240.308 56.8966C239.658 55.8214 238.77 54.9837 237.645 54.3835C236.52 53.7584 235.232 53.4458 233.782 53.4458C232.356 53.4458 231.069 53.7584 229.918 54.3835C228.793 54.9837 227.905 55.8214 227.255 56.8966C226.63 57.9719 226.318 59.2222 226.318 60.6475C226.318 62.0729 226.63 63.3357 227.255 64.4359C227.905 65.5112 228.793 66.3614 229.918 66.9865C231.069 67.5867 232.356 67.8868 233.782 67.8868ZM256.571 71.1875C254.946 71.1875 253.408 70.9625 251.958 70.5124C250.507 70.0373 249.369 69.4496 248.544 68.7495L249.745 66.649C250.545 67.2491 251.57 67.7742 252.82 68.2243C254.071 68.6494 255.383 68.862 256.759 68.862C258.634 68.862 259.984 68.5744 260.81 67.9993C261.635 67.3991 262.047 66.6114 262.047 65.6362C262.047 64.911 261.81 64.3484 261.335 63.9483C260.885 63.5232 260.285 63.2106 259.534 63.0106C258.784 62.7855 257.946 62.598 257.021 62.448C256.096 62.2979 255.171 62.1229 254.246 61.9228C253.345 61.7228 252.52 61.4352 251.77 61.0601C251.02 60.66 250.407 60.1224 249.932 59.4472C249.482 58.7721 249.257 57.8719 249.257 56.7466C249.257 55.6713 249.557 54.7086 250.157 53.8584C250.757 53.0082 251.632 52.3455 252.783 51.8704C253.958 51.3703 255.383 51.1202 257.059 51.1202C258.334 51.1202 259.609 51.2953 260.885 51.6454C262.16 51.9704 263.21 52.408 264.035 52.9582L262.873 55.0962C261.997 54.496 261.06 54.0709 260.059 53.8209C259.059 53.5458 258.059 53.4083 257.059 53.4083C255.283 53.4083 253.971 53.7209 253.12 54.346C252.295 54.9462 251.883 55.7213 251.883 56.6716C251.883 57.4217 252.108 58.0094 252.558 58.4345C253.033 58.8596 253.645 59.1972 254.396 59.4472C255.171 59.6723 256.009 59.8598 256.909 60.0099C257.834 60.1599 258.747 60.3474 259.647 60.5725C260.572 60.7725 261.41 61.0601 262.16 61.4352C262.935 61.7853 263.548 62.2979 263.998 62.9731C264.473 63.6232 264.711 64.4859 264.711 65.5612C264.711 66.7115 264.386 67.7117 263.735 68.5619C263.11 69.3871 262.185 70.0373 260.96 70.5124C259.759 70.9625 258.297 71.1875 256.571 71.1875ZM277.737 71.1875C276.061 71.1875 274.598 70.875 273.348 70.2498C272.098 69.6247 271.123 68.6869 270.422 67.4366C269.747 66.1863 269.41 64.6235 269.41 62.748V51.3078H272.073V62.448C272.073 64.5485 272.586 66.1363 273.611 67.2116C274.661 68.2618 276.124 68.787 277.999 68.787C279.375 68.787 280.562 68.5119 281.563 67.9618C282.588 67.3866 283.363 66.5614 283.888 65.4862C284.438 64.4109 284.713 63.1231 284.713 61.6228V51.3078H287.377V71H284.826V65.5987L285.239 66.5739C284.613 68.0243 283.638 69.1621 282.313 69.9873C281.013 70.7874 279.487 71.1875 277.737 71.1875ZM304.851 51.1202C306.451 51.1202 307.852 51.4328 309.052 52.058C310.277 52.6581 311.228 53.5833 311.903 54.8336C312.603 56.0839 312.953 57.6593 312.953 59.5598V71H310.29V59.8223C310.29 57.7468 309.765 56.184 308.714 55.1337C307.689 54.0584 306.239 53.5208 304.363 53.5208C302.963 53.5208 301.738 53.8084 300.688 54.3835C299.662 54.9337 298.862 55.7463 298.287 56.8216C297.737 57.8719 297.462 59.1472 297.462 60.6475V71H294.799V51.3078H297.349V56.7091L296.937 55.6963C297.562 54.271 298.562 53.1582 299.937 52.358C301.313 51.5328 302.951 51.1202 304.851 51.1202ZM328.549 78.4643C326.748 78.4643 325.023 78.2017 323.372 77.6766C321.722 77.1515 320.384 76.4013 319.359 75.4261L320.709 73.4006C321.634 74.2258 322.772 74.8759 324.122 75.351C325.498 75.8512 326.948 76.1012 328.474 76.1012C330.974 76.1012 332.812 75.5136 333.987 74.3383C335.163 73.188 335.75 71.3876 335.75 68.937V64.0233L336.125 60.6475L335.863 57.2717V51.3078H338.413V68.5994C338.413 72.0002 337.576 74.4883 335.9 76.0637C334.25 77.6641 331.799 78.4643 328.549 78.4643ZM328.061 70.2498C326.185 70.2498 324.498 69.8497 322.997 69.0495C321.497 68.2243 320.309 67.0866 319.434 65.6362C318.584 64.1859 318.159 62.523 318.159 60.6475C318.159 58.7721 318.584 57.1217 319.434 55.6963C320.309 54.246 321.497 53.1207 322.997 52.3205C324.498 51.5203 326.185 51.1202 328.061 51.1202C329.811 51.1202 331.387 51.4828 332.787 52.208C334.187 52.9332 335.3 54.0084 336.125 55.4338C336.951 56.8591 337.363 58.597 337.363 60.6475C337.363 62.698 336.951 64.4359 336.125 65.8613C335.3 67.2866 334.187 68.3744 332.787 69.1246C331.387 69.8747 329.811 70.2498 328.061 70.2498ZM328.323 67.8868C329.774 67.8868 331.062 67.5867 332.187 66.9865C333.312 66.3614 334.2 65.5112 334.85 64.4359C335.5 63.3357 335.825 62.0729 335.825 60.6475C335.825 59.2222 335.5 57.9719 334.85 56.8966C334.2 55.8214 333.312 54.9837 332.187 54.3835C331.062 53.7584 329.774 53.4458 328.323 53.4458C326.898 53.4458 325.61 53.7584 324.46 54.3835C323.335 54.9837 322.447 55.8214 321.797 56.8966C321.172 57.9719 320.859 59.2222 320.859 60.6475C320.859 62.0729 321.172 63.3357 321.797 64.4359C322.447 65.5112 323.335 66.3614 324.46 66.9865C325.61 67.5867 326.898 67.8868 328.323 67.8868ZM367.606 71.2251C365.631 71.2251 363.805 70.9 362.13 70.2498C360.455 69.5747 359.004 68.6369 357.779 67.4366C356.554 66.2364 355.591 64.8235 354.891 63.1981C354.216 61.5727 353.878 59.7973 353.878 57.8719C353.878 55.9464 354.216 54.171 354.891 52.5456C355.591 50.9202 356.554 49.5074 357.779 48.3071C359.029 47.1068 360.492 46.1816 362.167 45.5314C363.843 44.8562 365.668 44.5187 367.644 44.5187C369.544 44.5187 371.332 44.8437 373.008 45.4939C374.683 46.119 376.096 47.0693 377.246 48.3446L375.483 50.1075C374.408 49.0072 373.22 48.2195 371.92 47.7444C370.619 47.2443 369.219 46.9942 367.719 46.9942C366.143 46.9942 364.681 47.2693 363.33 47.8194C361.98 48.3446 360.805 49.1073 359.804 50.1075C358.804 51.0827 358.016 52.233 357.441 53.5583C356.891 54.8586 356.616 56.2965 356.616 57.8719C356.616 59.4472 356.891 60.8976 357.441 62.2229C358.016 63.5232 358.804 64.6735 359.804 65.6737C360.805 66.649 361.98 67.4116 363.33 67.9618C364.681 68.4869 366.143 68.7495 367.719 68.7495C369.219 68.7495 370.619 68.4994 371.92 67.9993C373.22 67.4992 374.408 66.699 375.483 65.5987L377.246 67.3616C376.096 68.6369 374.683 69.5997 373.008 70.2498C371.332 70.9 369.532 71.2251 367.606 71.2251ZM390.086 71.1875C388.035 71.1875 386.235 70.7624 384.685 69.9122C383.134 69.037 381.921 67.8492 381.046 66.3489C380.171 64.8235 379.733 63.0856 379.733 61.1351C379.733 59.1847 380.146 57.4593 380.971 55.9589C381.821 54.4585 382.972 53.2833 384.422 52.4331C385.897 51.5578 387.548 51.1202 389.373 51.1202C391.224 51.1202 392.861 51.5453 394.287 52.3955C395.737 53.2207 396.875 54.396 397.7 55.9214C398.525 57.4217 398.938 59.1597 398.938 61.1351C398.938 61.2602 398.925 61.3977 398.9 61.5477C398.9 61.6728 398.9 61.8103 398.9 61.9603H381.759V59.9724H397.475L396.425 60.76C396.425 59.3347 396.112 58.0719 395.487 56.9716C394.887 55.8464 394.062 54.9712 393.012 54.346C391.961 53.7209 390.748 53.4083 389.373 53.4083C388.023 53.4083 386.81 53.7209 385.735 54.346C384.66 54.9712 383.822 55.8464 383.222 56.9716C382.622 58.0969 382.321 59.3847 382.321 60.8351V61.2477C382.321 62.748 382.647 64.0733 383.297 65.2236C383.972 66.3489 384.897 67.2366 386.072 67.8868C387.273 68.5119 388.635 68.8245 390.161 68.8245C391.361 68.8245 392.474 68.6119 393.499 68.1868C394.549 67.7617 395.45 67.1116 396.2 66.2364L397.7 67.9618C396.825 69.012 395.725 69.8122 394.399 70.3623C393.099 70.9125 391.661 71.1875 390.086 71.1875ZM406.459 65.8988L406.534 62.4855L418.8 51.3078H422.063L413.398 59.5973L411.898 60.8726L406.459 65.8988ZM404.359 71V43.1683H407.022V71H404.359ZM419.625 71L411.41 60.76L413.136 58.6971L422.888 71H419.625ZM437.265 71V44.7437H448.593C451.519 44.7437 453.782 45.3314 455.382 46.5066C457.008 47.6819 457.82 49.3448 457.82 51.4953C457.82 52.9207 457.483 54.121 456.808 55.0962C456.157 56.0714 455.257 56.8091 454.107 57.3092C452.982 57.8093 451.744 58.0594 450.394 58.0594L451.031 57.1592C452.707 57.1592 454.144 57.4217 455.345 57.9469C456.57 58.447 457.52 59.2097 458.195 60.2349C458.871 61.2352 459.208 62.4855 459.208 63.9858C459.208 66.2114 458.383 67.9368 456.733 69.1621C455.107 70.3874 452.644 71 449.343 71H437.265ZM440.041 68.712H449.306C451.606 68.712 453.369 68.3244 454.595 67.5492C455.82 66.749 456.432 65.4862 456.432 63.7608C456.432 62.0604 455.82 60.8226 454.595 60.0474C453.369 59.2472 451.606 58.8471 449.306 58.8471H439.741V56.559H448.406C450.506 56.559 452.131 56.1589 453.282 55.3588C454.457 54.5586 455.045 53.3708 455.045 51.7954C455.045 50.195 454.457 49.0072 453.282 48.232C452.131 47.4319 450.506 47.0318 448.406 47.0318H440.041V68.712ZM473.346 71.1875C471.295 71.1875 469.495 70.7624 467.944 69.9122C466.394 69.037 465.181 67.8492 464.306 66.3489C463.431 64.8235 462.993 63.0856 462.993 61.1351C462.993 59.1847 463.406 57.4593 464.231 55.9589C465.081 54.4585 466.231 53.2833 467.682 52.4331C469.157 51.5578 470.807 51.1202 472.633 51.1202C474.483 51.1202 476.121 51.5453 477.547 52.3955C478.997 53.2207 480.135 54.396 480.96 55.9214C481.785 57.4217 482.198 59.1597 482.198 61.1351C482.198 61.2602 482.185 61.3977 482.16 61.5477C482.16 61.6728 482.16 61.8103 482.16 61.9603H465.019V59.9724H480.735L479.685 60.76C479.685 59.3347 479.372 58.0719 478.747 56.9716C478.147 55.8464 477.321 54.9712 476.271 54.346C475.221 53.7209 474.008 53.4083 472.633 53.4083C471.283 53.4083 470.07 53.7209 468.994 54.346C467.919 54.9712 467.082 55.8464 466.481 56.9716C465.881 58.0969 465.581 59.3847 465.581 60.8351V61.2477C465.581 62.748 465.906 64.0733 466.556 65.2236C467.232 66.3489 468.157 67.2366 469.332 67.8868C470.532 68.5119 471.895 68.8245 473.421 68.8245C474.621 68.8245 475.734 68.6119 476.759 68.1868C477.809 67.7617 478.709 67.1116 479.459 66.2364L480.96 67.9618C480.085 69.012 478.984 69.8122 477.659 70.3623C476.359 70.9125 474.921 71.1875 473.346 71.1875ZM487.618 71V51.3078H490.169V56.6716L489.906 55.7338C490.456 54.2335 491.382 53.0957 492.682 52.3205C493.982 51.5203 495.595 51.1202 497.521 51.1202V53.7084C497.421 53.7084 497.321 53.7084 497.221 53.7084C497.121 53.6834 497.021 53.6708 496.92 53.6708C494.845 53.6708 493.22 54.3085 492.044 55.5838C490.869 56.8341 490.281 58.622 490.281 60.9476V71H487.618ZM512.545 71.1875C510.82 71.1875 509.269 70.8 507.894 70.0248C506.519 69.2246 505.431 68.0743 504.631 66.5739C503.83 65.0736 503.43 63.2606 503.43 61.1351C503.43 58.9846 503.83 57.1717 504.631 55.6963C505.456 54.196 506.556 53.0582 507.931 52.283C509.307 51.5078 510.845 51.1202 512.545 51.1202C514.42 51.1202 516.096 51.5453 517.571 52.3955C519.072 53.2207 520.247 54.3835 521.097 55.8839C521.947 57.3842 522.372 59.1347 522.372 61.1351C522.372 63.1106 521.947 64.861 521.097 66.3864C520.247 67.8868 519.072 69.062 517.571 69.9122C516.096 70.7624 514.42 71.1875 512.545 71.1875ZM502.38 71V43.1683H505.043V57.1217L504.668 61.0976L504.931 65.0736V71H502.38ZM512.357 68.8245C513.758 68.8245 515.008 68.5119 516.108 67.8868C517.209 67.2366 518.084 66.3364 518.734 65.1861C519.384 64.0108 519.709 62.6605 519.709 61.1351C519.709 59.5848 519.384 58.2344 518.734 57.0842C518.084 55.9339 517.209 55.0462 516.108 54.421C515.008 53.7709 513.758 53.4458 512.357 53.4458C510.957 53.4458 509.694 53.7709 508.569 54.421C507.469 55.0462 506.594 55.9339 505.943 57.0842C505.318 58.2344 505.006 59.5848 505.006 61.1351C505.006 62.6605 505.318 64.0108 505.943 65.1861C506.594 66.3364 507.469 67.2366 508.569 67.8868C509.694 68.5119 510.957 68.8245 512.357 68.8245ZM540.032 71V66.649L539.919 65.9363V58.6595C539.919 56.9841 539.444 55.6963 538.494 54.7961C537.569 53.8959 536.181 53.4458 534.33 53.4458C533.055 53.4458 531.842 53.6583 530.692 54.0834C529.542 54.5085 528.567 55.0712 527.766 55.7714L526.566 53.7834C527.566 52.9332 528.767 52.283 530.167 51.8329C531.567 51.3578 533.043 51.1202 534.593 51.1202C537.144 51.1202 539.107 51.7579 540.482 53.0332C541.882 54.2835 542.582 56.1965 542.582 58.7721V71H540.032ZM533.243 71.1875C531.767 71.1875 530.48 70.95 529.379 70.4749C528.304 69.9748 527.479 69.2996 526.904 68.4494C526.329 67.5742 526.041 66.5739 526.041 65.4487C526.041 64.4234 526.279 63.4982 526.754 62.673C527.254 61.8228 528.054 61.1476 529.154 60.6475C530.279 60.1224 531.78 59.8598 533.655 59.8598H540.444V61.8478H533.73C531.83 61.8478 530.505 62.1854 529.754 62.8606C529.029 63.5357 528.667 64.3734 528.667 65.3737C528.667 66.4989 529.104 67.3991 529.979 68.0743C530.855 68.7495 532.08 69.087 533.655 69.087C535.156 69.087 536.443 68.7495 537.519 68.0743C538.619 67.3741 539.419 66.3739 539.919 65.0736L540.519 66.9115C540.019 68.2118 539.144 69.2496 537.894 70.0248C536.669 70.8 535.118 71.1875 533.243 71.1875ZM558.218 78.4643C556.417 78.4643 554.692 78.2017 553.042 77.6766C551.391 77.1515 550.053 76.4013 549.028 75.4261L550.378 73.4006C551.304 74.2258 552.441 74.8759 553.792 75.351C555.167 75.8512 556.617 76.1012 558.143 76.1012C560.643 76.1012 562.481 75.5136 563.657 74.3383C564.832 73.188 565.42 71.3876 565.42 68.937V64.0233L565.795 60.6475L565.532 57.2717V51.3078H568.083V68.5994C568.083 72.0002 567.245 74.4883 565.57 76.0637C563.919 77.6641 561.469 78.4643 558.218 78.4643ZM557.73 70.2498C555.855 70.2498 554.167 69.8497 552.666 69.0495C551.166 68.2243 549.978 67.0866 549.103 65.6362C548.253 64.1859 547.828 62.523 547.828 60.6475C547.828 58.7721 548.253 57.1217 549.103 55.6963C549.978 54.246 551.166 53.1207 552.666 52.3205C554.167 51.5203 555.855 51.1202 557.73 51.1202C559.481 51.1202 561.056 51.4828 562.456 52.208C563.857 52.9332 564.969 54.0084 565.795 55.4338C566.62 56.8591 567.032 58.597 567.032 60.6475C567.032 62.698 566.62 64.4359 565.795 65.8613C564.969 67.2866 563.857 68.3744 562.456 69.1246C561.056 69.8747 559.481 70.2498 557.73 70.2498ZM557.993 67.8868C559.443 67.8868 560.731 67.5867 561.856 66.9865C562.981 66.3614 563.869 65.5112 564.519 64.4359C565.169 63.3357 565.495 62.0729 565.495 60.6475C565.495 59.2222 565.169 57.9719 564.519 56.8966C563.869 55.8214 562.981 54.9837 561.856 54.3835C560.731 53.7584 559.443 53.4458 557.993 53.4458C556.567 53.4458 555.28 53.7584 554.129 54.3835C553.004 54.9837 552.116 55.8214 551.466 56.8966C550.841 57.9719 550.528 59.2222 550.528 60.6475C550.528 62.0729 550.841 63.3357 551.466 64.4359C552.116 65.5112 553.004 66.3614 554.129 66.9865C555.28 67.5867 556.567 67.8868 557.993 67.8868ZM587.834 71V66.649L587.721 65.9363V58.6595C587.721 56.9841 587.246 55.6963 586.296 54.7961C585.371 53.8959 583.983 53.4458 582.132 53.4458C580.857 53.4458 579.644 53.6583 578.494 54.0834C577.344 54.5085 576.369 55.0712 575.568 55.7714L574.368 53.7834C575.368 52.9332 576.569 52.283 577.969 51.8329C579.369 51.3578 580.845 51.1202 582.395 51.1202C584.946 51.1202 586.909 51.7579 588.284 53.0332C589.684 54.2835 590.384 56.1965 590.384 58.7721V71H587.834ZM581.045 71.1875C579.569 71.1875 578.281 70.95 577.181 70.4749C576.106 69.9748 575.281 69.2996 574.706 68.4494C574.131 67.5742 573.843 66.5739 573.843 65.4487C573.843 64.4234 574.08 63.4982 574.556 62.673C575.056 61.8228 575.856 61.1476 576.956 60.6475C578.081 60.1224 579.582 59.8598 581.457 59.8598H588.246V61.8478H581.532C579.632 61.8478 578.307 62.1854 577.556 62.8606C576.831 63.5357 576.469 64.3734 576.469 65.3737C576.469 66.4989 576.906 67.3991 577.781 68.0743C578.657 68.7495 579.882 69.087 581.457 69.087C582.958 69.087 584.245 68.7495 585.321 68.0743C586.421 67.3741 587.221 66.3739 587.721 65.0736L588.321 66.9115C587.821 68.2118 586.946 69.2496 585.696 70.0248C584.47 70.8 582.92 71.1875 581.045 71.1875ZM597.618 71V51.3078H600.281V71H597.618ZM598.968 46.9567C598.418 46.9567 597.955 46.7692 597.58 46.3941C597.205 46.019 597.018 45.5689 597.018 45.0438C597.018 44.5187 597.205 44.0811 597.58 43.731C597.955 43.3559 598.418 43.1683 598.968 43.1683C599.518 43.1683 599.981 43.3434 600.356 43.6935C600.731 44.0435 600.919 44.4811 600.919 45.0063C600.919 45.5564 600.731 46.019 600.356 46.3941C600.006 46.7692 599.543 46.9567 598.968 46.9567ZM625.535 71L613.907 44.7437H616.908L627.785 69.4621H626.135L637.087 44.7437H639.901L628.273 71H625.535ZM653.987 71V66.649L653.875 65.9363V58.6595C653.875 56.9841 653.4 55.6963 652.449 54.7961C651.524 53.8959 650.136 53.4458 648.286 53.4458C647.011 53.4458 645.798 53.6583 644.648 54.0834C643.497 54.5085 642.522 55.0712 641.722 55.7714L640.522 53.7834C641.522 52.9332 642.722 52.283 644.122 51.8329C645.523 51.3578 646.998 51.1202 648.549 51.1202C651.099 51.1202 653.062 51.7579 654.437 53.0332C655.838 54.2835 656.538 56.1965 656.538 58.7721V71H653.987ZM647.198 71.1875C645.723 71.1875 644.435 70.95 643.335 70.4749C642.26 69.9748 641.434 69.2996 640.859 68.4494C640.284 67.5742 639.996 66.5739 639.996 65.4487C639.996 64.4234 640.234 63.4982 640.709 62.673C641.209 61.8228 642.009 61.1476 643.11 60.6475C644.235 60.1224 645.735 59.8598 647.611 59.8598H654.4V61.8478H647.686C645.785 61.8478 644.46 62.1854 643.71 62.8606C642.985 63.5357 642.622 64.3734 642.622 65.3737C642.622 66.4989 643.06 67.3991 643.935 68.0743C644.81 68.7495 646.035 69.087 647.611 69.087C649.111 69.087 650.399 68.7495 651.474 68.0743C652.574 67.3741 653.375 66.3739 653.875 65.0736L654.475 66.9115C653.975 68.2118 653.1 69.2496 651.849 70.0248C650.624 70.8 649.074 71.1875 647.198 71.1875ZM663.771 71V51.3078H666.322V56.6716L666.059 55.7338C666.609 54.2335 667.535 53.0957 668.835 52.3205C670.135 51.5203 671.748 51.1202 673.674 51.1202V53.7084C673.574 53.7084 673.474 53.7084 673.374 53.7084C673.274 53.6834 673.174 53.6708 673.074 53.6708C670.998 53.6708 669.373 54.3085 668.197 55.5838C667.022 56.8341 666.434 58.622 666.434 60.9476V71H663.771ZM678.533 71V51.3078H681.196V71H678.533ZM679.883 46.9567C679.333 46.9567 678.871 46.7692 678.496 46.3941C678.12 46.019 677.933 45.5689 677.933 45.0438C677.933 44.5187 678.12 44.0811 678.496 43.731C678.871 43.3559 679.333 43.1683 679.883 43.1683C680.434 43.1683 680.896 43.3434 681.271 43.6935C681.646 44.0435 681.834 44.4811 681.834 45.0063C681.834 45.5564 681.646 46.019 681.271 46.3941C680.921 46.7692 680.459 46.9567 679.883 46.9567ZM700.947 71V66.649L700.834 65.9363V58.6595C700.834 56.9841 700.359 55.6963 699.409 54.7961C698.484 53.8959 697.096 53.4458 695.245 53.4458C693.97 53.4458 692.757 53.6583 691.607 54.0834C690.457 54.5085 689.482 55.0712 688.681 55.7714L687.481 53.7834C688.481 52.9332 689.682 52.283 691.082 51.8329C692.482 51.3578 693.958 51.1202 695.508 51.1202C698.059 51.1202 700.022 51.7579 701.397 53.0332C702.797 54.2835 703.497 56.1965 703.497 58.7721V71H700.947ZM694.158 71.1875C692.682 71.1875 691.395 70.95 690.294 70.4749C689.219 69.9748 688.394 69.2996 687.819 68.4494C687.244 67.5742 686.956 66.5739 686.956 65.4487C686.956 64.4234 687.193 63.4982 687.669 62.673C688.169 61.8228 688.969 61.1476 690.069 60.6475C691.194 60.1224 692.695 59.8598 694.57 59.8598H701.359V61.8478H694.645C692.745 61.8478 691.42 62.1854 690.669 62.8606C689.944 63.5357 689.582 64.3734 689.582 65.3737C689.582 66.4989 690.019 67.3991 690.894 68.0743C691.77 68.7495 692.995 69.087 694.57 69.087C696.071 69.087 697.358 68.7495 698.434 68.0743C699.534 67.3741 700.334 66.3739 700.834 65.0736L701.434 66.9115C700.934 68.2118 700.059 69.2496 698.809 70.0248C697.583 70.8 696.033 71.1875 694.158 71.1875ZM720.783 51.1202C722.384 51.1202 723.784 51.4328 724.984 52.058C726.21 52.6581 727.16 53.5833 727.835 54.8336C728.535 56.0839 728.885 57.6593 728.885 59.5598V71H726.222V59.8223C726.222 57.7468 725.697 56.184 724.647 55.1337C723.621 54.0584 722.171 53.5208 720.296 53.5208C718.895 53.5208 717.67 53.8084 716.62 54.3835C715.595 54.9337 714.794 55.7463 714.219 56.8216C713.669 57.8719 713.394 59.1472 713.394 60.6475V71H710.731V51.3078H713.281V56.7091L712.869 55.6963C713.494 54.271 714.494 53.1582 715.87 52.358C717.245 51.5328 718.883 51.1202 720.783 51.1202ZM746.458 71V44.7437H757.148C759.949 44.7437 762.399 45.3063 764.5 46.4316C766.625 47.5319 768.276 49.0697 769.451 51.0452C770.626 53.0207 771.214 55.2962 771.214 57.8719C771.214 60.4475 770.626 62.723 769.451 64.6985C768.276 66.674 766.625 68.2243 764.5 69.3496C762.399 70.4499 759.949 71 757.148 71H746.458ZM749.234 68.5994H756.998C759.324 68.5994 761.337 68.1493 763.037 67.2491C764.763 66.3239 766.1 65.0611 767.051 63.4607C768.001 61.8353 768.476 59.9724 768.476 57.8719C768.476 55.7463 768.001 53.8834 767.051 52.283C766.1 50.6826 764.763 49.4323 763.037 48.5321C761.337 47.6069 759.324 47.1443 756.998 47.1443H749.234V68.5994ZM785.249 71.1875C783.198 71.1875 781.398 70.7624 779.847 69.9122C778.297 69.037 777.084 67.8492 776.209 66.3489C775.334 64.8235 774.896 63.0856 774.896 61.1351C774.896 59.1847 775.309 57.4593 776.134 55.9589C776.984 54.4585 778.135 53.2833 779.585 52.4331C781.06 51.5578 782.711 51.1202 784.536 51.1202C786.387 51.1202 788.024 51.5453 789.45 52.3955C790.9 53.2207 792.038 54.396 792.863 55.9214C793.688 57.4217 794.101 59.1597 794.101 61.1351C794.101 61.2602 794.088 61.3977 794.063 61.5477C794.063 61.6728 794.063 61.8103 794.063 61.9603H776.922V59.9724H792.638L791.588 60.76C791.588 59.3347 791.275 58.0719 790.65 56.9716C790.05 55.8464 789.225 54.9712 788.174 54.346C787.124 53.7209 785.911 53.4083 784.536 53.4083C783.186 53.4083 781.973 53.7209 780.898 54.346C779.822 54.9712 778.985 55.8464 778.385 56.9716C777.785 58.0969 777.484 59.3847 777.484 60.8351V61.2477C777.484 62.748 777.81 64.0733 778.46 65.2236C779.135 66.3489 780.06 67.2366 781.235 67.8868C782.436 68.5119 783.798 68.8245 785.324 68.8245C786.524 68.8245 787.637 68.6119 788.662 68.1868C789.712 67.7617 790.613 67.1116 791.363 66.2364L792.863 67.9618C791.988 69.012 790.888 69.8122 789.562 70.3623C788.262 70.9125 786.824 71.1875 785.249 71.1875ZM804.81 71.1875C803.185 71.1875 801.647 70.9625 800.197 70.5124C798.746 70.0373 797.609 69.4496 796.783 68.7495L797.984 66.649C798.784 67.2491 799.809 67.7742 801.059 68.2243C802.31 68.6494 803.623 68.862 804.998 68.862C806.873 68.862 808.224 68.5744 809.049 67.9993C809.874 67.3991 810.287 66.6114 810.287 65.6362C810.287 64.911 810.049 64.3484 809.574 63.9483C809.124 63.5232 808.524 63.2106 807.774 63.0106C807.023 62.7855 806.186 62.598 805.26 62.448C804.335 62.2979 803.41 62.1229 802.485 61.9228C801.585 61.7228 800.759 61.4352 800.009 61.0601C799.259 60.66 798.646 60.1224 798.171 59.4472C797.721 58.7721 797.496 57.8719 797.496 56.7466C797.496 55.6713 797.796 54.7086 798.396 53.8584C798.996 53.0082 799.872 52.3455 801.022 51.8704C802.197 51.3703 803.623 51.1202 805.298 51.1202C806.573 51.1202 807.849 51.2953 809.124 51.6454C810.399 51.9704 811.449 52.408 812.275 52.9582L811.112 55.0962C810.237 54.496 809.299 54.0709 808.299 53.8209C807.298 53.5458 806.298 53.4083 805.298 53.4083C803.523 53.4083 802.21 53.7209 801.36 54.346C800.534 54.9462 800.122 55.7213 800.122 56.6716C800.122 57.4217 800.347 58.0094 800.797 58.4345C801.272 58.8596 801.885 59.1972 802.635 59.4472C803.41 59.6723 804.248 59.8598 805.148 60.0099C806.073 60.1599 806.986 60.3474 807.886 60.5725C808.811 60.7725 809.649 61.0601 810.399 61.4352C811.174 61.7853 811.787 62.2979 812.237 62.9731C812.712 63.6232 812.95 64.4859 812.95 65.5612C812.95 66.7115 812.625 67.7117 811.975 68.5619C811.349 69.3871 810.424 70.0373 809.199 70.5124C807.999 70.9625 806.536 71.1875 804.81 71.1875ZM830.177 71V66.649L830.064 65.9363V58.6595C830.064 56.9841 829.589 55.6963 828.639 54.7961C827.714 53.8959 826.326 53.4458 824.476 53.4458C823.2 53.4458 821.988 53.6583 820.837 54.0834C819.687 54.5085 818.712 55.0712 817.912 55.7714L816.711 53.7834C817.712 52.9332 818.912 52.283 820.312 51.8329C821.712 51.3578 823.188 51.1202 824.738 51.1202C827.289 51.1202 829.252 51.7579 830.627 53.0332C832.027 54.2835 832.728 56.1965 832.728 58.7721V71H830.177ZM823.388 71.1875C821.913 71.1875 820.625 70.95 819.524 70.4749C818.449 69.9748 817.624 69.2996 817.049 68.4494C816.474 67.5742 816.186 66.5739 816.186 65.4487C816.186 64.4234 816.424 63.4982 816.899 62.673C817.399 61.8228 818.199 61.1476 819.299 60.6475C820.425 60.1224 821.925 59.8598 823.8 59.8598H830.59V61.8478H823.876C821.975 61.8478 820.65 62.1854 819.9 62.8606C819.174 63.5357 818.812 64.3734 818.812 65.3737C818.812 66.4989 819.249 67.3991 820.125 68.0743C821 68.7495 822.225 69.087 823.8 69.087C825.301 69.087 826.589 68.7495 827.664 68.0743C828.764 67.3741 829.564 66.3739 830.064 65.0736L830.665 66.9115C830.165 68.2118 829.289 69.2496 828.039 70.0248C826.814 70.8 825.263 71.1875 823.388 71.1875ZM839.961 71V51.3078H842.624V71H839.961ZM841.311 46.9567C840.761 46.9567 840.299 46.7692 839.923 46.3941C839.548 46.019 839.361 45.5689 839.361 45.0438C839.361 44.5187 839.548 44.0811 839.923 43.731C840.299 43.3559 840.761 43.1683 841.311 43.1683C841.861 43.1683 842.324 43.3434 842.699 43.6935C843.074 44.0435 843.262 44.4811 843.262 45.0063C843.262 45.5564 843.074 46.019 842.699 46.3941C842.349 46.7692 841.886 46.9567 841.311 46.9567ZM860.087 51.1202C861.687 51.1202 863.087 51.4328 864.288 52.058C865.513 52.6581 866.463 53.5833 867.138 54.8336C867.838 56.0839 868.189 57.6593 868.189 59.5598V71H865.525V59.8223C865.525 57.7468 865 56.184 863.95 55.1337C862.925 54.0584 861.474 53.5208 859.599 53.5208C858.199 53.5208 856.973 53.8084 855.923 54.3835C854.898 54.9337 854.098 55.7463 853.523 56.8216C852.972 57.8719 852.697 59.1472 852.697 60.6475V71H850.034V51.3078H852.585V56.7091L852.172 55.6963C852.797 54.271 853.798 53.1582 855.173 52.358C856.548 51.5328 858.186 51.1202 860.087 51.1202ZM151.264 114.225C149.314 114.225 147.438 113.912 145.638 113.287C143.862 112.637 142.487 111.812 141.512 110.812L142.6 108.674C143.525 109.574 144.763 110.337 146.313 110.962C147.888 111.562 149.539 111.862 151.264 111.862C152.915 111.862 154.252 111.662 155.278 111.262C156.328 110.837 157.091 110.274 157.566 109.574C158.066 108.874 158.316 108.099 158.316 107.248C158.316 106.223 158.016 105.398 157.416 104.773C156.841 104.148 156.078 103.66 155.128 103.31C154.177 102.935 153.127 102.61 151.977 102.335C150.827 102.06 149.676 101.772 148.526 101.472C147.376 101.147 146.313 100.722 145.338 100.197C144.388 99.6716 143.612 98.9839 143.012 98.1337C142.437 97.2585 142.15 96.1207 142.15 94.7204C142.15 93.4201 142.487 92.2323 143.162 91.157C143.862 90.0568 144.925 89.1816 146.351 88.5314C147.776 87.8562 149.601 87.5187 151.827 87.5187C153.302 87.5187 154.765 87.7312 156.215 88.1563C157.666 88.5564 158.916 89.119 159.966 89.8442L159.029 92.0572C157.903 91.3071 156.703 90.7569 155.428 90.4068C154.177 90.0568 152.965 89.8817 151.789 89.8817C150.214 89.8817 148.914 90.0943 147.888 90.5194C146.863 90.9445 146.1 91.5196 145.6 92.2448C145.125 92.945 144.888 93.7451 144.888 94.6454C144.888 95.6706 145.175 96.4958 145.75 97.121C146.351 97.7461 147.126 98.2337 148.076 98.5838C149.051 98.9339 150.114 99.2465 151.264 99.5215C152.414 99.7966 153.552 100.097 154.678 100.422C155.828 100.747 156.878 101.172 157.828 101.697C158.804 102.197 159.579 102.872 160.154 103.723C160.754 104.573 161.054 105.686 161.054 107.061C161.054 108.336 160.704 109.524 160.004 110.624C159.304 111.699 158.228 112.575 156.778 113.25C155.353 113.9 153.515 114.225 151.264 114.225ZM174.904 114.188C172.853 114.188 171.053 113.762 169.502 112.912C167.952 112.037 166.739 110.849 165.864 109.349C164.989 107.824 164.551 106.086 164.551 104.135C164.551 102.185 164.964 100.459 165.789 98.9589C166.639 97.4585 167.789 96.2833 169.24 95.4331C170.715 94.5578 172.366 94.1202 174.191 94.1202C176.041 94.1202 177.679 94.5453 179.105 95.3955C180.555 96.2207 181.693 97.396 182.518 98.9214C183.343 100.422 183.756 102.16 183.756 104.135C183.756 104.26 183.743 104.398 183.718 104.548C183.718 104.673 183.718 104.81 183.718 104.96H166.577V102.972H182.293L181.243 103.76C181.243 102.335 180.93 101.072 180.305 99.9716C179.705 98.8464 178.88 97.9712 177.829 97.346C176.779 96.7209 175.566 96.4083 174.191 96.4083C172.841 96.4083 171.628 96.7209 170.553 97.346C169.477 97.9712 168.64 98.8464 168.04 99.9716C167.439 101.097 167.139 102.385 167.139 103.835V104.248C167.139 105.748 167.464 107.073 168.115 108.224C168.79 109.349 169.715 110.237 170.89 110.887C172.09 111.512 173.453 111.824 174.979 111.824C176.179 111.824 177.292 111.612 178.317 111.187C179.367 110.762 180.267 110.112 181.018 109.236L182.518 110.962C181.643 112.012 180.543 112.812 179.217 113.362C177.917 113.912 176.479 114.188 174.904 114.188ZM189.176 114V94.3078H191.727V99.6716L191.464 98.7338C192.015 97.2335 192.94 96.0957 194.24 95.3205C195.54 94.5203 197.153 94.1202 199.079 94.1202V96.7084C198.979 96.7084 198.879 96.7084 198.779 96.7084C198.679 96.6834 198.579 96.6708 198.479 96.6708C196.403 96.6708 194.778 97.3085 193.602 98.5838C192.427 99.8341 191.84 101.622 191.84 103.948V114H189.176ZM211.007 114.188C209.157 114.188 207.731 113.687 206.731 112.687C205.731 111.687 205.231 110.274 205.231 108.449V89.9567H207.894V108.299C207.894 109.449 208.182 110.337 208.757 110.962C209.357 111.587 210.207 111.899 211.307 111.899C212.483 111.899 213.458 111.562 214.233 110.887L215.171 112.8C214.646 113.275 214.008 113.625 213.258 113.85C212.533 114.075 211.782 114.188 211.007 114.188ZM201.705 96.5208V94.3078H213.895V96.5208H201.705ZM232.359 114V109.649L232.247 108.936V101.66C232.247 99.9841 231.772 98.6963 230.821 97.7961C229.896 96.8959 228.508 96.4458 226.658 96.4458C225.383 96.4458 224.17 96.6583 223.019 97.0834C221.869 97.5085 220.894 98.0712 220.094 98.7714L218.894 96.7834C219.894 95.9332 221.094 95.283 222.494 94.8329C223.895 94.3578 225.37 94.1202 226.92 94.1202C229.471 94.1202 231.434 94.7579 232.809 96.0332C234.21 97.2835 234.91 99.1965 234.91 101.772V114H232.359ZM225.57 114.188C224.095 114.188 222.807 113.95 221.707 113.475C220.631 112.975 219.806 112.3 219.231 111.449C218.656 110.574 218.368 109.574 218.368 108.449C218.368 107.423 218.606 106.498 219.081 105.673C219.581 104.823 220.381 104.148 221.482 103.648C222.607 103.122 224.107 102.86 225.983 102.86H232.772V104.848H226.058C224.157 104.848 222.832 105.185 222.082 105.861C221.357 106.536 220.994 107.373 220.994 108.374C220.994 109.499 221.432 110.399 222.307 111.074C223.182 111.749 224.407 112.087 225.983 112.087C227.483 112.087 228.771 111.749 229.846 111.074C230.946 110.374 231.747 109.374 232.247 108.074L232.847 109.912C232.347 111.212 231.472 112.25 230.221 113.025C228.996 113.8 227.446 114.188 225.57 114.188ZM252.523 114V87.7437H262.35C264.576 87.7437 266.488 88.1063 268.089 88.8315C269.689 89.5316 270.915 90.5569 271.765 91.9072C272.64 93.2325 273.078 94.8454 273.078 96.7459C273.078 98.5963 272.64 100.197 271.765 101.547C270.915 102.872 269.689 103.898 268.089 104.623C266.488 105.348 264.576 105.711 262.35 105.711H254.061L255.298 104.398V114H252.523ZM255.298 104.623L254.061 103.272H262.275C264.901 103.272 266.889 102.71 268.239 101.585C269.614 100.434 270.302 98.8214 270.302 96.7459C270.302 94.6454 269.614 93.02 268.239 91.8697C266.889 90.7194 264.901 90.1443 262.275 90.1443H254.061L255.298 88.8315V104.623ZM278.004 114V94.3078H280.554V99.6716L280.292 98.7338C280.842 97.2335 281.767 96.0957 283.068 95.3205C284.368 94.5203 285.981 94.1202 287.906 94.1202V96.7084C287.806 96.7084 287.706 96.7084 287.606 96.7084C287.506 96.6834 287.406 96.6708 287.306 96.6708C285.231 96.6708 283.605 97.3085 282.43 98.5838C281.255 99.8341 280.667 101.622 280.667 103.948V114H278.004ZM300.609 114.188C298.709 114.188 296.996 113.762 295.471 112.912C293.97 112.037 292.783 110.849 291.907 109.349C291.032 107.824 290.595 106.086 290.595 104.135C290.595 102.16 291.032 100.422 291.907 98.9214C292.783 97.421 293.97 96.2457 295.471 95.3955C296.971 94.5453 298.684 94.1202 300.609 94.1202C302.56 94.1202 304.285 94.5453 305.786 95.3955C307.311 96.2457 308.499 97.421 309.349 98.9214C310.224 100.422 310.662 102.16 310.662 104.135C310.662 106.086 310.224 107.824 309.349 109.349C308.499 110.849 307.311 112.037 305.786 112.912C304.26 113.762 302.535 114.188 300.609 114.188ZM300.609 111.824C302.035 111.824 303.298 111.512 304.398 110.887C305.498 110.237 306.361 109.336 306.986 108.186C307.636 107.011 307.961 105.661 307.961 104.135C307.961 102.585 307.636 101.234 306.986 100.084C306.361 98.9339 305.498 98.0462 304.398 97.421C303.298 96.7709 302.047 96.4458 300.647 96.4458C299.247 96.4458 297.996 96.7709 296.896 97.421C295.796 98.0462 294.921 98.9339 294.27 100.084C293.62 101.234 293.295 102.585 293.295 104.135C293.295 105.661 293.62 107.011 294.27 108.186C294.921 109.336 295.796 110.237 296.896 110.887C297.996 111.512 299.234 111.824 300.609 111.824ZM321.388 114.188C319.762 114.188 318.224 113.962 316.774 113.512C315.324 113.037 314.186 112.45 313.361 111.749L314.561 109.649C315.361 110.249 316.386 110.774 317.637 111.224C318.887 111.649 320.2 111.862 321.575 111.862C323.451 111.862 324.801 111.574 325.626 110.999C326.451 110.399 326.864 109.611 326.864 108.636C326.864 107.911 326.626 107.348 326.151 106.948C325.701 106.523 325.101 106.211 324.351 106.011C323.601 105.786 322.763 105.598 321.838 105.448C320.913 105.298 319.987 105.123 319.062 104.923C318.162 104.723 317.337 104.435 316.587 104.06C315.836 103.66 315.224 103.122 314.749 102.447C314.298 101.772 314.073 100.872 314.073 99.7466C314.073 98.6713 314.374 97.7086 314.974 96.8584C315.574 96.0082 316.449 95.3455 317.599 94.8704C318.775 94.3703 320.2 94.1202 321.875 94.1202C323.151 94.1202 324.426 94.2953 325.701 94.6454C326.977 94.9704 328.027 95.408 328.852 95.9582L327.689 98.0962C326.814 97.496 325.876 97.0709 324.876 96.8209C323.876 96.5458 322.876 96.4083 321.875 96.4083C320.1 96.4083 318.787 96.7209 317.937 97.346C317.112 97.9462 316.699 98.7213 316.699 99.6716C316.699 100.422 316.924 101.009 317.374 101.434C317.849 101.86 318.462 102.197 319.212 102.447C319.987 102.672 320.825 102.86 321.725 103.01C322.65 103.16 323.563 103.347 324.463 103.573C325.389 103.773 326.226 104.06 326.977 104.435C327.752 104.785 328.364 105.298 328.814 105.973C329.29 106.623 329.527 107.486 329.527 108.561C329.527 109.711 329.202 110.712 328.552 111.562C327.927 112.387 327.002 113.037 325.776 113.512C324.576 113.962 323.113 114.188 321.388 114.188ZM342.778 114.188C340.728 114.188 338.927 113.762 337.377 112.912C335.827 112.037 334.614 110.849 333.739 109.349C332.863 107.824 332.426 106.086 332.426 104.135C332.426 102.185 332.838 100.459 333.664 98.9589C334.514 97.4585 335.664 96.2833 337.114 95.4331C338.59 94.5578 340.24 94.1202 342.066 94.1202C343.916 94.1202 345.554 94.5453 346.979 95.3955C348.43 96.2207 349.567 97.396 350.393 98.9214C351.218 100.422 351.63 102.16 351.63 104.135C351.63 104.26 351.618 104.398 351.593 104.548C351.593 104.673 351.593 104.81 351.593 104.96H334.451V102.972H350.168L349.117 103.76C349.117 102.335 348.805 101.072 348.18 99.9716C347.579 98.8464 346.754 97.9712 345.704 97.346C344.654 96.7209 343.441 96.4083 342.066 96.4083C340.715 96.4083 339.503 96.7209 338.427 97.346C337.352 97.9712 336.514 98.8464 335.914 99.9716C335.314 101.097 335.014 102.385 335.014 103.835V104.248C335.014 105.748 335.339 107.073 335.989 108.224C336.664 109.349 337.59 110.237 338.765 110.887C339.965 111.512 341.328 111.824 342.853 111.824C344.054 111.824 345.166 111.612 346.192 111.187C347.242 110.762 348.142 110.112 348.892 109.236L350.393 110.962C349.517 112.012 348.417 112.812 347.092 113.362C345.792 113.912 344.354 114.188 342.778 114.188ZM364.89 114.188C363.015 114.188 361.327 113.762 359.827 112.912C358.351 112.062 357.189 110.887 356.338 109.386C355.488 107.861 355.063 106.111 355.063 104.135C355.063 102.135 355.488 100.384 356.338 98.8839C357.189 97.3835 358.351 96.2207 359.827 95.3955C361.327 94.5453 363.015 94.1202 364.89 94.1202C366.616 94.1202 368.154 94.5078 369.504 95.283C370.879 96.0582 371.967 97.196 372.767 98.6963C373.593 100.172 374.005 101.985 374.005 104.135C374.005 106.261 373.605 108.074 372.805 109.574C372.005 111.074 370.917 112.225 369.542 113.025C368.191 113.8 366.641 114.188 364.89 114.188ZM365.078 111.824C366.478 111.824 367.729 111.512 368.829 110.887C369.954 110.237 370.829 109.336 371.455 108.186C372.105 107.011 372.43 105.661 372.43 104.135C372.43 102.585 372.105 101.234 371.455 100.084C370.829 98.9339 369.954 98.0462 368.829 97.421C367.729 96.7709 366.478 96.4458 365.078 96.4458C363.703 96.4458 362.465 96.7709 361.365 97.421C360.264 98.0462 359.389 98.9339 358.739 100.084C358.089 101.234 357.764 102.585 357.764 104.135C357.764 105.661 358.089 107.011 358.739 108.186C359.389 109.336 360.264 110.237 361.365 110.887C362.465 111.512 363.703 111.824 365.078 111.824ZM372.505 114V108.074L372.767 104.098L372.392 100.122V86.1683H375.055V114H372.505ZM390.612 114.188C388.936 114.188 387.473 113.875 386.223 113.25C384.973 112.625 383.998 111.687 383.297 110.437C382.622 109.186 382.285 107.623 382.285 105.748V94.3078H384.948V105.448C384.948 107.548 385.46 109.136 386.486 110.212C387.536 111.262 388.999 111.787 390.874 111.787C392.25 111.787 393.437 111.512 394.438 110.962C395.463 110.387 396.238 109.561 396.763 108.486C397.313 107.411 397.588 106.123 397.588 104.623V94.3078H400.251V114H397.701V108.599L398.113 109.574C397.488 111.024 396.513 112.162 395.188 112.987C393.887 113.787 392.362 114.188 390.612 114.188ZM407.674 114V94.3078H410.224V99.6716L409.962 98.7338C410.512 97.2335 411.437 96.0957 412.737 95.3205C414.038 94.5203 415.651 94.1202 417.576 94.1202V96.7084C417.476 96.7084 417.376 96.7084 417.276 96.7084C417.176 96.6834 417.076 96.6708 416.976 96.6708C414.9 96.6708 413.275 97.3085 412.1 98.5838C410.924 99.8341 410.337 101.622 410.337 103.948V114H407.674ZM433.108 114V87.7437H442.935C445.161 87.7437 447.074 88.1063 448.674 88.8315C450.275 89.5316 451.5 90.5569 452.35 91.9072C453.225 93.2325 453.663 94.8454 453.663 96.7459C453.663 98.5963 453.225 100.197 452.35 101.547C451.5 102.872 450.275 103.898 448.674 104.623C447.074 105.348 445.161 105.711 442.935 105.711H434.646L435.884 104.398V114H433.108ZM435.884 104.623L434.646 103.272H442.86C445.486 103.272 447.474 102.71 448.824 101.585C450.199 100.434 450.887 98.8214 450.887 96.7459C450.887 94.6454 450.199 93.02 448.824 91.8697C447.474 90.7194 445.486 90.1443 442.86 90.1443H434.646L435.884 88.8315V104.623ZM467.357 114.188C465.306 114.188 463.506 113.762 461.955 112.912C460.405 112.037 459.192 110.849 458.317 109.349C457.442 107.824 457.004 106.086 457.004 104.135C457.004 102.185 457.417 100.459 458.242 98.9589C459.092 97.4585 460.242 96.2833 461.693 95.4331C463.168 94.5578 464.818 94.1202 466.644 94.1202C468.494 94.1202 470.132 94.5453 471.558 95.3955C473.008 96.2207 474.146 97.396 474.971 98.9214C475.796 100.422 476.209 102.16 476.209 104.135C476.209 104.26 476.196 104.398 476.171 104.548C476.171 104.673 476.171 104.81 476.171 104.96H459.03V102.972H474.746L473.696 103.76C473.696 102.335 473.383 101.072 472.758 99.9716C472.158 98.8464 471.332 97.9712 470.282 97.346C469.232 96.7209 468.019 96.4083 466.644 96.4083C465.294 96.4083 464.081 96.7209 463.005 97.346C461.93 97.9712 461.093 98.8464 460.492 99.9716C459.892 101.097 459.592 102.385 459.592 103.835V104.248C459.592 105.748 459.917 107.073 460.567 108.224C461.243 109.349 462.168 110.237 463.343 110.887C464.543 111.512 465.906 111.824 467.432 111.824C468.632 111.824 469.745 111.612 470.77 111.187C471.82 110.762 472.72 110.112 473.47 109.236L474.971 110.962C474.096 112.012 472.995 112.812 471.67 113.362C470.37 113.912 468.932 114.188 467.357 114.188ZM506.235 94.1202C507.836 94.1202 509.223 94.4328 510.399 95.058C511.599 95.6581 512.524 96.5833 513.174 97.8336C513.85 99.0839 514.187 100.659 514.187 102.56V114H511.524V102.822C511.524 100.747 511.024 99.184 510.024 98.1337C509.048 97.0584 507.661 96.5208 505.86 96.5208C504.51 96.5208 503.334 96.8084 502.334 97.3835C501.359 97.9337 500.596 98.7463 500.046 99.8216C499.521 100.872 499.259 102.147 499.259 103.648V114H496.595V102.822C496.595 100.747 496.095 99.184 495.095 98.1337C494.095 97.0584 492.694 96.5208 490.894 96.5208C489.569 96.5208 488.406 96.8084 487.406 97.3835C486.405 97.9337 485.63 98.7463 485.08 99.8216C484.555 100.872 484.292 102.147 484.292 103.648V114H481.629V94.3078H484.18V99.6341L483.767 98.6963C484.367 97.271 485.33 96.1582 486.655 95.358C488.006 94.5328 489.594 94.1202 491.419 94.1202C493.345 94.1202 494.982 94.6079 496.333 95.5831C497.683 96.5333 498.558 97.9712 498.958 99.8966L497.908 99.484C498.483 97.8836 499.496 96.5958 500.946 95.6206C502.422 94.6204 504.185 94.1202 506.235 94.1202ZM529.774 114.188C527.723 114.188 525.923 113.762 524.373 112.912C522.822 112.037 521.609 110.849 520.734 109.349C519.859 107.824 519.421 106.086 519.421 104.135C519.421 102.185 519.834 100.459 520.659 98.9589C521.509 97.4585 522.66 96.2833 524.11 95.4331C525.585 94.5578 527.236 94.1202 529.061 94.1202C530.912 94.1202 532.549 94.5453 533.975 95.3955C535.425 96.2207 536.563 97.396 537.388 98.9214C538.213 100.422 538.626 102.16 538.626 104.135C538.626 104.26 538.613 104.398 538.588 104.548C538.588 104.673 538.588 104.81 538.588 104.96H521.447V102.972H537.163L536.113 103.76C536.113 102.335 535.8 101.072 535.175 99.9716C534.575 98.8464 533.75 97.9712 532.7 97.346C531.649 96.7209 530.436 96.4083 529.061 96.4083C527.711 96.4083 526.498 96.7209 525.423 97.346C524.348 97.9712 523.51 98.8464 522.91 99.9716C522.31 101.097 522.009 102.385 522.009 103.835V104.248C522.009 105.748 522.335 107.073 522.985 108.224C523.66 109.349 524.585 110.237 525.76 110.887C526.961 111.512 528.323 111.824 529.849 111.824C531.049 111.824 532.162 111.612 533.187 111.187C534.237 110.762 535.138 110.112 535.888 109.236L537.388 110.962C536.513 112.012 535.413 112.812 534.087 113.362C532.787 113.912 531.349 114.188 529.774 114.188ZM549.335 114.188C547.71 114.188 546.172 113.962 544.722 113.512C543.271 113.037 542.134 112.45 541.308 111.749L542.509 109.649C543.309 110.249 544.334 110.774 545.584 111.224C546.835 111.649 548.148 111.862 549.523 111.862C551.398 111.862 552.749 111.574 553.574 110.999C554.399 110.399 554.812 109.611 554.812 108.636C554.812 107.911 554.574 107.348 554.099 106.948C553.649 106.523 553.049 106.211 552.299 106.011C551.548 105.786 550.711 105.598 549.785 105.448C548.86 105.298 547.935 105.123 547.01 104.923C546.11 104.723 545.284 104.435 544.534 104.06C543.784 103.66 543.171 103.122 542.696 102.447C542.246 101.772 542.021 100.872 542.021 99.7466C542.021 98.6713 542.321 97.7086 542.921 96.8584C543.521 96.0082 544.397 95.3455 545.547 94.8704C546.722 94.3703 548.148 94.1202 549.823 94.1202C551.098 94.1202 552.374 94.2953 553.649 94.6454C554.924 94.9704 555.974 95.408 556.8 95.9582L555.637 98.0962C554.762 97.496 553.824 97.0709 552.824 96.8209C551.823 96.5458 550.823 96.4083 549.823 96.4083C548.048 96.4083 546.735 96.7209 545.885 97.346C545.059 97.9462 544.647 98.7213 544.647 99.6716C544.647 100.422 544.872 101.009 545.322 101.434C545.797 101.86 546.41 102.197 547.16 102.447C547.935 102.672 548.773 102.86 549.673 103.01C550.598 103.16 551.511 103.347 552.411 103.573C553.336 103.773 554.174 104.06 554.924 104.435C555.699 104.785 556.312 105.298 556.762 105.973C557.237 106.623 557.475 107.486 557.475 108.561C557.475 109.711 557.15 110.712 556.5 111.562C555.874 112.387 554.949 113.037 553.724 113.512C552.524 113.962 551.061 114.188 549.335 114.188ZM574.702 114V109.649L574.589 108.936V101.66C574.589 99.9841 574.114 98.6963 573.164 97.7961C572.239 96.8959 570.851 96.4458 569.001 96.4458C567.725 96.4458 566.513 96.6583 565.362 97.0834C564.212 97.5085 563.237 98.0712 562.437 98.7714L561.236 96.7834C562.236 95.9332 563.437 95.283 564.837 94.8329C566.237 94.3578 567.713 94.1202 569.263 94.1202C571.814 94.1202 573.777 94.7579 575.152 96.0332C576.552 97.2835 577.253 99.1965 577.253 101.772V114H574.702ZM567.913 114.188C566.437 114.188 565.15 113.95 564.049 113.475C562.974 112.975 562.149 112.3 561.574 111.449C560.999 110.574 560.711 109.574 560.711 108.449C560.711 107.423 560.949 106.498 561.424 105.673C561.924 104.823 562.724 104.148 563.824 103.648C564.95 103.122 566.45 102.86 568.325 102.86H575.115V104.848H568.4C566.5 104.848 565.175 105.185 564.425 105.861C563.699 106.536 563.337 107.373 563.337 108.374C563.337 109.499 563.774 110.399 564.65 111.074C565.525 111.749 566.75 112.087 568.325 112.087C569.826 112.087 571.114 111.749 572.189 111.074C573.289 110.374 574.089 109.374 574.589 108.074L575.19 109.912C574.689 111.212 573.814 112.25 572.564 113.025C571.339 113.8 569.788 114.188 567.913 114.188ZM594.538 94.1202C596.139 94.1202 597.539 94.4328 598.739 95.058C599.965 95.6581 600.915 96.5833 601.59 97.8336C602.29 99.0839 602.64 100.659 602.64 102.56V114H599.977V102.822C599.977 100.747 599.452 99.184 598.402 98.1337C597.377 97.0584 595.926 96.5208 594.051 96.5208C592.65 96.5208 591.425 96.8084 590.375 97.3835C589.35 97.9337 588.549 98.7463 587.974 99.8216C587.424 100.872 587.149 102.147 587.149 103.648V114H584.486V94.3078H587.037V99.7091L586.624 98.6963C587.249 97.271 588.249 96.1582 589.625 95.358C591 94.5328 592.638 94.1202 594.538 94.1202ZM622.174 114V109.649L622.062 108.936V101.66C622.062 99.9841 621.587 98.6963 620.636 97.7961C619.711 96.8959 618.323 96.4458 616.473 96.4458C615.198 96.4458 613.985 96.6583 612.835 97.0834C611.684 97.5085 610.709 98.0712 609.909 98.7714L608.709 96.7834C609.709 95.9332 610.909 95.283 612.309 94.8329C613.71 94.3578 615.185 94.1202 616.735 94.1202C619.286 94.1202 621.249 94.7579 622.624 96.0332C624.025 97.2835 624.725 99.1965 624.725 101.772V114H622.174ZM615.385 114.188C613.91 114.188 612.622 113.95 611.522 113.475C610.446 112.975 609.621 112.3 609.046 111.449C608.471 110.574 608.183 109.574 608.183 108.449C608.183 107.423 608.421 106.498 608.896 105.673C609.396 104.823 610.196 104.148 611.297 103.648C612.422 103.122 613.922 102.86 615.798 102.86H622.587V104.848H615.873C613.972 104.848 612.647 105.185 611.897 105.861C611.172 106.536 610.809 107.373 610.809 108.374C610.809 109.499 611.247 110.399 612.122 111.074C612.997 111.749 614.222 112.087 615.798 112.087C617.298 112.087 618.586 111.749 619.661 111.074C620.761 110.374 621.562 109.374 622.062 108.074L622.662 109.912C622.162 111.212 621.287 112.25 620.036 113.025C618.811 113.8 617.261 114.188 615.385 114.188ZM642.011 94.1202C643.611 94.1202 645.011 94.4328 646.212 95.058C647.437 95.6581 648.387 96.5833 649.062 97.8336C649.763 99.0839 650.113 100.659 650.113 102.56V114H647.449V102.822C647.449 100.747 646.924 99.184 645.874 98.1337C644.849 97.0584 643.399 96.5208 641.523 96.5208C640.123 96.5208 638.897 96.8084 637.847 97.3835C636.822 97.9337 636.022 98.7463 635.447 99.8216C634.896 100.872 634.621 102.147 634.621 103.648V114H631.958V94.3078H634.509V99.7091L634.096 98.6963C634.721 97.271 635.722 96.1582 637.097 95.358C638.472 94.5328 640.11 94.1202 642.011 94.1202ZM674.925 114.225C672.974 114.225 671.099 113.912 669.298 113.287C667.523 112.637 666.148 111.812 665.172 110.812L666.26 108.674C667.185 109.574 668.423 110.337 669.974 110.962C671.549 111.562 673.199 111.862 674.925 111.862C676.575 111.862 677.913 111.662 678.938 111.262C679.989 110.837 680.751 110.274 681.226 109.574C681.726 108.874 681.976 108.099 681.976 107.248C681.976 106.223 681.676 105.398 681.076 104.773C680.501 104.148 679.738 103.66 678.788 103.31C677.838 102.935 676.788 102.61 675.637 102.335C674.487 102.06 673.337 101.772 672.187 101.472C671.036 101.147 669.974 100.722 668.998 100.197C668.048 99.6716 667.273 98.9839 666.673 98.1337C666.098 97.2585 665.81 96.1207 665.81 94.7204C665.81 93.4201 666.148 92.2323 666.823 91.157C667.523 90.0568 668.586 89.1816 670.011 88.5314C671.436 87.8562 673.262 87.5187 675.487 87.5187C676.963 87.5187 678.426 87.7312 679.876 88.1563C681.326 88.5564 682.577 89.119 683.627 89.8442L682.689 92.0572C681.564 91.3071 680.364 90.7569 679.088 90.4068C677.838 90.0568 676.625 89.8817 675.45 89.8817C673.875 89.8817 672.574 90.0943 671.549 90.5194C670.524 90.9445 669.761 91.5196 669.261 92.2448C668.786 92.945 668.548 93.7451 668.548 94.6454C668.548 95.6706 668.836 96.4958 669.411 97.121C670.011 97.7461 670.786 98.2337 671.737 98.5838C672.712 98.9339 673.775 99.2465 674.925 99.5215C676.075 99.7966 677.213 100.097 678.338 100.422C679.488 100.747 680.539 101.172 681.489 101.697C682.464 102.197 683.239 102.872 683.814 103.723C684.415 104.573 684.715 105.686 684.715 107.061C684.715 108.336 684.365 109.524 683.664 110.624C682.964 111.699 681.889 112.575 680.439 113.25C679.013 113.9 677.175 114.225 674.925 114.225ZM698.564 114.188C696.514 114.188 694.713 113.762 693.163 112.912C691.613 112.037 690.4 110.849 689.525 109.349C688.649 107.824 688.212 106.086 688.212 104.135C688.212 102.185 688.624 100.459 689.45 98.9589C690.3 97.4585 691.45 96.2833 692.9 95.4331C694.376 94.5578 696.026 94.1202 697.852 94.1202C699.702 94.1202 701.34 94.5453 702.765 95.3955C704.216 96.2207 705.353 97.396 706.179 98.9214C707.004 100.422 707.416 102.16 707.416 104.135C707.416 104.26 707.404 104.398 707.379 104.548C707.379 104.673 707.379 104.81 707.379 104.96H690.237V102.972H705.954L704.903 103.76C704.903 102.335 704.591 101.072 703.966 99.9716C703.365 98.8464 702.54 97.9712 701.49 97.346C700.44 96.7209 699.227 96.4083 697.852 96.4083C696.501 96.4083 695.288 96.7209 694.213 97.346C693.138 97.9712 692.3 98.8464 691.7 99.9716C691.1 101.097 690.8 102.385 690.8 103.835V104.248C690.8 105.748 691.125 107.073 691.775 108.224C692.45 109.349 693.376 110.237 694.551 110.887C695.751 111.512 697.114 111.824 698.639 111.824C699.84 111.824 700.952 111.612 701.978 111.187C703.028 110.762 703.928 110.112 704.678 109.236L706.179 110.962C705.303 112.012 704.203 112.812 702.878 113.362C701.578 113.912 700.14 114.188 698.564 114.188ZM712.837 114V86.1683H715.5V114H712.837ZM735.251 114V109.649L735.138 108.936V101.66C735.138 99.9841 734.663 98.6963 733.713 97.7961C732.788 96.8959 731.4 96.4458 729.549 96.4458C728.274 96.4458 727.061 96.6583 725.911 97.0834C724.761 97.5085 723.785 98.0712 722.985 98.7714L721.785 96.7834C722.785 95.9332 723.985 95.283 725.386 94.8329C726.786 94.3578 728.262 94.1202 729.812 94.1202C732.362 94.1202 734.325 94.7579 735.701 96.0332C737.101 97.2835 737.801 99.1965 737.801 101.772V114H735.251ZM728.462 114.188C726.986 114.188 725.698 113.95 724.598 113.475C723.523 112.975 722.698 112.3 722.123 111.449C721.547 110.574 721.26 109.574 721.26 108.449C721.26 107.423 721.497 106.498 721.973 105.673C722.473 104.823 723.273 104.148 724.373 103.648C725.498 103.122 726.999 102.86 728.874 102.86H735.663V104.848H728.949C727.049 104.848 725.723 105.185 724.973 105.861C724.248 106.536 723.885 107.373 723.885 108.374C723.885 109.499 724.323 110.399 725.198 111.074C726.073 111.749 727.299 112.087 728.874 112.087C730.375 112.087 731.662 111.749 732.738 111.074C733.838 110.374 734.638 109.374 735.138 108.074L735.738 109.912C735.238 111.212 734.363 112.25 733.113 113.025C731.887 113.8 730.337 114.188 728.462 114.188ZM755.087 94.1202C756.687 94.1202 758.088 94.4328 759.288 95.058C760.513 95.6581 761.464 96.5833 762.139 97.8336C762.839 99.0839 763.189 100.659 763.189 102.56V114H760.526V102.822C760.526 100.747 760.001 99.184 758.951 98.1337C757.925 97.0584 756.475 96.5208 754.599 96.5208C753.199 96.5208 751.974 96.8084 750.924 97.3835C749.898 97.9337 749.098 98.7463 748.523 99.8216C747.973 100.872 747.698 102.147 747.698 103.648V114H745.035V94.3078H747.585V99.7091L747.173 98.6963C747.798 97.271 748.798 96.1582 750.173 95.358C751.549 94.5328 753.187 94.1202 755.087 94.1202ZM767.457 121.464C766.657 121.464 765.894 121.352 765.169 121.127C764.419 120.927 763.793 120.614 763.293 120.189L764.231 118.163C765.031 118.839 766.056 119.176 767.307 119.176C768.357 119.176 769.157 118.864 769.707 118.239C770.282 117.613 770.57 116.688 770.57 115.463V94.3078H773.233V115.463C773.233 117.288 772.733 118.739 771.733 119.814C770.758 120.914 769.332 121.464 767.457 121.464ZM771.92 89.9567C771.37 89.9567 770.908 89.7692 770.533 89.3941C770.157 89.019 769.97 88.5689 769.97 88.0438C769.97 87.5187 770.157 87.0811 770.533 86.731C770.908 86.3559 771.37 86.1683 771.92 86.1683C772.471 86.1683 772.933 86.3434 773.308 86.6935C773.683 87.0435 773.871 87.4811 773.871 88.0063C773.871 88.5564 773.683 89.019 773.308 89.3941C772.958 89.7692 772.496 89.9567 771.92 89.9567ZM788.815 114.188C787.14 114.188 785.677 113.875 784.426 113.25C783.176 112.625 782.201 111.687 781.501 110.437C780.826 109.186 780.488 107.623 780.488 105.748V94.3078H783.151V105.448C783.151 107.548 783.664 109.136 784.689 110.212C785.739 111.262 787.202 111.787 789.078 111.787C790.453 111.787 791.641 111.512 792.641 110.962C793.666 110.387 794.441 109.561 794.966 108.486C795.517 107.411 795.792 106.123 795.792 104.623V94.3078H798.455V114H795.904V108.599L796.317 109.574C795.692 111.024 794.716 112.162 793.391 112.987C792.091 113.787 790.565 114.188 788.815 114.188ZM812.103 114.188C810.253 114.188 808.828 113.687 807.827 112.687C806.827 111.687 806.327 110.274 806.327 108.449V89.9567H808.99V108.299C808.99 109.449 809.278 110.337 809.853 110.962C810.453 111.587 811.303 111.899 812.403 111.899C813.579 111.899 814.554 111.562 815.329 110.887L816.267 112.8C815.742 113.275 815.104 113.625 814.354 113.85C813.629 114.075 812.879 114.188 812.103 114.188ZM802.801 96.5208V94.3078H814.992V96.5208H802.801ZM831.167 94.1202C832.768 94.1202 834.168 94.4328 835.368 95.058C836.594 95.6581 837.544 96.5833 838.219 97.8336C838.919 99.0839 839.269 100.659 839.269 102.56V114H836.606V102.822C836.606 100.747 836.081 99.184 835.031 98.1337C834.005 97.0584 832.555 96.5208 830.68 96.5208C829.279 96.5208 828.054 96.8084 827.004 97.3835C825.979 97.9337 825.178 98.7463 824.603 99.8216C824.053 100.872 823.778 102.147 823.778 103.648V114H821.115V94.3078H823.665V99.7091L823.253 98.6963C823.878 97.271 824.878 96.1582 826.254 95.358C827.629 94.5328 829.267 94.1202 831.167 94.1202ZM846.246 121.464C845.321 121.464 844.434 121.314 843.583 121.014C842.758 120.714 842.045 120.264 841.445 119.664L842.683 117.676C843.183 118.151 843.721 118.514 844.296 118.764C844.896 119.039 845.559 119.176 846.284 119.176C847.159 119.176 847.909 118.926 848.535 118.426C849.185 117.951 849.797 117.101 850.372 115.875L851.648 112.987L851.948 112.575L860.05 94.3078H862.675L852.811 116.363C852.26 117.638 851.648 118.651 850.973 119.401C850.322 120.151 849.61 120.677 848.835 120.977C848.059 121.302 847.197 121.464 846.246 121.464ZM851.498 114.563L842.421 94.3078H845.196L853.223 112.387L851.498 114.563ZM878.18 114V109.649L878.068 108.936V101.66C878.068 99.9841 877.593 98.6963 876.643 97.7961C875.717 96.8959 874.33 96.4458 872.479 96.4458C871.204 96.4458 869.991 96.6583 868.841 97.0834C867.69 97.5085 866.715 98.0712 865.915 98.7714L864.715 96.7834C865.715 95.9332 866.915 95.283 868.316 94.8329C869.716 94.3578 871.191 94.1202 872.742 94.1202C875.292 94.1202 877.255 94.7579 878.631 96.0332C880.031 97.2835 880.731 99.1965 880.731 101.772V114H878.18ZM871.391 114.188C869.916 114.188 868.628 113.95 867.528 113.475C866.453 112.975 865.627 112.3 865.052 111.449C864.477 110.574 864.19 109.574 864.19 108.449C864.19 107.423 864.427 106.498 864.902 105.673C865.402 104.823 866.203 104.148 867.303 103.648C868.428 103.122 869.928 102.86 871.804 102.86H878.593V104.848H871.879C869.978 104.848 868.653 105.185 867.903 105.861C867.178 106.536 866.815 107.373 866.815 108.374C866.815 109.499 867.253 110.399 868.128 111.074C869.003 111.749 870.229 112.087 871.804 112.087C873.304 112.087 874.592 111.749 875.667 111.074C876.768 110.374 877.568 109.374 878.068 108.074L878.668 109.912C878.168 111.212 877.293 112.25 876.042 113.025C874.817 113.8 873.267 114.188 871.391 114.188ZM399.756 157V130.744H410.446C413.247 130.744 415.698 131.306 417.798 132.432C419.924 133.532 421.574 135.07 422.749 137.045C423.925 139.021 424.512 141.296 424.512 143.872C424.512 146.447 423.925 148.723 422.749 150.698C421.574 152.674 419.924 154.224 417.798 155.35C415.698 156.45 413.247 157 410.446 157H399.756ZM402.532 154.599H410.296C412.622 154.599 414.635 154.149 416.335 153.249C418.061 152.324 419.399 151.061 420.349 149.461C421.299 147.835 421.774 145.972 421.774 143.872C421.774 141.746 421.299 139.883 420.349 138.283C419.399 136.683 418.061 135.432 416.335 134.532C414.635 133.607 412.622 133.144 410.296 133.144H402.532V154.599ZM430.183 157V137.308H432.846V157H430.183ZM431.533 132.957C430.983 132.957 430.52 132.769 430.145 132.394C429.77 132.019 429.583 131.569 429.583 131.044C429.583 130.519 429.77 130.081 430.145 129.731C430.52 129.356 430.983 129.168 431.533 129.168C432.083 129.168 432.546 129.343 432.921 129.693C433.296 130.044 433.483 130.481 433.483 131.006C433.483 131.556 433.296 132.019 432.921 132.394C432.571 132.769 432.108 132.957 431.533 132.957ZM450.421 157.188C448.695 157.188 447.145 156.8 445.77 156.025C444.394 155.225 443.307 154.074 442.506 152.574C441.706 151.074 441.306 149.261 441.306 147.135C441.306 144.985 441.706 143.172 442.506 141.696C443.332 140.196 444.432 139.058 445.807 138.283C447.183 137.508 448.72 137.12 450.421 137.12C452.296 137.12 453.972 137.545 455.447 138.396C456.947 139.221 458.123 140.384 458.973 141.884C459.823 143.384 460.248 145.135 460.248 147.135C460.248 149.111 459.823 150.861 458.973 152.386C458.123 153.887 456.947 155.062 455.447 155.912C453.972 156.762 452.296 157.188 450.421 157.188ZM440.256 157V129.168H442.919V143.122L442.544 147.098L442.806 151.074V157H440.256ZM450.233 154.824C451.634 154.824 452.884 154.512 453.984 153.887C455.084 153.237 455.96 152.336 456.61 151.186C457.26 150.011 457.585 148.661 457.585 147.135C457.585 145.585 457.26 144.234 456.61 143.084C455.96 141.934 455.084 141.046 453.984 140.421C452.884 139.771 451.634 139.446 450.233 139.446C448.833 139.446 447.57 139.771 446.445 140.421C445.345 141.046 444.469 141.934 443.819 143.084C443.194 144.234 442.881 145.585 442.881 147.135C442.881 148.661 443.194 150.011 443.819 151.186C444.469 152.336 445.345 153.237 446.445 153.887C447.57 154.512 448.833 154.824 450.233 154.824ZM477.908 157V152.649L477.795 151.936V144.66C477.795 142.984 477.32 141.696 476.37 140.796C475.444 139.896 474.057 139.446 472.206 139.446C470.931 139.446 469.718 139.658 468.568 140.083C467.418 140.509 466.442 141.071 465.642 141.771L464.442 139.783C465.442 138.933 466.642 138.283 468.043 137.833C469.443 137.358 470.918 137.12 472.469 137.12C475.019 137.12 476.982 137.758 478.358 139.033C479.758 140.283 480.458 142.196 480.458 144.772V157H477.908ZM471.118 157.188C469.643 157.188 468.355 156.95 467.255 156.475C466.18 155.975 465.355 155.3 464.779 154.449C464.204 153.574 463.917 152.574 463.917 151.449C463.917 150.423 464.154 149.498 464.629 148.673C465.13 147.823 465.93 147.148 467.03 146.648C468.155 146.122 469.656 145.86 471.531 145.86H478.32V147.848H471.606C469.706 147.848 468.38 148.185 467.63 148.861C466.905 149.536 466.542 150.373 466.542 151.374C466.542 152.499 466.98 153.399 467.855 154.074C468.73 154.749 469.956 155.087 471.531 155.087C473.031 155.087 474.319 154.749 475.394 154.074C476.495 153.374 477.295 152.374 477.795 151.074L478.395 152.912C477.895 154.212 477.02 155.25 475.77 156.025C474.544 156.8 472.994 157.188 471.118 157.188ZM491.339 157L483.912 137.308H486.463L493.214 155.575H492.051L498.991 137.308H501.279L508.143 155.575H506.98L513.844 137.308H516.282L508.818 157H506.305L499.703 139.821H500.491L493.852 157H491.339ZM532.047 157V152.649L531.934 151.936V144.66C531.934 142.984 531.459 141.696 530.509 140.796C529.583 139.896 528.196 139.446 526.345 139.446C525.07 139.446 523.857 139.658 522.707 140.083C521.557 140.509 520.581 141.071 519.781 141.771L518.581 139.783C519.581 138.933 520.781 138.283 522.182 137.833C523.582 137.358 525.057 137.12 526.608 137.12C529.158 137.12 531.121 137.758 532.497 139.033C533.897 140.283 534.597 142.196 534.597 144.772V157H532.047ZM525.257 157.188C523.782 157.188 522.494 156.95 521.394 156.475C520.319 155.975 519.494 155.3 518.918 154.449C518.343 153.574 518.056 152.574 518.056 151.449C518.056 150.423 518.293 149.498 518.768 148.673C519.268 147.823 520.069 147.148 521.169 146.648C522.294 146.122 523.795 145.86 525.67 145.86H532.459V147.848H525.745C523.845 147.848 522.519 148.185 521.769 148.861C521.044 149.536 520.681 150.373 520.681 151.374C520.681 152.499 521.119 153.399 521.994 154.074C522.869 154.749 524.095 155.087 525.67 155.087C527.17 155.087 528.458 154.749 529.533 154.074C530.634 153.374 531.434 152.374 531.934 151.074L532.534 152.912C532.034 154.212 531.159 155.25 529.909 156.025C528.683 156.8 527.133 157.188 525.257 157.188ZM551.883 137.12C553.483 137.12 554.884 137.433 556.084 138.058C557.309 138.658 558.259 139.583 558.935 140.834C559.635 142.084 559.985 143.659 559.985 145.56V157H557.322V145.822C557.322 143.747 556.797 142.184 555.746 141.134C554.721 140.058 553.271 139.521 551.395 139.521C549.995 139.521 548.77 139.808 547.719 140.384C546.694 140.934 545.894 141.746 545.319 142.822C544.769 143.872 544.494 145.147 544.494 146.648V157H541.831V129.168H544.494V142.709L543.969 141.696C544.594 140.271 545.594 139.158 546.969 138.358C548.345 137.533 549.982 137.12 551.883 137.12ZM576.995 157V137.308H579.658V157H576.995ZM578.346 132.957C577.795 132.957 577.333 132.769 576.958 132.394C576.583 132.019 576.395 131.569 576.395 131.044C576.395 130.519 576.583 130.081 576.958 129.731C577.333 129.356 577.795 129.168 578.346 129.168C578.896 129.168 579.358 129.343 579.733 129.693C580.108 130.044 580.296 130.481 580.296 131.006C580.296 131.556 580.108 132.019 579.733 132.394C579.383 132.769 578.921 132.957 578.346 132.957ZM597.121 137.12C598.721 137.12 600.121 137.433 601.322 138.058C602.547 138.658 603.497 139.583 604.172 140.834C604.873 142.084 605.223 143.659 605.223 145.56V157H602.56V145.822C602.56 143.747 602.034 142.184 600.984 141.134C599.959 140.058 598.509 139.521 596.633 139.521C595.233 139.521 594.008 139.808 592.957 140.384C591.932 140.934 591.132 141.746 590.557 142.822C590.007 143.872 589.732 145.147 589.732 146.648V157H587.068V137.308H589.619V142.709L589.206 141.696C589.832 140.271 590.832 139.158 592.207 138.358C593.582 137.533 595.22 137.12 597.121 137.12ZM612.416 157V137.308H615.079V157H612.416ZM613.767 132.957C613.216 132.957 612.754 132.769 612.379 132.394C612.004 132.019 611.816 131.569 611.816 131.044C611.816 130.519 612.004 130.081 612.379 129.731C612.754 129.356 613.216 129.168 613.767 129.168C614.317 129.168 614.779 129.343 615.154 129.693C615.53 130.044 615.717 130.481 615.717 131.006C615.717 131.556 615.53 132.019 615.154 132.394C614.804 132.769 614.342 132.957 613.767 132.957ZM622.602 149.123L622.077 130.744H625.228L624.665 149.123H622.602ZM623.652 157.188C623.102 157.188 622.627 157 622.227 156.625C621.852 156.225 621.664 155.762 621.664 155.237C621.664 154.687 621.852 154.237 622.227 153.887C622.627 153.512 623.102 153.324 623.652 153.324C624.227 153.324 624.69 153.512 625.04 153.887C625.415 154.237 625.603 154.687 625.603 155.237C625.603 155.762 625.415 156.225 625.04 156.625C624.69 157 624.227 157.188 623.652 157.188Z" fill="white"/>
</svg>
