<svg width="1080" height="132" viewBox="0 0 1080 132" fill="none" xmlns="http://www.w3.org/2000/svg">
<rect width="1080" height="132" fill="#303030"/>
<path d="M47 101C47 65.6538 75.6538 37 111 37H969C1004.35 37 1033 65.6538 1033 101V132H47V101Z" fill="#F1F1F1"/>
<path d="M148.006 96.4501C145.905 96.4501 143.892 96.175 141.967 95.6249C140.041 95.0498 138.491 94.3121 137.316 93.4119L139.379 88.8358C140.504 89.636 141.829 90.2986 143.355 90.8238C144.905 91.3239 146.468 91.5739 148.043 91.5739C149.244 91.5739 150.206 91.4614 150.932 91.2364C151.682 90.9863 152.232 90.6487 152.582 90.2236C152.932 89.7985 153.107 89.3109 153.107 88.7608C153.107 88.0606 152.832 87.5105 152.282 87.1104C151.732 86.6853 151.007 86.3477 150.106 86.0976C149.206 85.8226 148.206 85.5725 147.106 85.3474C146.03 85.0974 144.943 84.7973 143.842 84.4472C142.767 84.0971 141.779 83.647 140.879 83.0969C139.979 82.5468 139.241 81.8216 138.666 80.9214C138.116 80.0212 137.841 78.8709 137.841 77.4706C137.841 75.9702 138.241 74.6074 139.041 73.3821C139.866 72.1318 141.092 71.144 142.717 70.4189C144.368 69.6687 146.431 69.2936 148.906 69.2936C150.557 69.2936 152.182 69.4937 153.782 69.8937C155.383 70.2688 156.796 70.844 158.021 71.6192L156.145 76.2328C154.92 75.5326 153.695 75.02 152.469 74.6949C151.244 74.3448 150.044 74.1698 148.869 74.1698C147.693 74.1698 146.731 74.3073 145.98 74.5824C145.23 74.8574 144.693 75.22 144.368 75.6701C144.042 76.0952 143.88 76.5954 143.88 77.1705C143.88 77.8457 144.155 78.3958 144.705 78.8209C145.255 79.221 145.98 79.5461 146.881 79.7961C147.781 80.0462 148.769 80.2962 149.844 80.5463C150.944 80.7964 152.032 81.0839 153.107 81.409C154.207 81.7341 155.208 82.1717 156.108 82.7218C157.008 83.272 157.733 83.9971 158.283 84.8973C158.859 85.7976 159.146 86.9353 159.146 88.3107C159.146 89.786 158.733 91.1363 157.908 92.3616C157.083 93.5869 155.845 94.5747 154.195 95.3248C152.569 96.075 150.507 96.4501 148.006 96.4501ZM162.886 96V75.8202H168.737V96H162.886ZM165.811 73.007C164.736 73.007 163.861 72.6944 163.186 72.0693C162.51 71.4441 162.173 70.6689 162.173 69.7437C162.173 68.8185 162.51 68.0433 163.186 67.4182C163.861 66.793 164.736 66.4804 165.811 66.4804C166.887 66.4804 167.762 66.7805 168.437 67.3806C169.112 67.9558 169.45 68.706 169.45 69.6312C169.45 70.6064 169.112 71.4191 168.437 72.0693C167.787 72.6944 166.912 73.007 165.811 73.007ZM200.011 75.5201C201.612 75.5201 203.024 75.8452 204.25 76.4953C205.5 77.1205 206.475 78.0957 207.175 79.421C207.901 80.7213 208.263 82.3967 208.263 84.4472V96H202.412V85.3474C202.412 83.7221 202.074 82.5218 201.399 81.7466C200.724 80.9714 199.774 80.5838 198.548 80.5838C197.698 80.5838 196.935 80.7839 196.26 81.184C195.585 81.559 195.06 82.1342 194.685 82.9094C194.31 83.6845 194.122 84.6723 194.122 85.8726V96H188.271V85.3474C188.271 83.7221 187.933 82.5218 187.258 81.7466C186.608 80.9714 185.67 80.5838 184.445 80.5838C183.595 80.5838 182.832 80.7839 182.157 81.184C181.482 81.559 180.957 82.1342 180.582 82.9094C180.206 83.6845 180.019 84.6723 180.019 85.8726V96H174.168V75.8202H179.756V81.334L178.706 79.7211C179.406 78.3458 180.394 77.308 181.669 76.6079C182.97 75.8827 184.445 75.5201 186.095 75.5201C187.946 75.5201 189.559 75.9952 190.934 76.9454C192.334 77.8707 193.26 79.296 193.71 81.2215L191.647 80.6588C192.322 79.0834 193.397 77.8331 194.873 76.9079C196.373 75.9827 198.086 75.5201 200.011 75.5201ZM225.886 96V92.0616L225.511 91.1988V84.1472C225.511 82.8969 225.123 81.9216 224.348 81.2215C223.598 80.5213 222.435 80.1712 220.86 80.1712C219.785 80.1712 218.722 80.3463 217.672 80.6963C216.646 81.0214 215.771 81.4715 215.046 82.0467L212.945 77.9582C214.046 77.183 215.371 76.5828 216.921 76.1577C218.472 75.7326 220.047 75.5201 221.647 75.5201C224.723 75.5201 227.111 76.2453 228.812 77.6956C230.512 79.146 231.362 81.409 231.362 84.4847V96H225.886ZM219.735 96.3001C218.159 96.3001 216.809 96.0375 215.684 95.5124C214.558 94.9623 213.696 94.2246 213.095 93.2994C212.495 92.3741 212.195 91.3364 212.195 90.1861C212.195 88.9858 212.483 87.9356 213.058 87.0354C213.658 86.1351 214.596 85.435 215.871 84.9348C217.146 84.4097 218.809 84.1472 220.86 84.1472H226.224V87.5605H221.497C220.122 87.5605 219.172 87.7855 218.647 88.2356C218.147 88.6857 217.897 89.2484 217.897 89.9235C217.897 90.6737 218.184 91.2739 218.759 91.724C219.359 92.1491 220.172 92.3616 221.197 92.3616C222.173 92.3616 223.048 92.1366 223.823 91.6865C224.598 91.2114 225.161 90.5237 225.511 89.6235L226.411 92.3241C225.986 93.6244 225.211 94.6122 224.086 95.2873C222.96 95.9625 221.51 96.3001 219.735 96.3001ZM241.497 91.874L241.647 84.7473L251.062 75.8202H258.038L248.999 85.0099L245.96 87.4855L241.497 91.874ZM236.658 96V68.1683H242.509V96H236.658ZM251.699 96L244.873 87.523L248.548 82.9844L258.788 96H251.699ZM272.455 96V69.7437H284.383C287.234 69.7437 289.747 70.2938 291.922 71.3941C294.098 72.4694 295.798 73.9822 297.024 75.9327C298.249 77.8832 298.861 80.1962 298.861 82.8719C298.861 85.5225 298.249 87.8355 297.024 89.811C295.798 91.7615 294.098 93.2869 291.922 94.3871C289.747 95.4624 287.234 96 284.383 96H272.455ZM278.532 91.0113H284.083C285.833 91.0113 287.346 90.6862 288.622 90.0361C289.922 89.3609 290.922 88.4107 291.622 87.1854C292.347 85.9601 292.71 84.5223 292.71 82.8719C292.71 81.1965 292.347 79.7586 291.622 78.5583C290.922 77.333 289.922 76.3953 288.622 75.7451C287.346 75.07 285.833 74.7324 284.083 74.7324H278.532V91.0113ZM313.046 96.3001C310.746 96.3001 308.72 95.85 306.97 94.9497C305.244 94.0495 303.907 92.8242 302.956 91.2739C302.006 89.6985 301.531 87.9106 301.531 85.9101C301.531 83.8846 301.994 82.0967 302.919 80.5463C303.869 78.9709 305.157 77.7456 306.782 76.8704C308.408 75.9702 310.246 75.5201 312.296 75.5201C314.272 75.5201 316.047 75.9452 317.622 76.7954C319.223 77.6206 320.486 78.8209 321.411 80.3963C322.336 81.9466 322.799 83.8096 322.799 85.9851C322.799 86.2102 322.786 86.4727 322.761 86.7728C322.736 87.0479 322.711 87.3104 322.686 87.5605H306.295V84.1472H319.61L317.36 85.1599C317.36 84.1097 317.147 83.1969 316.722 82.4217C316.297 81.6466 315.709 81.0464 314.959 80.6213C314.209 80.1712 313.334 79.9462 312.334 79.9462C311.333 79.9462 310.446 80.1712 309.671 80.6213C308.92 81.0464 308.333 81.6591 307.908 82.4593C307.482 83.2344 307.27 84.1597 307.27 85.2349V86.1351C307.27 87.2354 307.507 88.2106 307.983 89.0608C308.483 89.886 309.17 90.5237 310.046 90.9738C310.946 91.3989 311.996 91.6114 313.196 91.6114C314.272 91.6114 315.209 91.4489 316.01 91.1238C316.835 90.7988 317.585 90.3111 318.26 89.661L321.373 93.0368C320.448 94.087 319.285 94.8997 317.885 95.4749C316.485 96.025 314.872 96.3001 313.046 96.3001ZM334.946 96.3001C332.571 96.3001 330.72 95.6999 329.395 94.4996C328.07 93.2743 327.407 91.4614 327.407 89.0608V71.3566H333.258V88.9858C333.258 89.836 333.483 90.4987 333.934 90.9738C334.384 91.4239 334.996 91.649 335.771 91.649C336.697 91.649 337.484 91.3989 338.135 90.8988L339.71 95.0248C339.11 95.4499 338.385 95.7749 337.534 96C336.709 96.2 335.847 96.3001 334.946 96.3001ZM324.294 80.7714V76.2703H338.285V80.7714H324.294ZM342.995 96V75.8202H348.846V96H342.995ZM345.92 73.007C344.845 73.007 343.97 72.6944 343.295 72.0693C342.62 71.4441 342.282 70.6689 342.282 69.7437C342.282 68.8185 342.62 68.0433 343.295 67.4182C343.97 66.793 344.845 66.4804 345.92 66.4804C346.996 66.4804 347.871 66.7805 348.546 67.3806C349.221 67.9558 349.559 68.706 349.559 69.6312C349.559 70.6064 349.221 71.4191 348.546 72.0693C347.896 72.6944 347.021 73.007 345.92 73.007ZM354.277 96V68.1683H360.128V96H354.277ZM376.594 96V69.7437H382.67V91.0488H395.836V96H376.594ZM411.343 96V92.0616L410.968 91.1988V84.1472C410.968 82.8969 410.58 81.9216 409.805 81.2215C409.055 80.5213 407.892 80.1712 406.317 80.1712C405.242 80.1712 404.179 80.3463 403.129 80.6963C402.103 81.0214 401.228 81.4715 400.503 82.0467L398.402 77.9582C399.503 77.183 400.828 76.5828 402.378 76.1577C403.929 75.7326 405.504 75.5201 407.104 75.5201C410.18 75.5201 412.568 76.2453 414.269 77.6956C415.969 79.146 416.819 81.409 416.819 84.4847V96H411.343ZM405.192 96.3001C403.616 96.3001 402.266 96.0375 401.141 95.5124C400.015 94.9623 399.153 94.2246 398.552 93.2994C397.952 92.3741 397.652 91.3364 397.652 90.1861C397.652 88.9858 397.94 87.9356 398.515 87.0354C399.115 86.1351 400.053 85.435 401.328 84.9348C402.603 84.4097 404.266 84.1472 406.317 84.1472H411.681V87.5605H406.954C405.579 87.5605 404.629 87.7855 404.104 88.2356C403.604 88.6857 403.354 89.2484 403.354 89.9235C403.354 90.6737 403.641 91.2739 404.216 91.724C404.816 92.1491 405.629 92.3616 406.654 92.3616C407.63 92.3616 408.505 92.1366 409.28 91.6865C410.055 91.2114 410.618 90.5237 410.968 89.6235L411.868 92.3241C411.443 93.6244 410.668 94.6122 409.543 95.2873C408.417 95.9625 406.967 96.3001 405.192 96.3001ZM424.299 103.577C423.249 103.577 422.211 103.414 421.186 103.089C420.161 102.764 419.323 102.314 418.673 101.739L420.811 97.5754C421.261 97.9755 421.774 98.288 422.349 98.5131C422.949 98.7382 423.537 98.8507 424.112 98.8507C424.937 98.8507 425.587 98.6506 426.062 98.2505C426.562 97.8754 427.013 97.2378 427.413 96.3376L428.463 93.862L428.913 93.2243L436.152 75.8202H441.779L432.664 97.2378C432.014 98.8632 431.264 100.138 430.413 101.064C429.588 101.989 428.663 102.639 427.638 103.014C426.637 103.389 425.525 103.577 424.299 103.577ZM427.75 96.7877L418.748 75.8202H424.787L431.764 92.6992L427.75 96.7877ZM455.885 96V92.0616L455.51 91.1988V84.1472C455.51 82.8969 455.122 81.9216 454.347 81.2215C453.597 80.5213 452.434 80.1712 450.859 80.1712C449.783 80.1712 448.721 80.3463 447.67 80.6963C446.645 81.0214 445.77 81.4715 445.045 82.0467L442.944 77.9582C444.045 77.183 445.37 76.5828 446.92 76.1577C448.471 75.7326 450.046 75.5201 451.646 75.5201C454.722 75.5201 457.11 76.2453 458.811 77.6956C460.511 79.146 461.361 81.409 461.361 84.4847V96H455.885ZM449.733 96.3001C448.158 96.3001 446.808 96.0375 445.682 95.5124C444.557 94.9623 443.694 94.2246 443.094 93.2994C442.494 92.3741 442.194 91.3364 442.194 90.1861C442.194 88.9858 442.482 87.9356 443.057 87.0354C443.657 86.1351 444.595 85.435 445.87 84.9348C447.145 84.4097 448.808 84.1472 450.859 84.1472H456.222V87.5605H451.496C450.121 87.5605 449.171 87.7855 448.646 88.2356C448.146 88.6857 447.896 89.2484 447.896 89.9235C447.896 90.6737 448.183 91.2739 448.758 91.724C449.358 92.1491 450.171 92.3616 451.196 92.3616C452.172 92.3616 453.047 92.1366 453.822 91.6865C454.597 91.2114 455.16 90.5237 455.51 89.6235L456.41 92.3241C455.985 93.6244 455.21 94.6122 454.084 95.2873C452.959 95.9625 451.509 96.3001 449.733 96.3001ZM478.922 75.5201C480.523 75.5201 481.948 75.8452 483.198 76.4953C484.474 77.1205 485.474 78.0957 486.199 79.421C486.924 80.7213 487.287 82.3967 487.287 84.4472V96H481.436V85.3474C481.436 83.7221 481.073 82.5218 480.348 81.7466C479.648 80.9714 478.647 80.5838 477.347 80.5838C476.422 80.5838 475.584 80.7839 474.834 81.184C474.109 81.559 473.534 82.1467 473.109 82.9469C472.708 83.7471 472.508 84.7723 472.508 86.0226V96H466.657V75.8202H472.246V81.409L471.196 79.7211C471.921 78.3708 472.959 77.333 474.309 76.6079C475.659 75.8827 477.197 75.5201 478.922 75.5201ZM504.969 96V92.0616L504.594 91.1988V84.1472C504.594 82.8969 504.206 81.9216 503.431 81.2215C502.681 80.5213 501.518 80.1712 499.943 80.1712C498.867 80.1712 497.805 80.3463 496.754 80.6963C495.729 81.0214 494.854 81.4715 494.129 82.0467L492.028 77.9582C493.129 77.183 494.454 76.5828 496.004 76.1577C497.555 75.7326 499.13 75.5201 500.73 75.5201C503.806 75.5201 506.194 76.2453 507.895 77.6956C509.595 79.146 510.445 81.409 510.445 84.4847V96H504.969ZM498.817 96.3001C497.242 96.3001 495.892 96.0375 494.766 95.5124C493.641 94.9623 492.779 94.2246 492.178 93.2994C491.578 92.3741 491.278 91.3364 491.278 90.1861C491.278 88.9858 491.566 87.9356 492.141 87.0354C492.741 86.1351 493.679 85.435 494.954 84.9348C496.229 84.4097 497.892 84.1472 499.943 84.1472H505.307V87.5605H500.58C499.205 87.5605 498.255 87.7855 497.73 88.2356C497.23 88.6857 496.98 89.2484 496.98 89.9235C496.98 90.6737 497.267 91.2739 497.842 91.724C498.442 92.1491 499.255 92.3616 500.28 92.3616C501.256 92.3616 502.131 92.1366 502.906 91.6865C503.681 91.2114 504.244 90.5237 504.594 89.6235L505.494 92.3241C505.069 93.6244 504.294 94.6122 503.169 95.2873C502.043 95.9625 500.593 96.3001 498.817 96.3001ZM528.006 75.5201C529.607 75.5201 531.032 75.8452 532.283 76.4953C533.558 77.1205 534.558 78.0957 535.283 79.421C536.008 80.7213 536.371 82.3967 536.371 84.4472V96H530.52V85.3474C530.52 83.7221 530.157 82.5218 529.432 81.7466C528.732 80.9714 527.731 80.5838 526.431 80.5838C525.506 80.5838 524.668 80.7839 523.918 81.184C523.193 81.559 522.618 82.1467 522.193 82.9469C521.793 83.7471 521.592 84.7723 521.592 86.0226V96H515.741V75.8202H521.33V81.409L520.28 79.7211C521.005 78.3708 522.043 77.333 523.393 76.6079C524.743 75.8827 526.281 75.5201 528.006 75.5201ZM553.94 75.5201C555.541 75.5201 556.966 75.8452 558.216 76.4953C559.492 77.1205 560.492 78.0957 561.217 79.421C561.942 80.7213 562.305 82.3967 562.305 84.4472V96H556.454V85.3474C556.454 83.7221 556.091 82.5218 555.366 81.7466C554.666 80.9714 553.665 80.5838 552.365 80.5838C551.44 80.5838 550.602 80.7839 549.852 81.184C549.127 81.559 548.552 82.1467 548.127 82.9469C547.726 83.7471 547.526 84.7723 547.526 86.0226V96H541.675V75.8202H547.264V81.409L546.214 79.7211C546.939 78.3708 547.977 77.333 549.327 76.6079C550.677 75.8827 552.215 75.5201 553.94 75.5201ZM569.793 103.577C568.743 103.577 567.705 103.414 566.68 103.089C565.655 102.764 564.817 102.314 564.167 101.739L566.305 97.5754C566.755 97.9755 567.268 98.288 567.843 98.5131C568.443 98.7382 569.031 98.8507 569.606 98.8507C570.431 98.8507 571.081 98.6506 571.556 98.2505C572.056 97.8754 572.506 97.2378 572.906 96.3376L573.957 93.862L574.407 93.2243L581.646 75.8202H587.272L578.158 97.2378C577.508 98.8632 576.757 100.138 575.907 101.064C575.082 101.989 574.157 102.639 573.132 103.014C572.131 103.389 571.019 103.577 569.793 103.577ZM573.244 96.7877L564.242 75.8202H570.281L577.258 92.6992L573.244 96.7877ZM601.379 96V92.0616L601.004 91.1988V84.1472C601.004 82.8969 600.616 81.9216 599.841 81.2215C599.091 80.5213 597.928 80.1712 596.353 80.1712C595.277 80.1712 594.215 80.3463 593.164 80.6963C592.139 81.0214 591.264 81.4715 590.539 82.0467L588.438 77.9582C589.538 77.183 590.864 76.5828 592.414 76.1577C593.964 75.7326 595.54 75.5201 597.14 75.5201C600.216 75.5201 602.604 76.2453 604.304 77.6956C606.005 79.146 606.855 81.409 606.855 84.4847V96H601.379ZM595.227 96.3001C593.652 96.3001 592.302 96.0375 591.176 95.5124C590.051 94.9623 589.188 94.2246 588.588 93.2994C587.988 92.3741 587.688 91.3364 587.688 90.1861C587.688 88.9858 587.976 87.9356 588.551 87.0354C589.151 86.1351 590.089 85.435 591.364 84.9348C592.639 84.4097 594.302 84.1472 596.353 84.1472H601.716V87.5605H596.99C595.615 87.5605 594.665 87.7855 594.14 88.2356C593.639 88.6857 593.389 89.2484 593.389 89.9235C593.389 90.6737 593.677 91.2739 594.252 91.724C594.852 92.1491 595.665 92.3616 596.69 92.3616C597.665 92.3616 598.541 92.1366 599.316 91.6865C600.091 91.2114 600.654 90.5237 601.004 89.6235L601.904 92.3241C601.479 93.6244 600.704 94.6122 599.578 95.2873C598.453 95.9625 597.003 96.3001 595.227 96.3001ZM631.813 96.4501C629.713 96.4501 627.7 96.175 625.774 95.6249C623.849 95.0498 622.298 94.3121 621.123 93.4119L623.186 88.8358C624.311 89.636 625.637 90.2986 627.162 90.8238C628.712 91.3239 630.275 91.5739 631.851 91.5739C633.051 91.5739 634.014 91.4614 634.739 91.2364C635.489 90.9863 636.039 90.6487 636.389 90.2236C636.739 89.7985 636.914 89.3109 636.914 88.7608C636.914 88.0606 636.639 87.5105 636.089 87.1104C635.539 86.6853 634.814 86.3477 633.914 86.0976C633.013 85.8226 632.013 85.5725 630.913 85.3474C629.838 85.0974 628.75 84.7973 627.65 84.4472C626.574 84.0971 625.587 83.647 624.686 83.0969C623.786 82.5468 623.049 81.8216 622.473 80.9214C621.923 80.0212 621.648 78.8709 621.648 77.4706C621.648 75.9702 622.048 74.6074 622.849 73.3821C623.674 72.1318 624.899 71.144 626.524 70.4189C628.175 69.6687 630.238 69.2936 632.713 69.2936C634.364 69.2936 635.989 69.4937 637.59 69.8937C639.19 70.2688 640.603 70.844 641.828 71.6192L639.953 76.2328C638.727 75.5326 637.502 75.02 636.277 74.6949C635.051 74.3448 633.851 74.1698 632.676 74.1698C631.501 74.1698 630.538 74.3073 629.788 74.5824C629.038 74.8574 628.5 75.22 628.175 75.6701C627.85 76.0952 627.687 76.5954 627.687 77.1705C627.687 77.8457 627.962 78.3958 628.512 78.8209C629.063 79.221 629.788 79.5461 630.688 79.7961C631.588 80.0462 632.576 80.2962 633.651 80.5463C634.751 80.7964 635.839 81.0839 636.914 81.409C638.015 81.7341 639.015 82.1717 639.915 82.7218C640.815 83.272 641.541 83.9971 642.091 84.8973C642.666 85.7976 642.953 86.9353 642.953 88.3107C642.953 89.786 642.541 91.1363 641.716 92.3616C640.89 93.5869 639.653 94.5747 638.002 95.3248C636.377 96.075 634.314 96.4501 631.813 96.4501ZM656.708 96.3001C654.407 96.3001 652.382 95.85 650.631 94.9497C648.906 94.0495 647.568 92.8242 646.618 91.2739C645.668 89.6985 645.192 87.9106 645.192 85.9101C645.192 83.8846 645.655 82.0967 646.58 80.5463C647.531 78.9709 648.818 77.7456 650.444 76.8704C652.069 75.9702 653.907 75.5201 655.958 75.5201C657.933 75.5201 659.708 75.9452 661.284 76.7954C662.884 77.6206 664.147 78.8209 665.072 80.3963C665.997 81.9466 666.46 83.8096 666.46 85.9851C666.46 86.2102 666.448 86.4727 666.423 86.7728C666.398 87.0479 666.373 87.3104 666.348 87.5605H649.956V84.1472H663.272L661.021 85.1599C661.021 84.1097 660.809 83.1969 660.384 82.4217C659.959 81.6466 659.371 81.0464 658.621 80.6213C657.871 80.1712 656.995 79.9462 655.995 79.9462C654.995 79.9462 654.107 80.1712 653.332 80.6213C652.582 81.0464 651.994 81.6591 651.569 82.4593C651.144 83.2344 650.931 84.1597 650.931 85.2349V86.1351C650.931 87.2354 651.169 88.2106 651.644 89.0608C652.144 89.886 652.832 90.5237 653.707 90.9738C654.607 91.3989 655.657 91.6114 656.858 91.6114C657.933 91.6114 658.871 91.4489 659.671 91.1238C660.496 90.7988 661.246 90.3111 661.921 89.661L665.035 93.0368C664.11 94.087 662.947 94.8997 661.546 95.4749C660.146 96.025 658.533 96.3001 656.708 96.3001ZM682.284 96.3001C680.508 96.3001 678.983 95.925 677.707 95.1748C676.432 94.4246 675.457 93.2869 674.782 91.7615C674.107 90.2111 673.769 88.2606 673.769 85.9101C673.769 83.5345 674.119 81.584 674.819 80.0587C675.544 78.5333 676.545 77.3955 677.82 76.6454C679.095 75.8952 680.583 75.5201 682.284 75.5201C684.184 75.5201 685.884 75.9452 687.385 76.7954C688.91 77.6456 690.11 78.8459 690.986 80.3963C691.886 81.9466 692.336 83.7846 692.336 85.9101C692.336 88.0106 691.886 89.836 690.986 91.3864C690.11 92.9368 688.91 94.1496 687.385 95.0248C685.884 95.875 684.184 96.3001 682.284 96.3001ZM670.356 96V68.1683H676.207V79.9086L675.832 85.8726L675.945 91.874V96H670.356ZM681.271 91.4989C682.246 91.4989 683.109 91.2739 683.859 90.8238C684.634 90.3737 685.247 89.736 685.697 88.9108C686.172 88.0606 686.41 87.0604 686.41 85.9101C686.41 84.7348 686.172 83.7346 685.697 82.9094C685.247 82.0842 684.634 81.4465 683.859 80.9964C683.109 80.5463 682.246 80.3212 681.271 80.3212C680.296 80.3212 679.42 80.5463 678.645 80.9964C677.87 81.4465 677.257 82.0842 676.807 82.9094C676.357 83.7346 676.132 84.7348 676.132 85.9101C676.132 87.0604 676.357 88.0606 676.807 88.9108C677.257 89.736 677.87 90.3737 678.645 90.8238C679.42 91.2739 680.296 91.4989 681.271 91.4989ZM708.301 96V92.0616L707.926 91.1988V84.1472C707.926 82.8969 707.539 81.9216 706.764 81.2215C706.013 80.5213 704.851 80.1712 703.275 80.1712C702.2 80.1712 701.137 80.3463 700.087 80.6963C699.062 81.0214 698.186 81.4715 697.461 82.0467L695.361 77.9582C696.461 77.183 697.786 76.5828 699.337 76.1577C700.887 75.7326 702.462 75.5201 704.063 75.5201C707.139 75.5201 709.527 76.2453 711.227 77.6956C712.927 79.146 713.778 81.409 713.778 84.4847V96H708.301ZM702.15 96.3001C700.575 96.3001 699.224 96.0375 698.099 95.5124C696.974 94.9623 696.111 94.2246 695.511 93.2994C694.911 92.3741 694.611 91.3364 694.611 90.1861C694.611 88.9858 694.898 87.9356 695.473 87.0354C696.073 86.1351 697.011 85.435 698.286 84.9348C699.562 84.4097 701.225 84.1472 703.275 84.1472H708.639V87.5605H703.913C702.538 87.5605 701.587 87.7855 701.062 88.2356C700.562 88.6857 700.312 89.2484 700.312 89.9235C700.312 90.6737 700.6 91.2739 701.175 91.724C701.775 92.1491 702.588 92.3616 703.613 92.3616C704.588 92.3616 705.463 92.1366 706.238 91.6865C707.014 91.2114 707.576 90.5237 707.926 89.6235L708.827 92.3241C708.401 93.6244 707.626 94.6122 706.501 95.2873C705.376 95.9625 703.925 96.3001 702.15 96.3001ZM728.71 103.577C726.809 103.577 724.971 103.339 723.196 102.864C721.445 102.414 719.983 101.726 718.807 100.801L721.133 96.6001C721.983 97.3003 723.058 97.8504 724.359 98.2505C725.684 98.6756 726.984 98.8882 728.26 98.8882C730.335 98.8882 731.835 98.4256 732.761 97.5004C733.711 96.5751 734.186 95.1998 734.186 93.3744V90.3361L734.561 85.2724L734.486 80.1712V75.8202H740.037V92.6242C740.037 96.3751 739.062 99.1383 737.112 100.914C735.161 102.689 732.361 103.577 728.71 103.577ZM727.809 95.0248C725.934 95.0248 724.234 94.6247 722.708 93.8245C721.208 92.9993 719.995 91.8615 719.07 90.4112C718.17 88.9358 717.72 87.2229 717.72 85.2724C717.72 83.297 718.17 81.584 719.07 80.1337C719.995 78.6583 721.208 77.5206 722.708 76.7204C724.234 75.9202 725.934 75.5201 727.809 75.5201C729.51 75.5201 731.01 75.8702 732.311 76.5703C733.611 77.2455 734.624 78.3083 735.349 79.7586C736.074 81.184 736.437 83.0219 736.437 85.2724C736.437 87.498 736.074 89.3359 735.349 90.7863C734.624 92.2116 733.611 93.2743 732.311 93.9745C731.01 94.6747 729.51 95.0248 727.809 95.0248ZM728.972 90.2236C729.998 90.2236 730.91 90.0236 731.71 89.6235C732.511 89.1984 733.136 88.6107 733.586 87.8606C734.036 87.1104 734.261 86.2477 734.261 85.2724C734.261 84.2722 734.036 83.4095 733.586 82.6843C733.136 81.9341 732.511 81.359 731.71 80.9589C730.91 80.5338 729.998 80.3212 728.972 80.3212C727.947 80.3212 727.034 80.5338 726.234 80.9589C725.434 81.359 724.796 81.9341 724.321 82.6843C723.871 83.4095 723.646 84.2722 723.646 85.2724C723.646 86.2477 723.871 87.1104 724.321 87.8606C724.796 88.6107 725.434 89.1984 726.234 89.6235C727.034 90.0236 727.947 90.2236 728.972 90.2236ZM757.862 96V92.0616L757.486 91.1988V84.1472C757.486 82.8969 757.099 81.9216 756.324 81.2215C755.574 80.5213 754.411 80.1712 752.835 80.1712C751.76 80.1712 750.697 80.3463 749.647 80.6963C748.622 81.0214 747.747 81.4715 747.021 82.0467L744.921 77.9582C746.021 77.183 747.347 76.5828 748.897 76.1577C750.447 75.7326 752.023 75.5201 753.623 75.5201C756.699 75.5201 759.087 76.2453 760.787 77.6956C762.488 79.146 763.338 81.409 763.338 84.4847V96H757.862ZM751.71 96.3001C750.135 96.3001 748.784 96.0375 747.659 95.5124C746.534 94.9623 745.671 94.2246 745.071 93.2994C744.471 92.3741 744.171 91.3364 744.171 90.1861C744.171 88.9858 744.458 87.9356 745.033 87.0354C745.634 86.1351 746.571 85.435 747.847 84.9348C749.122 84.4097 750.785 84.1472 752.835 84.1472H758.199V87.5605H753.473C752.098 87.5605 751.147 87.7855 750.622 88.2356C750.122 88.6857 749.872 89.2484 749.872 89.9235C749.872 90.6737 750.16 91.2739 750.735 91.724C751.335 92.1491 752.148 92.3616 753.173 92.3616C754.148 92.3616 755.023 92.1366 755.799 91.6865C756.574 91.2114 757.136 90.5237 757.486 89.6235L758.387 92.3241C757.962 93.6244 757.186 94.6122 756.061 95.2873C754.936 95.9625 753.486 96.3001 751.71 96.3001ZM768.634 96V75.8202H774.485V96H768.634ZM771.559 73.007C770.484 73.007 769.609 72.6944 768.934 72.0693C768.259 71.4441 767.921 70.6689 767.921 69.7437C767.921 68.8185 768.259 68.0433 768.934 67.4182C769.609 66.793 770.484 66.4804 771.559 66.4804C772.635 66.4804 773.51 66.7805 774.185 67.3806C774.86 67.9558 775.198 68.706 775.198 69.6312C775.198 70.6064 774.86 71.4191 774.185 72.0693C773.535 72.6944 772.66 73.007 771.559 73.007ZM790.951 96V69.7437H803.779C807.08 69.7437 809.555 70.3689 811.206 71.6192C812.881 72.8695 813.719 74.5199 813.719 76.5703C813.719 77.9457 813.381 79.146 812.706 80.1712C812.031 81.1714 811.106 81.9466 809.93 82.4968C808.755 83.0469 807.405 83.322 805.879 83.322L806.592 81.7841C808.243 81.7841 809.705 82.0592 810.981 82.6093C812.256 83.1344 813.244 83.9221 813.944 84.9724C814.669 86.0226 815.032 87.3104 815.032 88.8358C815.032 91.0863 814.144 92.8492 812.369 94.1246C810.593 95.3749 807.98 96 804.529 96H790.951ZM796.99 91.4239H804.079C805.654 91.4239 806.842 91.1738 807.642 90.6737C808.468 90.1486 808.88 89.3234 808.88 88.1981C808.88 87.0979 808.468 86.2852 807.642 85.76C806.842 85.2099 805.654 84.9348 804.079 84.9348H796.54V80.5088H803.029C804.504 80.5088 805.629 80.2587 806.405 79.7586C807.205 79.2335 807.605 78.4458 807.605 77.3955C807.605 76.3703 807.205 75.6076 806.405 75.1075C805.629 74.5824 804.504 74.3198 803.029 74.3198H796.99V91.4239ZM829.234 96.3001C826.934 96.3001 824.908 95.85 823.158 94.9497C821.432 94.0495 820.095 92.8242 819.144 91.2739C818.194 89.6985 817.719 87.9106 817.719 85.9101C817.719 83.8846 818.182 82.0967 819.107 80.5463C820.057 78.9709 821.345 77.7456 822.97 76.8704C824.596 75.9702 826.434 75.5201 828.484 75.5201C830.46 75.5201 832.235 75.9452 833.81 76.7954C835.411 77.6206 836.674 78.8209 837.599 80.3963C838.524 81.9466 838.987 83.8096 838.987 85.9851C838.987 86.2102 838.974 86.4727 838.949 86.7728C838.924 87.0479 838.899 87.3104 838.874 87.5605H822.483V84.1472H835.798L833.548 85.1599C833.548 84.1097 833.335 83.1969 832.91 82.4217C832.485 81.6466 831.897 81.0464 831.147 80.6213C830.397 80.1712 829.522 79.9462 828.522 79.9462C827.521 79.9462 826.634 80.1712 825.859 80.6213C825.108 81.0464 824.521 81.6591 824.096 82.4593C823.671 83.2344 823.458 84.1597 823.458 85.2349V86.1351C823.458 87.2354 823.696 88.2106 824.171 89.0608C824.671 89.886 825.358 90.5237 826.234 90.9738C827.134 91.3989 828.184 91.6114 829.384 91.6114C830.46 91.6114 831.397 91.4489 832.198 91.1238C833.023 90.7988 833.773 90.3111 834.448 89.661L837.561 93.0368C836.636 94.087 835.473 94.8997 834.073 95.4749C832.673 96.025 831.06 96.3001 829.234 96.3001ZM842.882 96V75.8202H848.471V81.5215L847.684 79.8711C848.284 78.4458 849.246 77.3705 850.572 76.6454C851.897 75.8952 853.51 75.5201 855.41 75.5201V80.9214C855.16 80.8964 854.935 80.8839 854.735 80.8839C854.535 80.8589 854.323 80.8464 854.098 80.8464C852.497 80.8464 851.197 81.309 850.197 82.2342C849.221 83.1344 848.734 84.5473 848.734 86.4727V96H842.882ZM858.89 96V75.8202H864.741V96H858.89ZM861.815 73.007C860.74 73.007 859.865 72.6944 859.19 72.0693C858.515 71.4441 858.177 70.6689 858.177 69.7437C858.177 68.8185 858.515 68.0433 859.19 67.4182C859.865 66.793 860.74 66.4804 861.815 66.4804C862.891 66.4804 863.766 66.7805 864.441 67.3806C865.116 67.9558 865.454 68.706 865.454 69.6312C865.454 70.6064 865.116 71.4191 864.441 72.0693C863.791 72.6944 862.916 73.007 861.815 73.007ZM875.01 91.874L875.16 84.7473L884.575 75.8202H891.552L882.512 85.0099L879.474 87.4855L875.01 91.874ZM870.172 96V68.1683H876.023V96H870.172ZM885.213 96L878.386 87.523L882.062 82.9844L892.302 96H885.213ZM903.082 96.3001C901.406 96.3001 899.906 95.975 898.581 95.3248C897.28 94.6747 896.268 93.6869 895.542 92.3616C894.817 91.0113 894.455 89.2984 894.455 87.2229V75.8202H900.306V86.3602C900.306 88.0356 900.656 89.2734 901.356 90.0736C902.081 90.8488 903.094 91.2364 904.394 91.2364C905.295 91.2364 906.095 91.0488 906.795 90.6737C907.495 90.2736 908.045 89.6735 908.445 88.8733C908.846 88.0481 909.046 87.0228 909.046 85.7976V75.8202H914.897V96H909.346V90.4487L910.358 92.0616C909.683 93.4619 908.683 94.5246 907.358 95.2498C906.057 95.95 904.632 96.3001 903.082 96.3001ZM928.57 96.3001C926.194 96.3001 924.344 95.6999 923.019 94.4996C921.693 93.2743 921.031 91.4614 921.031 89.0608V71.3566H926.882V88.9858C926.882 89.836 927.107 90.4987 927.557 90.9738C928.007 91.4239 928.62 91.649 929.395 91.649C930.32 91.649 931.108 91.3989 931.758 90.8988L933.334 95.0248C932.733 95.4499 932.008 95.7749 931.158 96C930.333 96.2 929.47 96.3001 928.57 96.3001ZM917.917 80.7714V76.2703H931.908V80.7714H917.917ZM938.831 82.8343C937.831 82.8343 936.968 82.4968 936.243 81.8216C935.543 81.1214 935.193 80.2337 935.193 79.1585C935.193 78.0832 935.543 77.2205 936.243 76.5703C936.968 75.8952 937.831 75.5576 938.831 75.5576C939.857 75.5576 940.719 75.8952 941.419 76.5703C942.12 77.2205 942.47 78.0832 942.47 79.1585C942.47 80.2337 942.12 81.1214 941.419 81.8216C940.719 82.4968 939.857 82.8343 938.831 82.8343ZM938.831 96.3001C937.831 96.3001 936.968 95.9625 936.243 95.2873C935.543 94.5872 935.193 93.6994 935.193 92.6242C935.193 91.5489 935.543 90.6862 936.243 90.0361C936.968 89.3609 937.831 89.0233 938.831 89.0233C939.857 89.0233 940.719 89.3609 941.419 90.0361C942.12 90.6862 942.47 91.5489 942.47 92.6242C942.47 93.6994 942.12 94.5872 941.419 95.2873C940.719 95.9625 939.857 96.3001 938.831 96.3001Z" fill="#303030"/>
</svg>
