<svg width="1080" height="158" viewBox="0 0 1080 158" fill="none" xmlns="http://www.w3.org/2000/svg">
<rect width="1080" height="158" fill="#303030"/>
<path d="M288.333 71.2251C286.383 71.2251 284.507 70.9125 282.707 70.2873C280.931 69.6372 279.556 68.812 278.581 67.8117L279.669 65.6737C280.594 66.5739 281.832 67.3366 283.382 67.9618C284.957 68.5619 286.608 68.862 288.333 68.862C289.984 68.862 291.321 68.6619 292.347 68.2618C293.397 67.8367 294.16 67.2741 294.635 66.5739C295.135 65.8738 295.385 65.0986 295.385 64.2484C295.385 63.2231 295.085 62.3979 294.485 61.7728C293.91 61.1476 293.147 60.66 292.197 60.3099C291.246 59.9348 290.196 59.6098 289.046 59.3347C287.896 59.0596 286.745 58.7721 285.595 58.472C284.445 58.1469 283.382 57.7218 282.407 57.1967C281.457 56.6716 280.681 55.9839 280.081 55.1337C279.506 54.2585 279.219 53.1207 279.219 51.7204C279.219 50.4201 279.556 49.2323 280.231 48.157C280.931 47.0568 281.994 46.1816 283.42 45.5314C284.845 44.8562 286.67 44.5187 288.896 44.5187C290.371 44.5187 291.834 44.7312 293.284 45.1563C294.735 45.5564 295.985 46.119 297.035 46.8442L296.098 49.0572C294.972 48.3071 293.772 47.7569 292.497 47.4068C291.246 47.0568 290.034 46.8817 288.858 46.8817C287.283 46.8817 285.983 47.0943 284.957 47.5194C283.932 47.9445 283.169 48.5196 282.669 49.2448C282.194 49.945 281.957 50.7451 281.957 51.6454C281.957 52.6706 282.244 53.4958 282.819 54.121C283.42 54.7461 284.195 55.2337 285.145 55.5838C286.12 55.9339 287.183 56.2465 288.333 56.5215C289.483 56.7966 290.621 57.0967 291.747 57.4217C292.897 57.7468 293.947 58.1719 294.897 58.6971C295.872 59.1972 296.648 59.8723 297.223 60.7225C297.823 61.5727 298.123 62.6855 298.123 64.0608C298.123 65.3361 297.773 66.5239 297.073 67.6242C296.373 68.6994 295.297 69.5747 293.847 70.2498C292.422 70.9 290.584 71.2251 288.333 71.2251ZM303.608 71V51.3078H306.271V71H303.608ZM304.958 46.9567C304.408 46.9567 303.946 46.7692 303.571 46.3941C303.196 46.019 303.008 45.5689 303.008 45.0438C303.008 44.5187 303.196 44.0811 303.571 43.731C303.946 43.3559 304.408 43.1683 304.958 43.1683C305.509 43.1683 305.971 43.3434 306.346 43.6935C306.721 44.0435 306.909 44.4811 306.909 45.0063C306.909 45.5564 306.721 46.019 306.346 46.3941C305.996 46.7692 305.534 46.9567 304.958 46.9567ZM338.287 51.1202C339.888 51.1202 341.275 51.4328 342.451 52.058C343.651 52.6581 344.576 53.5833 345.226 54.8336C345.902 56.0839 346.239 57.6593 346.239 59.5598V71H343.576V59.8223C343.576 57.7468 343.076 56.184 342.076 55.1337C341.1 54.0584 339.713 53.5208 337.912 53.5208C336.562 53.5208 335.387 53.8084 334.386 54.3835C333.411 54.9337 332.648 55.7463 332.098 56.8216C331.573 57.8719 331.311 59.1472 331.311 60.6475V71H328.647V59.8223C328.647 57.7468 328.147 56.184 327.147 55.1337C326.147 54.0584 324.746 53.5208 322.946 53.5208C321.621 53.5208 320.458 53.8084 319.458 54.3835C318.457 54.9337 317.682 55.7463 317.132 56.8216C316.607 57.8719 316.344 59.1472 316.344 60.6475V71H313.681V51.3078H316.232V56.6341L315.819 55.6963C316.42 54.271 317.382 53.1582 318.708 52.358C320.058 51.5328 321.646 51.1202 323.471 51.1202C325.397 51.1202 327.035 51.6079 328.385 52.5831C329.735 53.5333 330.61 54.9712 331.01 56.8966L329.96 56.484C330.535 54.8836 331.548 53.5958 332.998 52.6206C334.474 51.6204 336.237 51.1202 338.287 51.1202ZM365.802 71V66.649L365.689 65.9363V58.6595C365.689 56.9841 365.214 55.6963 364.264 54.7961C363.339 53.8959 361.951 53.4458 360.1 53.4458C358.825 53.4458 357.612 53.6583 356.462 54.0834C355.312 54.5085 354.337 55.0712 353.536 55.7714L352.336 53.7834C353.336 52.9332 354.537 52.283 355.937 51.8329C357.337 51.3578 358.813 51.1202 360.363 51.1202C362.914 51.1202 364.877 51.7579 366.252 53.0332C367.652 54.2835 368.352 56.1965 368.352 58.7721V71H365.802ZM359.013 71.1875C357.537 71.1875 356.25 70.95 355.149 70.4749C354.074 69.9748 353.249 69.2996 352.674 68.4494C352.099 67.5742 351.811 66.5739 351.811 65.4487C351.811 64.4234 352.049 63.4982 352.524 62.673C353.024 61.8228 353.824 61.1476 354.924 60.6475C356.05 60.1224 357.55 59.8598 359.425 59.8598H366.214V61.8478H359.5C357.6 61.8478 356.275 62.1854 355.524 62.8606C354.799 63.5357 354.437 64.3734 354.437 65.3737C354.437 66.4989 354.874 67.3991 355.749 68.0743C356.625 68.7495 357.85 69.087 359.425 69.087C360.926 69.087 362.213 68.7495 363.289 68.0743C364.389 67.3741 365.189 66.3739 365.689 65.0736L366.289 66.9115C365.789 68.2118 364.914 69.2496 363.664 70.0248C362.439 70.8 360.888 71.1875 359.013 71.1875ZM377.686 65.8988L377.761 62.4855L390.027 51.3078H393.29L384.625 59.5973L383.125 60.8726L377.686 65.8988ZM375.586 71V43.1683H378.249V71H375.586ZM390.852 71L382.638 60.76L384.363 58.6971L394.115 71H390.852ZM408.493 71V44.7437H419.183C421.983 44.7437 424.434 45.3063 426.534 46.4316C428.66 47.5319 430.31 49.0697 431.486 51.0452C432.661 53.0207 433.249 55.2962 433.249 57.8719C433.249 60.4475 432.661 62.723 431.486 64.6985C430.31 66.674 428.66 68.2243 426.534 69.3496C424.434 70.4499 421.983 71 419.183 71H408.493ZM411.268 68.5994H419.033C421.358 68.5994 423.371 68.1493 425.072 67.2491C426.797 66.3239 428.135 65.0611 429.085 63.4607C430.035 61.8353 430.51 59.9724 430.51 57.8719C430.51 55.7463 430.035 53.8834 429.085 52.283C428.135 50.6826 426.797 49.4323 425.072 48.5321C423.371 47.6069 421.358 47.1443 419.033 47.1443H411.268V68.5994ZM447.283 71.1875C445.233 71.1875 443.432 70.7624 441.882 69.9122C440.332 69.037 439.119 67.8492 438.244 66.3489C437.368 64.8235 436.931 63.0856 436.931 61.1351C436.931 59.1847 437.343 57.4593 438.169 55.9589C439.019 54.4585 440.169 53.2833 441.62 52.4331C443.095 51.5578 444.745 51.1202 446.571 51.1202C448.421 51.1202 450.059 51.5453 451.484 52.3955C452.935 53.2207 454.072 54.396 454.898 55.9214C455.723 57.4217 456.135 59.1597 456.135 61.1351C456.135 61.2602 456.123 61.3977 456.098 61.5477C456.098 61.6728 456.098 61.8103 456.098 61.9603H438.956V59.9724H454.673L453.622 60.76C453.622 59.3347 453.31 58.0719 452.685 56.9716C452.085 55.8464 451.259 54.9712 450.209 54.346C449.159 53.7209 447.946 53.4083 446.571 53.4083C445.22 53.4083 444.008 53.7209 442.932 54.346C441.857 54.9712 441.019 55.8464 440.419 56.9716C439.819 58.0969 439.519 59.3847 439.519 60.8351V61.2477C439.519 62.748 439.844 64.0733 440.494 65.2236C441.169 66.3489 442.095 67.2366 443.27 67.8868C444.47 68.5119 445.833 68.8245 447.358 68.8245C448.559 68.8245 449.671 68.6119 450.697 68.1868C451.747 67.7617 452.647 67.1116 453.397 66.2364L454.898 67.9618C454.022 69.012 452.922 69.8122 451.597 70.3623C450.297 70.9125 448.859 71.1875 447.283 71.1875ZM467.783 71.1875C465.932 71.1875 464.507 70.6874 463.507 69.6872C462.506 68.6869 462.006 67.2741 462.006 65.4487V46.9567H464.669V65.2986C464.669 66.4489 464.957 67.3366 465.532 67.9618C466.132 68.5869 466.982 68.8995 468.083 68.8995C469.258 68.8995 470.233 68.5619 471.008 67.8868L471.946 69.7997C471.421 70.2748 470.783 70.6249 470.033 70.85C469.308 71.075 468.558 71.1875 467.783 71.1875ZM458.48 53.5208V51.3078H470.671V53.5208H458.48ZM476.794 71V51.3078H479.457V71H476.794ZM478.144 46.9567C477.594 46.9567 477.132 46.7692 476.757 46.3941C476.382 46.019 476.194 45.5689 476.194 45.0438C476.194 44.5187 476.382 44.0811 476.757 43.731C477.132 43.3559 477.594 43.1683 478.144 43.1683C478.695 43.1683 479.157 43.3434 479.532 43.6935C479.907 44.0435 480.095 44.4811 480.095 45.0063C480.095 45.5564 479.907 46.019 479.532 46.3941C479.182 46.7692 478.72 46.9567 478.144 46.9567ZM486.867 71V43.1683H489.531V71H486.867ZM507.32 71V44.7437H517.147C519.373 44.7437 521.286 45.1063 522.886 45.8315C524.487 46.5316 525.712 47.5569 526.562 48.9072C527.437 50.2325 527.875 51.8454 527.875 53.7459C527.875 55.5963 527.437 57.1967 526.562 58.547C525.712 59.8723 524.487 60.8976 522.886 61.6228C521.286 62.3479 519.373 62.7105 517.147 62.7105H508.858L510.096 61.3977V71H507.32ZM510.096 61.6228L508.858 60.2724H517.072C519.698 60.2724 521.686 59.7098 523.036 58.5845C524.412 57.4343 525.099 55.8214 525.099 53.7459C525.099 51.6454 524.412 50.02 523.036 48.8697C521.686 47.7194 519.698 47.1443 517.072 47.1443H508.858L510.096 45.8315V61.6228ZM541.569 71.1875C539.518 71.1875 537.718 70.7624 536.167 69.9122C534.617 69.037 533.404 67.8492 532.529 66.3489C531.654 64.8235 531.216 63.0856 531.216 61.1351C531.216 59.1847 531.629 57.4593 532.454 55.9589C533.304 54.4585 534.454 53.2833 535.905 52.4331C537.38 51.5578 539.031 51.1202 540.856 51.1202C542.706 51.1202 544.344 51.5453 545.77 52.3955C547.22 53.2207 548.358 54.396 549.183 55.9214C550.008 57.4217 550.421 59.1597 550.421 61.1351C550.421 61.2602 550.408 61.3977 550.383 61.5477C550.383 61.6728 550.383 61.8103 550.383 61.9603H533.242V59.9724H548.958L547.908 60.76C547.908 59.3347 547.595 58.0719 546.97 56.9716C546.37 55.8464 545.545 54.9712 544.494 54.346C543.444 53.7209 542.231 53.4083 540.856 53.4083C539.506 53.4083 538.293 53.7209 537.218 54.346C536.142 54.9712 535.305 55.8464 534.705 56.9716C534.104 58.0969 533.804 59.3847 533.804 60.8351V61.2477C533.804 62.748 534.129 64.0733 534.78 65.2236C535.455 66.3489 536.38 67.2366 537.555 67.8868C538.755 68.5119 540.118 68.8245 541.644 68.8245C542.844 68.8245 543.957 68.6119 544.982 68.1868C546.032 67.7617 546.932 67.1116 547.683 66.2364L549.183 67.9618C548.308 69.012 547.207 69.8122 545.882 70.3623C544.582 70.9125 543.144 71.1875 541.569 71.1875ZM580.447 51.1202C582.048 51.1202 583.436 51.4328 584.611 52.058C585.811 52.6581 586.736 53.5833 587.386 54.8336C588.062 56.0839 588.399 57.6593 588.399 59.5598V71H585.736V59.8223C585.736 57.7468 585.236 56.184 584.236 55.1337C583.26 54.0584 581.873 53.5208 580.072 53.5208C578.722 53.5208 577.547 53.8084 576.546 54.3835C575.571 54.9337 574.808 55.7463 574.258 56.8216C573.733 57.8719 573.471 59.1472 573.471 60.6475V71H570.807V59.8223C570.807 57.7468 570.307 56.184 569.307 55.1337C568.307 54.0584 566.907 53.5208 565.106 53.5208C563.781 53.5208 562.618 53.8084 561.618 54.3835C560.618 54.9337 559.842 55.7463 559.292 56.8216C558.767 57.8719 558.505 59.1472 558.505 60.6475V71H555.841V51.3078H558.392V56.6341L557.979 55.6963C558.58 54.271 559.542 53.1582 560.868 52.358C562.218 51.5328 563.806 51.1202 565.631 51.1202C567.557 51.1202 569.195 51.6079 570.545 52.5831C571.895 53.5333 572.77 54.9712 573.171 56.8966L572.12 56.484C572.695 54.8836 573.708 53.5958 575.159 52.6206C576.634 51.6204 578.397 51.1202 580.447 51.1202ZM603.986 71.1875C601.935 71.1875 600.135 70.7624 598.585 69.9122C597.034 69.037 595.821 67.8492 594.946 66.3489C594.071 64.8235 593.633 63.0856 593.633 61.1351C593.633 59.1847 594.046 57.4593 594.871 55.9589C595.721 54.4585 596.872 53.2833 598.322 52.4331C599.797 51.5578 601.448 51.1202 603.273 51.1202C605.124 51.1202 606.762 51.5453 608.187 52.3955C609.637 53.2207 610.775 54.396 611.6 55.9214C612.425 57.4217 612.838 59.1597 612.838 61.1351C612.838 61.2602 612.826 61.3977 612.801 61.5477C612.801 61.6728 612.801 61.8103 612.801 61.9603H595.659V59.9724H611.375L610.325 60.76C610.325 59.3347 610.012 58.0719 609.387 56.9716C608.787 55.8464 607.962 54.9712 606.912 54.346C605.861 53.7209 604.649 53.4083 603.273 53.4083C601.923 53.4083 600.71 53.7209 599.635 54.346C598.56 54.9712 597.722 55.8464 597.122 56.9716C596.522 58.0969 596.222 59.3847 596.222 60.8351V61.2477C596.222 62.748 596.547 64.0733 597.197 65.2236C597.872 66.3489 598.797 67.2366 599.972 67.8868C601.173 68.5119 602.536 68.8245 604.061 68.8245C605.261 68.8245 606.374 68.6119 607.399 68.1868C608.45 67.7617 609.35 67.1116 610.1 66.2364L611.6 67.9618C610.725 69.012 609.625 69.8122 608.299 70.3623C606.999 70.9125 605.561 71.1875 603.986 71.1875ZM623.547 71.1875C621.922 71.1875 620.384 70.9625 618.934 70.5124C617.484 70.0373 616.346 69.4496 615.521 68.7495L616.721 66.649C617.521 67.2491 618.546 67.7742 619.797 68.2243C621.047 68.6494 622.36 68.862 623.735 68.862C625.61 68.862 626.961 68.5744 627.786 67.9993C628.611 67.3991 629.024 66.6114 629.024 65.6362C629.024 64.911 628.786 64.3484 628.311 63.9483C627.861 63.5232 627.261 63.2106 626.511 63.0106C625.761 62.7855 624.923 62.598 623.998 62.448C623.072 62.2979 622.147 62.1229 621.222 61.9228C620.322 61.7228 619.497 61.4352 618.746 61.0601C617.996 60.66 617.383 60.1224 616.908 59.4472C616.458 58.7721 616.233 57.8719 616.233 56.7466C616.233 55.6713 616.533 54.7086 617.133 53.8584C617.734 53.0082 618.609 52.3455 619.759 51.8704C620.934 51.3703 622.36 51.1202 624.035 51.1202C625.31 51.1202 626.586 51.2953 627.861 51.6454C629.136 51.9704 630.187 52.408 631.012 52.9582L629.849 55.0962C628.974 54.496 628.036 54.0709 627.036 53.8209C626.036 53.5458 625.035 53.4083 624.035 53.4083C622.26 53.4083 620.947 53.7209 620.097 54.346C619.271 54.9462 618.859 55.7213 618.859 56.6716C618.859 57.4217 619.084 58.0094 619.534 58.4345C620.009 58.8596 620.622 59.1972 621.372 59.4472C622.147 59.6723 622.985 59.8598 623.885 60.0099C624.81 60.1599 625.723 60.3474 626.623 60.5725C627.548 60.7725 628.386 61.0601 629.136 61.4352C629.911 61.7853 630.524 62.2979 630.974 62.9731C631.449 63.6232 631.687 64.4859 631.687 65.5612C631.687 66.7115 631.362 67.7117 630.712 68.5619C630.087 69.3871 629.161 70.0373 627.936 70.5124C626.736 70.9625 625.273 71.1875 623.547 71.1875ZM648.914 71V66.649L648.802 65.9363V58.6595C648.802 56.9841 648.326 55.6963 647.376 54.7961C646.451 53.8959 645.063 53.4458 643.213 53.4458C641.937 53.4458 640.725 53.6583 639.574 54.0834C638.424 54.5085 637.449 55.0712 636.649 55.7714L635.448 53.7834C636.449 52.9332 637.649 52.283 639.049 51.8329C640.45 51.3578 641.925 51.1202 643.475 51.1202C646.026 51.1202 647.989 51.7579 649.364 53.0332C650.765 54.2835 651.465 56.1965 651.465 58.7721V71H648.914ZM642.125 71.1875C640.65 71.1875 639.362 70.95 638.262 70.4749C637.186 69.9748 636.361 69.2996 635.786 68.4494C635.211 67.5742 634.923 66.5739 634.923 65.4487C634.923 64.4234 635.161 63.4982 635.636 62.673C636.136 61.8228 636.936 61.1476 638.036 60.6475C639.162 60.1224 640.662 59.8598 642.538 59.8598H649.327V61.8478H642.613C640.712 61.8478 639.387 62.1854 638.637 62.8606C637.911 63.5357 637.549 64.3734 637.549 65.3737C637.549 66.4989 637.986 67.3991 638.862 68.0743C639.737 68.7495 640.962 69.087 642.538 69.087C644.038 69.087 645.326 68.7495 646.401 68.0743C647.501 67.3741 648.301 66.3739 648.802 65.0736L649.402 66.9115C648.902 68.2118 648.026 69.2496 646.776 70.0248C645.551 70.8 644 71.1875 642.125 71.1875ZM668.75 51.1202C670.351 51.1202 671.751 51.4328 672.951 52.058C674.177 52.6581 675.127 53.5833 675.802 54.8336C676.502 56.0839 676.852 57.6593 676.852 59.5598V71H674.189V59.8223C674.189 57.7468 673.664 56.184 672.614 55.1337C671.589 54.0584 670.138 53.5208 668.263 53.5208C666.863 53.5208 665.637 53.8084 664.587 54.3835C663.562 54.9337 662.762 55.7463 662.186 56.8216C661.636 57.8719 661.361 59.1472 661.361 60.6475V71H658.698V51.3078H661.249V56.7091L660.836 55.6963C661.461 54.271 662.461 53.1582 663.837 52.358C665.212 51.5328 666.85 51.1202 668.75 51.1202ZM694.098 51.1202C695.699 51.1202 697.099 51.4328 698.299 52.058C699.525 52.6581 700.475 53.5833 701.15 54.8336C701.85 56.0839 702.2 57.6593 702.2 59.5598V71H699.537V59.8223C699.537 57.7468 699.012 56.184 697.962 55.1337C696.936 54.0584 695.486 53.5208 693.611 53.5208C692.21 53.5208 690.985 53.8084 689.935 54.3835C688.91 54.9337 688.109 55.7463 687.534 56.8216C686.984 57.8719 686.709 59.1472 686.709 60.6475V71H684.046V51.3078H686.597V56.7091L686.184 55.6963C686.809 54.271 687.809 53.1582 689.185 52.358C690.56 51.5328 692.198 51.1202 694.098 51.1202ZM709.178 78.4643C708.252 78.4643 707.365 78.3143 706.514 78.0142C705.689 77.7141 704.977 77.264 704.376 76.6639L705.614 74.6759C706.114 75.151 706.652 75.5136 707.227 75.7636C707.827 76.0387 708.49 76.1762 709.215 76.1762C710.09 76.1762 710.84 75.9262 711.466 75.4261C712.116 74.9509 712.728 74.1007 713.304 72.8754L714.579 69.9873L714.879 69.5747L722.981 51.3078H725.606L715.742 73.3631C715.191 74.6384 714.579 75.6511 713.904 76.4013C713.253 77.1515 712.541 77.6766 711.766 77.9767C710.99 78.3017 710.128 78.4643 709.178 78.4643ZM714.429 71.5626L705.352 51.3078H708.127L716.154 69.3871L714.429 71.5626ZM741.111 71V66.649L740.999 65.9363V58.6595C740.999 56.9841 740.524 55.6963 739.574 54.7961C738.648 53.8959 737.261 53.4458 735.41 53.4458C734.135 53.4458 732.922 53.6583 731.772 54.0834C730.621 54.5085 729.646 55.0712 728.846 55.7714L727.646 53.7834C728.646 52.9332 729.846 52.283 731.247 51.8329C732.647 51.3578 734.122 51.1202 735.673 51.1202C738.223 51.1202 740.186 51.7579 741.562 53.0332C742.962 54.2835 743.662 56.1965 743.662 58.7721V71H741.111ZM734.322 71.1875C732.847 71.1875 731.559 70.95 730.459 70.4749C729.384 69.9748 728.558 69.2996 727.983 68.4494C727.408 67.5742 727.121 66.5739 727.121 65.4487C727.121 64.4234 727.358 63.4982 727.833 62.673C728.333 61.8228 729.134 61.1476 730.234 60.6475C731.359 60.1224 732.859 59.8598 734.735 59.8598H741.524V61.8478H734.81C732.909 61.8478 731.584 62.1854 730.834 62.8606C730.109 63.5357 729.746 64.3734 729.746 65.3737C729.746 66.4989 730.184 67.3991 731.059 68.0743C731.934 68.7495 733.16 69.087 734.735 69.087C736.235 69.087 737.523 68.7495 738.598 68.0743C739.699 67.3741 740.499 66.3739 740.999 65.0736L741.599 66.9115C741.099 68.2118 740.224 69.2496 738.973 70.0248C737.748 70.8 736.198 71.1875 734.322 71.1875ZM399.134 114V87.7437H409.824C412.624 87.7437 415.075 88.3063 417.176 89.4316C419.301 90.5319 420.951 92.0697 422.127 94.0452C423.302 96.0207 423.89 98.2962 423.89 100.872C423.89 103.447 423.302 105.723 422.127 107.698C420.951 109.674 419.301 111.224 417.176 112.35C415.075 113.45 412.624 114 409.824 114H399.134ZM401.909 111.599H409.674C411.999 111.599 414.012 111.149 415.713 110.249C417.438 109.324 418.776 108.061 419.726 106.461C420.676 104.835 421.151 102.972 421.151 100.872C421.151 98.7463 420.676 96.8834 419.726 95.283C418.776 93.6826 417.438 92.4323 415.713 91.5321C414.012 90.6069 411.999 90.1443 409.674 90.1443H401.909V111.599ZM429.56 114V94.3078H432.223V114H429.56ZM430.91 89.9567C430.36 89.9567 429.898 89.7692 429.522 89.3941C429.147 89.019 428.96 88.5689 428.96 88.0438C428.96 87.5187 429.147 87.0811 429.522 86.731C429.898 86.3559 430.36 86.1683 430.91 86.1683C431.46 86.1683 431.923 86.3434 432.298 86.6935C432.673 87.0435 432.861 87.4811 432.861 88.0063C432.861 88.5564 432.673 89.019 432.298 89.3941C431.948 89.7692 431.485 89.9567 430.91 89.9567ZM449.798 114.188C448.073 114.188 446.522 113.8 445.147 113.025C443.772 112.225 442.684 111.074 441.884 109.574C441.084 108.074 440.683 106.261 440.683 104.135C440.683 101.985 441.084 100.172 441.884 98.6963C442.709 97.196 443.809 96.0582 445.184 95.283C446.56 94.5078 448.098 94.1202 449.798 94.1202C451.674 94.1202 453.349 94.5453 454.824 95.3955C456.325 96.2207 457.5 97.3835 458.35 98.8839C459.2 100.384 459.625 102.135 459.625 104.135C459.625 106.111 459.2 107.861 458.35 109.386C457.5 110.887 456.325 112.062 454.824 112.912C453.349 113.762 451.674 114.188 449.798 114.188ZM439.633 114V86.1683H442.296V100.122L441.921 104.098L442.184 108.074V114H439.633ZM449.611 111.824C451.011 111.824 452.261 111.512 453.361 110.887C454.462 110.237 455.337 109.336 455.987 108.186C456.637 107.011 456.962 105.661 456.962 104.135C456.962 102.585 456.637 101.234 455.987 100.084C455.337 98.9339 454.462 98.0462 453.361 97.421C452.261 96.7709 451.011 96.4458 449.611 96.4458C448.21 96.4458 446.947 96.7709 445.822 97.421C444.722 98.0462 443.847 98.9339 443.197 100.084C442.571 101.234 442.259 102.585 442.259 104.135C442.259 105.661 442.571 107.011 443.197 108.186C443.847 109.336 444.722 110.237 445.822 110.887C446.947 111.512 448.21 111.824 449.611 111.824ZM477.285 114V109.649L477.172 108.936V101.66C477.172 99.9841 476.697 98.6963 475.747 97.7961C474.822 96.8959 473.434 96.4458 471.583 96.4458C470.308 96.4458 469.095 96.6583 467.945 97.0834C466.795 97.5085 465.82 98.0712 465.019 98.7714L463.819 96.7834C464.819 95.9332 466.02 95.283 467.42 94.8329C468.82 94.3578 470.296 94.1202 471.846 94.1202C474.397 94.1202 476.36 94.7579 477.735 96.0332C479.135 97.2835 479.835 99.1965 479.835 101.772V114H477.285ZM470.496 114.188C469.02 114.188 467.733 113.95 466.632 113.475C465.557 112.975 464.732 112.3 464.157 111.449C463.582 110.574 463.294 109.574 463.294 108.449C463.294 107.423 463.532 106.498 464.007 105.673C464.507 104.823 465.307 104.148 466.407 103.648C467.533 103.122 469.033 102.86 470.908 102.86H477.697V104.848H470.983C469.083 104.848 467.758 105.185 467.007 105.861C466.282 106.536 465.92 107.373 465.92 108.374C465.92 109.499 466.357 110.399 467.232 111.074C468.108 111.749 469.333 112.087 470.908 112.087C472.409 112.087 473.697 111.749 474.772 111.074C475.872 110.374 476.672 109.374 477.172 108.074L477.772 109.912C477.272 111.212 476.397 112.25 475.147 113.025C473.922 113.8 472.371 114.188 470.496 114.188ZM490.716 114L483.289 94.3078H485.84L492.591 112.575H491.429L498.368 94.3078H500.656L507.52 112.575H506.357L513.221 94.3078H515.659L508.195 114H505.682L499.08 96.8209H499.868L493.229 114H490.716ZM531.424 114V109.649L531.311 108.936V101.66C531.311 99.9841 530.836 98.6963 529.886 97.7961C528.961 96.8959 527.573 96.4458 525.722 96.4458C524.447 96.4458 523.234 96.6583 522.084 97.0834C520.934 97.5085 519.959 98.0712 519.158 98.7714L517.958 96.7834C518.958 95.9332 520.159 95.283 521.559 94.8329C522.959 94.3578 524.435 94.1202 525.985 94.1202C528.536 94.1202 530.499 94.7579 531.874 96.0332C533.274 97.2835 533.974 99.1965 533.974 101.772V114H531.424ZM524.635 114.188C523.159 114.188 521.872 113.95 520.771 113.475C519.696 112.975 518.871 112.3 518.296 111.449C517.721 110.574 517.433 109.574 517.433 108.449C517.433 107.423 517.671 106.498 518.146 105.673C518.646 104.823 519.446 104.148 520.546 103.648C521.671 103.122 523.172 102.86 525.047 102.86H531.836V104.848H525.122C523.222 104.848 521.897 105.185 521.146 105.861C520.421 106.536 520.059 107.373 520.059 108.374C520.059 109.499 520.496 110.399 521.371 111.074C522.247 111.749 523.472 112.087 525.047 112.087C526.548 112.087 527.835 111.749 528.911 111.074C530.011 110.374 530.811 109.374 531.311 108.074L531.911 109.912C531.411 111.212 530.536 112.25 529.286 113.025C528.061 113.8 526.51 114.188 524.635 114.188ZM551.26 94.1202C552.861 94.1202 554.261 94.4328 555.461 95.058C556.686 95.6581 557.637 96.5833 558.312 97.8336C559.012 99.0839 559.362 100.659 559.362 102.56V114H556.699V102.822C556.699 100.747 556.174 99.184 555.124 98.1337C554.098 97.0584 552.648 96.5208 550.773 96.5208C549.372 96.5208 548.147 96.8084 547.097 97.3835C546.071 97.9337 545.271 98.7463 544.696 99.8216C544.146 100.872 543.871 102.147 543.871 103.648V114H541.208V86.1683H543.871V99.7091L543.346 98.6963C543.971 97.271 544.971 96.1582 546.347 95.358C547.722 94.5328 549.36 94.1202 551.26 94.1202ZM576.935 114V87.7437H579.711V114H576.935ZM597.743 94.1202C599.344 94.1202 600.744 94.4328 601.944 95.058C603.17 95.6581 604.12 96.5833 604.795 97.8336C605.495 99.0839 605.845 100.659 605.845 102.56V114H603.182V102.822C603.182 100.747 602.657 99.184 601.607 98.1337C600.582 97.0584 599.131 96.5208 597.256 96.5208C595.856 96.5208 594.63 96.8084 593.58 97.3835C592.555 97.9337 591.755 98.7463 591.179 99.8216C590.629 100.872 590.354 102.147 590.354 103.648V114H587.691V94.3078H590.242V99.7091L589.829 98.6963C590.454 97.271 591.454 96.1582 592.83 95.358C594.205 94.5328 595.843 94.1202 597.743 94.1202ZM613.039 114V94.3078H615.702V114H613.039ZM614.389 89.9567C613.839 89.9567 613.377 89.7692 613.001 89.3941C612.626 89.019 612.439 88.5689 612.439 88.0438C612.439 87.5187 612.626 87.0811 613.001 86.731C613.377 86.3559 613.839 86.1683 614.389 86.1683C614.939 86.1683 615.402 86.3434 615.777 86.6935C616.152 87.0435 616.34 87.4811 616.34 88.0063C616.34 88.5564 616.152 89.019 615.777 89.3941C615.427 89.7692 614.964 89.9567 614.389 89.9567ZM623.225 106.123L622.7 87.7437H625.85L625.288 106.123H623.225ZM624.275 114.188C623.725 114.188 623.25 114 622.85 113.625C622.475 113.225 622.287 112.762 622.287 112.237C622.287 111.687 622.475 111.237 622.85 110.887C623.25 110.512 623.725 110.324 624.275 110.324C624.85 110.324 625.313 110.512 625.663 110.887C626.038 111.237 626.225 111.687 626.225 112.237C626.225 112.762 626.038 113.225 625.663 113.625C625.313 114 624.85 114.188 624.275 114.188Z" fill="white"/>
</svg>
