<svg width="1080" height="256" viewBox="0 0 1080 256" fill="none" xmlns="http://www.w3.org/2000/svg">
<rect width="1080" height="256" fill="#212121"/>
<path d="M82.9271 192.908L82.7077 188.48L88.7121 182.036H93.0607L87.0763 188.52L84.882 190.814L82.9271 192.908ZM79.3964 196V182.036H83.3062V196H79.3964ZM88.7719 196L84.2238 190.235L86.797 187.482L93.3599 196H88.7719ZM96.3963 196V182.036H100.346V192.868H107.009V196H96.3963ZM110.572 196V182.036H114.521V196H110.572ZM122.862 192.908L122.643 188.48L128.647 182.036H132.996L127.011 188.52L124.817 190.814L122.862 192.908ZM119.331 196V182.036H123.241V196H119.331ZM128.707 196L124.159 190.235L126.732 187.482L133.295 196H128.707ZM150.58 196.279C148.518 196.279 146.909 195.714 145.752 194.584C144.595 193.453 144.017 191.851 144.017 189.776V182.036H147.966V189.657C147.966 190.853 148.199 191.711 148.665 192.23C149.143 192.748 149.795 193.008 150.619 193.008C151.444 193.008 152.089 192.748 152.554 192.23C153.02 191.711 153.253 190.853 153.253 189.657V182.036H157.142V189.776C157.142 191.851 156.564 193.453 155.407 194.584C154.25 195.714 152.641 196.279 150.58 196.279ZM161.818 196V182.036H165.07L172.77 191.332H171.234V182.036H175.103V196H171.852L164.152 186.704H165.688V196H161.818ZM182.862 196V185.168H178.573V182.036H191.08V185.168H186.811V196H182.862ZM200.781 196.279C198.719 196.279 197.11 195.714 195.953 194.584C194.796 193.453 194.218 191.851 194.218 189.776V182.036H198.167V189.657C198.167 190.853 198.4 191.711 198.866 192.23C199.344 192.748 199.996 193.008 200.821 193.008C201.645 193.008 202.29 192.748 202.755 192.23C203.221 191.711 203.454 190.853 203.454 189.657V182.036H207.344V189.776C207.344 191.851 206.765 193.453 205.608 194.584C204.451 195.714 202.842 196.279 200.781 196.279ZM215.55 192.908L215.331 188.48L221.335 182.036H225.684L219.699 188.52L217.505 190.814L215.55 192.908ZM212.019 196V182.036H215.929V196H212.019ZM221.395 196L216.847 190.235L219.42 187.482L225.983 196H221.395ZM236.824 196V182.036H240.774V192.868H247.437V196H236.824ZM254.63 187.442H261.113V190.395H254.63V187.442ZM254.909 192.948H262.21V196H251V182.036H261.951V185.088H254.909V192.948ZM266.402 196V182.036H273.543C275.379 182.036 276.748 182.376 277.653 183.054C278.557 183.719 279.009 184.596 279.009 185.687C279.009 186.405 278.816 187.037 278.431 187.582C278.058 188.114 277.526 188.539 276.835 188.859C276.157 189.165 275.345 189.317 274.401 189.317L274.8 188.36C275.784 188.36 276.642 188.513 277.373 188.819C278.105 189.111 278.67 189.544 279.069 190.115C279.481 190.674 279.687 191.359 279.687 192.17C279.687 193.38 279.195 194.324 278.211 195.003C277.24 195.668 275.817 196 273.942 196H266.402ZM270.312 193.147H273.623C274.301 193.147 274.813 193.034 275.159 192.808C275.518 192.569 275.698 192.21 275.698 191.731C275.698 191.252 275.518 190.9 275.159 190.674C274.813 190.435 274.301 190.315 273.623 190.315H270.033V187.582H273.025C273.69 187.582 274.188 187.469 274.521 187.243C274.853 187.017 275.02 186.678 275.02 186.226C275.02 185.773 274.853 185.441 274.521 185.228C274.188 185.002 273.69 184.889 273.025 184.889H270.312V193.147ZM283.733 196V182.036H287.683V196H283.733ZM301.829 182.036H305.778V196H301.829V182.036ZM296.443 196H292.493V182.036H296.443V196ZM302.108 190.554H296.163V187.283H302.108V190.554ZM318.369 196V182.036H322.319V192.868H328.982V196H318.369ZM331.005 196L337.169 182.036H341.059L347.243 196H343.134L338.306 183.971H339.862L335.035 196H331.005ZM334.377 193.287L335.394 190.375H342.216L343.233 193.287H334.377ZM350.363 196V182.036H353.614L361.314 191.332H359.778V182.036H363.648V196H360.397L352.697 186.704H354.233V196H350.363ZM371.486 196.279C370.462 196.279 369.531 196.106 368.693 195.761C367.869 195.402 367.184 194.89 366.639 194.225L368.793 191.671C369.166 192.15 369.551 192.516 369.95 192.768C370.349 193.008 370.768 193.127 371.207 193.127C372.377 193.127 372.962 192.449 372.962 191.093V185.088H368.135V182.036H376.872V190.853C376.872 192.675 376.413 194.038 375.496 194.943C374.578 195.834 373.242 196.279 371.486 196.279ZM387.981 196.279C385.92 196.279 384.311 195.714 383.154 194.584C381.997 193.453 381.418 191.851 381.418 189.776V182.036H385.368V189.657C385.368 190.853 385.601 191.711 386.066 192.23C386.545 192.748 387.196 193.008 388.021 193.008C388.846 193.008 389.491 192.748 389.956 192.23C390.421 191.711 390.654 190.853 390.654 189.657V182.036H394.544V189.776C394.544 191.851 393.966 193.453 392.809 194.584C391.652 195.714 390.042 196.279 387.981 196.279ZM401.978 196V185.168H397.689V182.036H410.196V185.168H405.927V196H401.978Z" fill="white"/>
<path d="M79.7369 112V64.4925H100.233C105.527 64.4925 109.621 65.5558 112.517 67.6823C115.458 69.8088 116.928 72.8177 116.928 76.7087C116.928 79.2877 116.318 81.4595 115.096 83.224C113.92 84.9886 112.291 86.3233 110.21 87.2283C108.174 88.1332 105.934 88.5856 103.491 88.5856L104.644 86.9568C107.676 86.9568 110.277 87.4319 112.449 88.382C114.666 89.2869 116.386 90.6669 117.607 92.5219C118.829 94.3317 119.44 96.594 119.44 99.3087C119.44 103.336 117.947 106.457 114.96 108.674C112.019 110.891 107.563 112 101.59 112H79.7369ZM84.7591 107.86H101.522C105.685 107.86 108.875 107.159 111.092 105.756C113.309 104.308 114.417 102.023 114.417 98.9015C114.417 95.8248 113.309 93.5852 111.092 92.1826C108.875 90.7348 105.685 90.0108 101.522 90.0108H84.2162V85.8709H99.8937C103.694 85.8709 106.635 85.147 108.716 83.6991C110.843 82.2513 111.906 80.1021 111.906 77.2517C111.906 74.356 110.843 72.2068 108.716 70.8042C106.635 69.3564 103.694 68.6325 99.8937 68.6325H84.7591V107.86ZM123.302 112L145.019 64.4925H149.974L171.691 112H166.398L146.445 67.4109H148.481L128.528 112H123.302ZM131.853 99.3087L133.346 95.2367H160.968L162.461 99.3087H131.853ZM186.394 112V68.8361H169.699V64.4925H208.112V68.8361H191.417V112H186.394ZM206.148 112L227.866 64.4925H232.82L254.538 112H249.244L229.291 67.4109H231.327L211.374 112H206.148ZM214.699 99.3087L216.193 95.2367H243.815L245.308 99.3087H214.699ZM275.495 112.407C271.966 112.407 268.573 111.842 265.315 110.711C262.103 109.534 259.614 108.041 257.85 106.231L259.818 102.363C261.492 103.992 263.731 105.372 266.537 106.503C269.387 107.589 272.373 108.132 275.495 108.132C278.481 108.132 280.902 107.77 282.757 107.046C284.657 106.276 286.037 105.258 286.897 103.992C287.802 102.725 288.254 101.322 288.254 99.7838C288.254 97.9287 287.711 96.4356 286.626 95.3045C285.585 94.1734 284.205 93.2911 282.486 92.6577C280.766 91.979 278.866 91.3908 276.785 90.8931C274.703 90.3954 272.622 89.8751 270.541 89.3322C268.46 88.744 266.537 87.9748 264.772 87.0246C263.053 86.0745 261.65 84.8303 260.564 83.2919C259.524 81.7083 259.003 79.6497 259.003 77.1159C259.003 74.7632 259.614 72.614 260.836 70.6685C262.103 68.6777 264.026 67.0941 266.605 65.9178C269.184 64.6961 272.486 64.0853 276.513 64.0853C279.183 64.0853 281.83 64.4699 284.454 65.2391C287.078 65.963 289.34 66.981 291.241 68.2931L289.544 72.2973C287.508 70.94 285.336 69.9446 283.029 69.3111C280.766 68.6777 278.572 68.361 276.445 68.361C273.595 68.361 271.242 68.7456 269.387 69.5148C267.532 70.2839 266.152 71.3246 265.247 72.6367C264.388 73.9035 263.958 75.3514 263.958 76.9802C263.958 78.8353 264.478 80.3284 265.519 81.4595C266.605 82.5906 268.007 83.4729 269.726 84.1063C271.491 84.7398 273.414 85.3053 275.495 85.803C277.577 86.3007 279.635 86.8437 281.671 87.4319C283.753 88.02 285.653 88.7892 287.372 89.7394C289.137 90.6443 290.539 91.8659 291.58 93.4042C292.666 94.9426 293.209 96.956 293.209 99.4445C293.209 101.752 292.575 103.901 291.308 105.892C290.042 107.837 288.096 109.421 285.472 110.643C282.893 111.819 279.567 112.407 275.495 112.407ZM296.55 112L318.268 64.4925H323.222L344.94 112H339.646L319.693 67.4109H321.729L301.776 112H296.55ZM305.102 99.3087L306.595 95.2367H334.217L335.71 99.3087H305.102ZM352.799 112V64.4925H356.939L389.719 105.756H387.547V64.4925H392.501V112H388.362L355.649 70.7364H357.821V112H352.799ZM84.0805 158.191L83.8769 152.083L112.653 122.493H118.422L97.4504 144.482L94.6 147.536L84.0805 158.191ZM79.7369 170V122.493H84.7591V170H79.7369ZM113.874 170L93.3784 146.382L96.7717 142.717L119.847 170H113.874ZM146.463 170.407C140.4 170.407 135.626 168.665 132.143 165.181C128.659 161.698 126.917 156.54 126.917 149.708V122.493H131.939V149.504C131.939 155.114 133.206 159.254 135.74 161.924C138.273 164.593 141.848 165.928 146.463 165.928C151.123 165.928 154.72 164.593 157.254 161.924C159.787 159.254 161.054 155.114 161.054 149.504V122.493H165.941V149.708C165.941 156.54 164.199 161.698 160.715 165.181C157.276 168.665 152.526 170.407 146.463 170.407ZM201.842 170.407C198.268 170.407 194.942 169.819 191.866 168.643C188.834 167.421 186.187 165.724 183.925 163.553C181.708 161.336 179.966 158.779 178.699 155.883C177.478 152.943 176.867 149.73 176.867 146.246C176.867 142.762 177.478 139.573 178.699 136.677C179.966 133.736 181.708 131.18 183.925 129.008C186.187 126.791 188.834 125.094 191.866 123.918C194.897 122.696 198.223 122.085 201.842 122.085C205.417 122.085 208.72 122.696 211.751 123.918C214.782 125.094 217.407 126.768 219.624 128.94C221.886 131.112 223.628 133.668 224.849 136.609C226.116 139.55 226.75 142.762 226.75 146.246C226.75 149.73 226.116 152.943 224.849 155.883C223.628 158.824 221.886 161.381 219.624 163.553C217.407 165.724 214.782 167.421 211.751 168.643C208.72 169.819 205.417 170.407 201.842 170.407ZM201.842 165.928C204.693 165.928 207.317 165.453 209.715 164.503C212.158 163.507 214.262 162.127 216.027 160.363C217.836 158.553 219.239 156.472 220.234 154.119C221.23 151.721 221.728 149.097 221.728 146.246C221.728 143.396 221.23 140.794 220.234 138.441C219.239 136.043 217.836 133.962 216.027 132.198C214.262 130.388 212.158 129.008 209.715 128.058C207.317 127.062 204.693 126.565 201.842 126.565C198.992 126.565 196.345 127.062 193.902 128.058C191.458 129.008 189.332 130.388 187.522 132.198C185.758 133.962 184.355 136.043 183.314 138.441C182.319 140.794 181.821 143.396 181.821 146.246C181.821 149.051 182.319 151.653 183.314 154.051C184.355 156.449 185.758 158.553 187.522 160.363C189.332 162.127 191.458 163.507 193.902 164.503C196.345 165.453 198.992 165.928 201.842 165.928ZM246.574 170V126.836H229.879V122.493H268.292V126.836H251.596V170H246.574ZM266.328 170L288.045 122.493H293L314.718 170H309.424L289.471 125.411H291.507L271.554 170H266.328ZM274.879 157.309L276.372 153.237H303.994L305.488 157.309H274.879ZM340.339 170V122.493H358.12C362.147 122.493 365.608 123.149 368.504 124.461C371.4 125.728 373.617 127.583 375.155 130.026C376.738 132.424 377.53 135.342 377.53 138.781C377.53 142.129 376.738 145.025 375.155 147.468C373.617 149.866 371.4 151.721 368.504 153.033C365.608 154.3 362.147 154.933 358.12 154.933H343.121L345.361 152.626V170H340.339ZM372.78 170L360.563 152.762H365.993L378.277 170H372.78ZM345.361 153.033L343.121 150.658H357.984C362.735 150.658 366.332 149.617 368.775 147.536C371.264 145.454 372.508 142.536 372.508 138.781C372.508 134.98 371.264 132.039 368.775 129.958C366.332 127.877 362.735 126.836 357.984 126.836H343.121L345.361 124.461V153.033ZM393.863 143.735H418.974V148.011H393.863V143.735ZM394.406 165.656H422.978V170H389.384V122.493H421.96V126.836H394.406V165.656ZM447.627 170L426.588 122.493H432.017L451.699 167.217H448.712L468.53 122.493H473.62L452.581 170H447.627ZM480.515 170V122.493H485.537V170H480.515ZM514.093 170.407C510.564 170.407 507.17 169.842 503.913 168.711C500.7 167.534 498.212 166.041 496.447 164.231L498.416 160.363C500.09 161.992 502.329 163.372 505.134 164.503C507.985 165.589 510.971 166.132 514.093 166.132C517.079 166.132 519.5 165.77 521.355 165.046C523.255 164.276 524.635 163.258 525.495 161.992C526.4 160.725 526.852 159.322 526.852 157.784C526.852 155.929 526.309 154.436 525.223 153.305C524.183 152.173 522.803 151.291 521.083 150.658C519.364 149.979 517.464 149.391 515.383 148.893C513.301 148.395 511.22 147.875 509.139 147.332C507.057 146.744 505.134 145.975 503.37 145.025C501.651 144.074 500.248 142.83 499.162 141.292C498.121 139.708 497.601 137.65 497.601 135.116C497.601 132.763 498.212 130.614 499.434 128.669C500.7 126.678 502.623 125.094 505.202 123.918C507.781 122.696 511.084 122.085 515.111 122.085C517.781 122.085 520.427 122.47 523.052 123.239C525.676 123.963 527.938 124.981 529.838 126.293L528.142 130.297C526.106 128.94 523.934 127.945 521.626 127.311C519.364 126.678 517.17 126.361 515.043 126.361C512.193 126.361 509.84 126.746 507.985 127.515C506.13 128.284 504.75 129.325 503.845 130.637C502.985 131.904 502.555 133.351 502.555 134.98C502.555 136.835 503.076 138.328 504.116 139.459C505.202 140.591 506.605 141.473 508.324 142.106C510.089 142.74 512.012 143.305 514.093 143.803C516.174 144.301 518.233 144.844 520.269 145.432C522.35 146.02 524.251 146.789 525.97 147.739C527.734 148.644 529.137 149.866 530.178 151.404C531.264 152.943 531.807 154.956 531.807 157.444C531.807 159.752 531.173 161.901 529.906 163.892C528.639 165.837 526.694 167.421 524.07 168.643C521.491 169.819 518.165 170.407 514.093 170.407ZM542.749 170V122.493H547.771V170H542.749Z" fill="white"/>
<path fill-rule="evenodd" clip-rule="evenodd" d="M1000 127.5C1000 155.943 976.943 179 948.5 179C920.057 179 897 155.943 897 127.5C897 99.0573 920.057 76 948.5 76C976.943 76 1000 99.0573 1000 127.5ZM1005 127.5C1005 158.704 979.704 184 948.5 184C917.296 184 892 158.704 892 127.5C892 96.2959 917.296 71 948.5 71C979.704 71 1005 96.2959 1005 127.5ZM944.034 147.975L925.776 116.298C923.777 112.83 927.547 108.901 931.094 110.755L941.016 115.94C945.078 118.063 949.922 118.063 953.984 115.94L963.906 110.755C967.453 108.901 971.223 112.83 969.224 116.298L950.965 147.975C949.426 150.645 945.573 150.645 944.034 147.975ZM955.297 150.472C951.835 156.479 943.165 156.479 939.702 150.472L921.444 118.795C916.947 110.992 925.428 102.153 933.41 106.324L943.332 111.509C945.943 112.873 949.057 112.873 951.668 111.509L961.59 106.324C969.571 102.153 978.053 110.992 973.556 118.795L955.297 150.472Z" fill="white"/>
</svg>
