<svg width="1080" height="256" viewBox="0 0 1080 256" fill="none" xmlns="http://www.w3.org/2000/svg">
<rect width="1080" height="256" fill="#212121"/>
<path d="M82.9271 193.908L82.7077 189.48L88.7121 183.036H93.0607L87.0763 189.52L84.882 191.814L82.9271 193.908ZM79.3964 197V183.036H83.3062V197H79.3964ZM88.7719 197L84.2238 191.235L86.797 188.482L93.3599 197H88.7719ZM96.3963 197V183.036H100.346V193.868H107.009V197H96.3963ZM110.572 197V183.036H114.521V197H110.572ZM122.862 193.908L122.643 189.48L128.647 183.036H132.996L127.011 189.52L124.817 191.814L122.862 193.908ZM119.331 197V183.036H123.241V197H119.331ZM128.707 197L124.159 191.235L126.732 188.482L133.295 197H128.707ZM150.58 197.279C148.518 197.279 146.909 196.714 145.752 195.584C144.595 194.453 144.017 192.851 144.017 190.776V183.036H147.966V190.657C147.966 191.853 148.199 192.711 148.665 193.23C149.143 193.748 149.795 194.008 150.619 194.008C151.444 194.008 152.089 193.748 152.554 193.23C153.02 192.711 153.253 191.853 153.253 190.657V183.036H157.142V190.776C157.142 192.851 156.564 194.453 155.407 195.584C154.25 196.714 152.641 197.279 150.58 197.279ZM161.818 197V183.036H165.07L172.77 192.332H171.234V183.036H175.103V197H171.852L164.152 187.704H165.688V197H161.818ZM182.862 197V186.168H178.573V183.036H191.08V186.168H186.811V197H182.862ZM200.781 197.279C198.719 197.279 197.11 196.714 195.953 195.584C194.796 194.453 194.218 192.851 194.218 190.776V183.036H198.167V190.657C198.167 191.853 198.4 192.711 198.866 193.23C199.344 193.748 199.996 194.008 200.821 194.008C201.645 194.008 202.29 193.748 202.755 193.23C203.221 192.711 203.454 191.853 203.454 190.657V183.036H207.344V190.776C207.344 192.851 206.765 194.453 205.608 195.584C204.451 196.714 202.842 197.279 200.781 197.279ZM215.55 193.908L215.331 189.48L221.335 183.036H225.684L219.699 189.52L217.505 191.814L215.55 193.908ZM212.019 197V183.036H215.929V197H212.019ZM221.395 197L216.847 191.235L219.42 188.482L225.983 197H221.395ZM236.824 197V183.036H240.774V193.868H247.437V197H236.824ZM254.63 188.442H261.113V191.395H254.63V188.442ZM254.909 193.948H262.21V197H251V183.036H261.951V186.088H254.909V193.948ZM266.402 197V183.036H273.543C275.379 183.036 276.748 183.376 277.653 184.054C278.557 184.719 279.009 185.596 279.009 186.687C279.009 187.405 278.816 188.037 278.431 188.582C278.058 189.114 277.526 189.539 276.835 189.859C276.157 190.165 275.345 190.317 274.401 190.317L274.8 189.36C275.784 189.36 276.642 189.513 277.373 189.819C278.105 190.111 278.67 190.544 279.069 191.115C279.481 191.674 279.687 192.359 279.687 193.17C279.687 194.38 279.195 195.324 278.211 196.003C277.24 196.668 275.817 197 273.942 197H266.402ZM270.312 194.147H273.623C274.301 194.147 274.813 194.034 275.159 193.808C275.518 193.569 275.698 193.21 275.698 192.731C275.698 192.252 275.518 191.9 275.159 191.674C274.813 191.435 274.301 191.315 273.623 191.315H270.033V188.582H273.025C273.69 188.582 274.188 188.469 274.521 188.243C274.853 188.017 275.02 187.678 275.02 187.226C275.02 186.773 274.853 186.441 274.521 186.228C274.188 186.002 273.69 185.889 273.025 185.889H270.312V194.147ZM283.733 197V183.036H287.683V197H283.733ZM301.829 183.036H305.778V197H301.829V183.036ZM296.443 197H292.493V183.036H296.443V197ZM302.108 191.554H296.163V188.283H302.108V191.554ZM318.369 197V183.036H322.319V193.868H328.982V197H318.369ZM331.005 197L337.169 183.036H341.059L347.243 197H343.134L338.306 184.971H339.862L335.035 197H331.005ZM334.377 194.287L335.394 191.375H342.216L343.233 194.287H334.377ZM350.363 197V183.036H353.614L361.314 192.332H359.778V183.036H363.648V197H360.397L352.697 187.704H354.233V197H350.363ZM371.486 197.279C370.462 197.279 369.531 197.106 368.693 196.761C367.869 196.402 367.184 195.89 366.639 195.225L368.793 192.671C369.166 193.15 369.551 193.516 369.95 193.768C370.349 194.008 370.768 194.127 371.207 194.127C372.377 194.127 372.962 193.449 372.962 192.093V186.088H368.135V183.036H376.872V191.853C376.872 193.675 376.413 195.038 375.496 195.943C374.578 196.834 373.242 197.279 371.486 197.279ZM387.981 197.279C385.92 197.279 384.311 196.714 383.154 195.584C381.997 194.453 381.418 192.851 381.418 190.776V183.036H385.368V190.657C385.368 191.853 385.601 192.711 386.066 193.23C386.545 193.748 387.196 194.008 388.021 194.008C388.846 194.008 389.491 193.748 389.956 193.23C390.421 192.711 390.654 191.853 390.654 190.657V183.036H394.544V190.776C394.544 192.851 393.966 194.453 392.809 195.584C391.652 196.714 390.042 197.279 387.981 197.279ZM401.978 197V186.168H397.689V183.036H410.196V186.168H405.927V197H401.978Z" fill="white"/>
<path d="M79.7369 112V64.4925H84.7591V107.656H111.363V112H79.7369ZM112.101 112L133.819 64.4925H138.773L160.491 112H155.197L135.244 67.4109H137.28L117.327 112H112.101ZM120.652 99.3087L122.145 95.2367H149.767L151.261 99.3087H120.652ZM168.349 112V64.4925H172.489L194.207 101.548H192.035L213.549 64.4925H217.689V112H212.871V72.0259H214.025L194.207 105.96H191.832L171.879 72.0259H173.168V112H168.349ZM225.567 112L247.285 64.4925H252.239L273.957 112H268.663L248.71 67.4109H250.746L230.793 112H225.567ZM234.119 99.3087L235.612 95.2367H263.234L264.727 99.3087H234.119ZM310.369 112L294.352 64.4925H299.51L314.509 109.217H311.93L327.404 64.4925H332.019L347.289 109.217H344.846L359.981 64.4925H364.799L348.782 112H343.489L328.897 69.5826H330.254L315.595 112H310.369ZM364.948 112L386.666 64.4925H391.62L413.338 112H408.044L388.091 67.4109H390.127L370.174 112H364.948ZM373.5 99.3087L374.993 95.2367H402.615L404.108 99.3087H373.5ZM425.54 100.191L425.337 94.0829L454.113 64.4925H459.881L438.91 86.4817L436.06 89.5358L425.54 100.191ZM421.197 112V64.4925H426.219V112H421.197ZM455.334 112L434.838 88.382L438.232 84.7171L461.307 112H455.334ZM475.959 112V68.8361H459.264V64.4925H497.677V68.8361H480.981V112H475.959ZM523.911 112.407C517.848 112.407 513.075 110.665 509.591 107.181C506.107 103.698 504.365 98.5396 504.365 91.7075V64.4925H509.387V91.5039C509.387 97.1143 510.654 101.254 513.188 103.924C515.722 106.593 519.296 107.928 523.911 107.928C528.571 107.928 532.168 106.593 534.702 103.924C537.236 101.254 538.503 97.1143 538.503 91.5039V64.4925H543.389V91.7075C543.389 98.5396 541.647 103.698 538.163 107.181C534.725 110.665 529.974 112.407 523.911 112.407ZM79.7369 170V122.493H97.5183C101.545 122.493 105.006 123.149 107.902 124.461C110.798 125.728 113.015 127.583 114.553 130.026C116.137 132.424 116.928 135.342 116.928 138.781C116.928 142.129 116.137 145.025 114.553 147.468C113.015 149.866 110.798 151.721 107.902 153.033C105.006 154.345 101.545 155.001 97.5183 155.001H82.5195L84.7591 152.626V170H79.7369ZM84.7591 153.033L82.5195 150.59H97.3826C102.133 150.59 105.73 149.572 108.174 147.536C110.662 145.454 111.906 142.536 111.906 138.781C111.906 134.98 110.662 132.039 108.174 129.958C105.73 127.877 102.133 126.836 97.3826 126.836H82.5195L84.7591 124.461V153.033ZM132.267 143.735H157.378V148.011H132.267V143.735ZM132.81 165.656H161.382V170H127.788V122.493H160.364V126.836H132.81V165.656ZM173.188 170V122.493H177.328L210.108 163.756H207.936V122.493H212.89V170H208.75L176.038 128.736H178.21V170H173.188ZM249.232 170.407C245.612 170.407 242.264 169.819 239.188 168.643C236.156 167.421 233.509 165.724 231.247 163.553C229.03 161.381 227.288 158.824 226.021 155.883C224.8 152.943 224.189 149.73 224.189 146.246C224.189 142.762 224.8 139.55 226.021 136.609C227.288 133.668 229.053 131.112 231.315 128.94C233.577 126.768 236.224 125.094 239.255 123.918C242.332 122.696 245.68 122.085 249.3 122.085C252.919 122.085 256.222 122.651 259.209 123.782C262.24 124.913 264.819 126.632 266.945 128.94L263.824 132.13C261.833 130.139 259.638 128.714 257.24 127.854C254.842 126.994 252.263 126.565 249.503 126.565C246.563 126.565 243.848 127.062 241.359 128.058C238.916 129.008 236.767 130.388 234.912 132.198C233.102 133.962 231.677 136.043 230.636 138.441C229.641 140.794 229.143 143.396 229.143 146.246C229.143 149.051 229.641 151.653 230.636 154.051C231.677 156.449 233.102 158.553 234.912 160.363C236.767 162.127 238.916 163.507 241.359 164.503C243.848 165.453 246.54 165.928 249.436 165.928C252.15 165.928 254.707 165.521 257.105 164.706C259.548 163.892 261.788 162.512 263.824 160.566L266.674 164.367C264.412 166.358 261.765 167.873 258.733 168.914C255.702 169.91 252.535 170.407 249.232 170.407ZM261.855 163.756V146.246H266.674V164.367L261.855 163.756ZM285.367 143.735H310.478V148.011H285.367V143.735ZM285.91 165.656H314.483V170H280.888V122.493H313.465V126.836H285.91V165.656ZM326.288 170V122.493H344.069C348.096 122.493 351.557 123.149 354.453 124.461C357.349 125.728 359.566 127.583 361.104 130.026C362.688 132.424 363.48 135.342 363.48 138.781C363.48 142.129 362.688 145.025 361.104 147.468C359.566 149.866 357.349 151.721 354.453 153.033C351.557 154.3 348.096 154.933 344.069 154.933H329.071L331.31 152.626V170H326.288ZM358.729 170L346.513 152.762H351.942L364.226 170H358.729ZM331.31 153.033L329.071 150.658H343.934C348.684 150.658 352.281 149.617 354.725 147.536C357.213 145.454 358.457 142.536 358.457 138.781C358.457 134.98 357.213 132.039 354.725 129.958C352.281 127.877 348.684 126.836 343.934 126.836H329.071L331.31 124.461V153.033ZM379.76 170.407C377.091 170.407 374.58 169.819 372.227 168.643C369.92 167.466 368.064 165.792 366.662 163.62L369.58 160.227C370.892 162.127 372.408 163.575 374.127 164.571C375.847 165.566 377.747 166.064 379.828 166.064C385.71 166.064 388.651 162.58 388.651 155.612V126.836H371.277V122.493H393.605V155.408C393.605 160.431 392.429 164.186 390.076 166.674C387.769 169.163 384.33 170.407 379.76 170.407ZM400.075 170L421.793 122.493H426.747L448.465 170H443.171L423.218 125.411H425.254L405.301 170H400.075ZM408.626 157.309L410.12 153.237H437.742L439.235 157.309H408.626ZM449.253 170L470.97 122.493H475.925L497.642 170H492.349L472.396 125.411H474.432L454.479 170H449.253ZM457.804 157.309L459.297 153.237H486.919L488.412 157.309H457.804ZM505.501 170V122.493H509.641L542.421 163.756H540.25V122.493H545.204V170H541.064L508.352 128.736H510.524V170H505.501Z" fill="white"/>
<path fill-rule="evenodd" clip-rule="evenodd" d="M1000 127.5C1000 155.943 976.943 179 948.5 179C920.057 179 897 155.943 897 127.5C897 99.0573 920.057 76 948.5 76C976.943 76 1000 99.0573 1000 127.5ZM1005 127.5C1005 158.704 979.704 184 948.5 184C917.296 184 892 158.704 892 127.5C892 96.2959 917.296 71 948.5 71C979.704 71 1005 96.2959 1005 127.5ZM944.034 147.975L925.776 116.298C923.777 112.83 927.547 108.901 931.094 110.755L941.016 115.94C945.078 118.063 949.922 118.063 953.984 115.94L963.906 110.755C967.453 108.901 971.223 112.83 969.224 116.298L950.965 147.975C949.426 150.645 945.573 150.645 944.034 147.975ZM955.297 150.472C951.835 156.479 943.165 156.479 939.702 150.472L921.444 118.795C916.947 110.992 925.428 102.153 933.41 106.324L943.332 111.509C945.943 112.873 949.057 112.873 951.668 111.509L961.59 106.324C969.571 102.153 978.053 110.992 973.556 118.795L955.297 150.472Z" fill="white"/>
</svg>
