<svg width="1080" height="256" viewBox="0 0 1080 256" fill="none" xmlns="http://www.w3.org/2000/svg">
<rect width="1080" height="256" fill="#212121"/>
<path d="M82.9271 193.908L82.7077 189.48L88.7121 183.036H93.0607L87.0763 189.52L84.882 191.814L82.9271 193.908ZM79.3964 197V183.036H83.3062V197H79.3964ZM88.7719 197L84.2238 191.235L86.797 188.482L93.3599 197H88.7719ZM96.3963 197V183.036H100.346V193.868H107.009V197H96.3963ZM110.572 197V183.036H114.521V197H110.572ZM122.862 193.908L122.643 189.48L128.647 183.036H132.996L127.011 189.52L124.817 191.814L122.862 193.908ZM119.331 197V183.036H123.241V197H119.331ZM128.707 197L124.159 191.235L126.732 188.482L133.295 197H128.707ZM150.58 197.279C148.518 197.279 146.909 196.714 145.752 195.584C144.595 194.453 144.017 192.851 144.017 190.776V183.036H147.966V190.657C147.966 191.853 148.199 192.711 148.665 193.23C149.143 193.748 149.795 194.008 150.619 194.008C151.444 194.008 152.089 193.748 152.554 193.23C153.02 192.711 153.253 191.853 153.253 190.657V183.036H157.142V190.776C157.142 192.851 156.564 194.453 155.407 195.584C154.25 196.714 152.641 197.279 150.58 197.279ZM161.818 197V183.036H165.07L172.77 192.332H171.234V183.036H175.103V197H171.852L164.152 187.704H165.688V197H161.818ZM182.862 197V186.168H178.573V183.036H191.08V186.168H186.811V197H182.862ZM200.781 197.279C198.719 197.279 197.11 196.714 195.953 195.584C194.796 194.453 194.218 192.851 194.218 190.776V183.036H198.167V190.657C198.167 191.853 198.4 192.711 198.866 193.23C199.344 193.748 199.996 194.008 200.821 194.008C201.645 194.008 202.29 193.748 202.755 193.23C203.221 192.711 203.454 191.853 203.454 190.657V183.036H207.344V190.776C207.344 192.851 206.765 194.453 205.608 195.584C204.451 196.714 202.842 197.279 200.781 197.279ZM215.55 193.908L215.331 189.48L221.335 183.036H225.684L219.699 189.52L217.505 191.814L215.55 193.908ZM212.019 197V183.036H215.929V197H212.019ZM221.395 197L216.847 191.235L219.42 188.482L225.983 197H221.395ZM236.824 197V183.036H240.774V193.868H247.437V197H236.824ZM254.63 188.442H261.113V191.395H254.63V188.442ZM254.909 193.948H262.21V197H251V183.036H261.951V186.088H254.909V193.948ZM266.402 197V183.036H273.543C275.379 183.036 276.748 183.376 277.653 184.054C278.557 184.719 279.009 185.596 279.009 186.687C279.009 187.405 278.816 188.037 278.431 188.582C278.058 189.114 277.526 189.539 276.835 189.859C276.157 190.165 275.345 190.317 274.401 190.317L274.8 189.36C275.784 189.36 276.642 189.513 277.373 189.819C278.105 190.111 278.67 190.544 279.069 191.115C279.481 191.674 279.687 192.359 279.687 193.17C279.687 194.38 279.195 195.324 278.211 196.003C277.24 196.668 275.817 197 273.942 197H266.402ZM270.312 194.147H273.623C274.301 194.147 274.813 194.034 275.159 193.808C275.518 193.569 275.698 193.21 275.698 192.731C275.698 192.252 275.518 191.9 275.159 191.674C274.813 191.435 274.301 191.315 273.623 191.315H270.033V188.582H273.025C273.69 188.582 274.188 188.469 274.521 188.243C274.853 188.017 275.02 187.678 275.02 187.226C275.02 186.773 274.853 186.441 274.521 186.228C274.188 186.002 273.69 185.889 273.025 185.889H270.312V194.147ZM283.733 197V183.036H287.683V197H283.733ZM301.829 183.036H305.778V197H301.829V183.036ZM296.443 197H292.493V183.036H296.443V197ZM302.108 191.554H296.163V188.283H302.108V191.554ZM318.369 197V183.036H322.319V193.868H328.982V197H318.369ZM331.005 197L337.169 183.036H341.059L347.243 197H343.134L338.306 184.971H339.862L335.035 197H331.005ZM334.377 194.287L335.394 191.375H342.216L343.233 194.287H334.377ZM350.363 197V183.036H353.614L361.314 192.332H359.778V183.036H363.648V197H360.397L352.697 187.704H354.233V197H350.363ZM371.486 197.279C370.462 197.279 369.531 197.106 368.693 196.761C367.869 196.402 367.184 195.89 366.639 195.225L368.793 192.671C369.166 193.15 369.551 193.516 369.95 193.768C370.349 194.008 370.768 194.127 371.207 194.127C372.377 194.127 372.962 193.449 372.962 192.093V186.088H368.135V183.036H376.872V191.853C376.872 193.675 376.413 195.038 375.496 195.943C374.578 196.834 373.242 197.279 371.486 197.279ZM387.981 197.279C385.92 197.279 384.311 196.714 383.154 195.584C381.997 194.453 381.418 192.851 381.418 190.776V183.036H385.368V190.657C385.368 191.853 385.601 192.711 386.066 193.23C386.545 193.748 387.196 194.008 388.021 194.008C388.846 194.008 389.491 193.748 389.956 193.23C390.421 192.711 390.654 191.853 390.654 190.657V183.036H394.544V190.776C394.544 192.851 393.966 194.453 392.809 195.584C391.652 196.714 390.042 197.279 387.981 197.279ZM401.978 197V186.168H397.689V183.036H410.196V186.168H405.927V197H401.978Z" fill="white"/>
<path d="M88.967 112V68.8361H72.2715V64.4925H110.685V68.8361H93.9892V112H88.967ZM123.187 85.7352H148.298V90.0108H123.187V85.7352ZM123.73 107.656H152.302V112H118.708V64.4925H151.284V68.8361H123.73V107.656ZM164.108 112V64.4925H181.889C185.916 64.4925 189.377 65.1486 192.273 66.4607C195.169 67.7276 197.386 69.5826 198.924 72.0259C200.508 74.4239 201.299 77.3422 201.299 80.7808C201.299 84.129 200.508 87.0246 198.924 89.4679C197.386 91.8659 195.169 93.7209 192.273 95.033C189.377 96.2999 185.916 96.9333 181.889 96.9333H166.89L169.13 94.6258V112H164.108ZM196.549 112L184.332 94.7616H189.762L202.046 112H196.549ZM169.13 95.033L166.89 92.6577H181.753C186.504 92.6577 190.101 91.617 192.544 89.5358C195.033 87.4545 196.277 84.5362 196.277 80.7808C196.277 76.9802 195.033 74.0393 192.544 71.958C190.101 69.8767 186.504 68.8361 181.753 68.8361H166.89L169.13 66.4607V95.033ZM213.153 112V64.4925H217.293L239.01 101.548H236.839L258.353 64.4925H262.493V112H257.674V72.0259H258.828L239.01 105.96H236.635L216.682 72.0259H217.971V112H213.153ZM307.272 112.407C304.195 112.407 301.458 111.91 299.06 110.914C296.662 109.873 294.761 108.448 293.359 106.638C292.001 104.829 291.323 102.725 291.323 100.327C291.323 98.2907 291.775 96.4356 292.68 94.7616C293.585 93.0423 295.033 91.3682 297.024 89.7394C299.06 88.0653 301.752 86.3233 305.1 84.5135C307.95 82.93 310.167 81.5726 311.751 80.4415C313.38 79.2651 314.534 78.1566 315.212 77.1159C315.891 76.0301 316.23 74.8763 316.23 73.6547C316.23 71.8901 315.619 70.4649 314.398 69.379C313.221 68.2931 311.525 67.7502 309.308 67.7502C306.91 67.7502 305.055 68.361 303.743 69.5826C302.43 70.759 301.774 72.2973 301.774 74.1976C301.774 75.1478 301.91 76.0527 302.182 76.9123C302.498 77.772 303.064 78.7222 303.878 79.7628C304.738 80.8034 305.914 82.1155 307.407 83.6991L332.519 109.557L329.736 112.747L303.539 85.803C301.955 84.129 300.689 82.6811 299.738 81.4595C298.833 80.1926 298.2 78.9936 297.838 77.8625C297.476 76.7314 297.295 75.5324 297.295 74.2655C297.295 72.2295 297.77 70.4649 298.72 68.9718C299.716 67.4335 301.118 66.2571 302.928 65.4427C304.738 64.583 306.864 64.1532 309.308 64.1532C311.525 64.1532 313.448 64.5378 315.076 65.3069C316.751 66.0309 318.04 67.0941 318.945 68.4967C319.895 69.8993 320.37 71.596 320.37 73.5868C320.37 75.3061 319.94 76.9123 319.081 78.4054C318.266 79.8985 316.909 81.369 315.009 82.8168C313.108 84.2194 310.529 85.803 307.272 87.5676C304.421 89.1512 302.159 90.599 300.485 91.9111C298.856 93.2232 297.702 94.5127 297.024 95.7796C296.345 97.0012 296.006 98.3586 296.006 99.8517C296.006 101.571 296.481 103.087 297.431 104.399C298.426 105.666 299.784 106.661 301.503 107.385C303.267 108.064 305.281 108.403 307.543 108.403C310.71 108.403 313.538 107.747 316.027 106.435C318.515 105.123 320.596 103.132 322.27 100.462C323.99 97.793 325.234 94.4449 326.003 90.418L329.872 91.6397C329.012 96.1642 327.542 99.9648 325.46 103.041C323.379 106.118 320.8 108.448 317.723 110.032C314.647 111.615 311.163 112.407 307.272 112.407ZM100.369 170.407C96.7944 170.407 93.4915 169.819 90.46 168.643C87.4286 167.421 84.8044 165.724 82.5874 163.553C80.3704 161.381 78.6284 158.824 77.3616 155.883C76.1399 152.943 75.5291 149.73 75.5291 146.246C75.5291 142.762 76.1399 139.55 77.3616 136.609C78.6284 133.668 80.3704 131.112 82.5874 128.94C84.8496 126.768 87.4965 125.094 90.5279 123.918C93.5593 122.696 96.8622 122.085 100.437 122.085C103.875 122.085 107.11 122.674 110.142 123.85C113.173 124.981 115.729 126.7 117.811 129.008L114.621 132.198C112.675 130.207 110.526 128.782 108.174 127.922C105.821 127.017 103.287 126.565 100.572 126.565C97.7219 126.565 95.0751 127.062 92.6318 128.058C90.1886 129.008 88.062 130.388 86.2522 132.198C84.4424 133.962 83.0172 136.043 81.9766 138.441C80.9812 140.794 80.4835 143.396 80.4835 146.246C80.4835 149.097 80.9812 151.721 81.9766 154.119C83.0172 156.472 84.4424 158.553 86.2522 160.363C88.062 162.127 90.1886 163.507 92.6318 164.503C95.0751 165.453 97.7219 165.928 100.572 165.928C103.287 165.928 105.821 165.475 108.174 164.571C110.526 163.666 112.675 162.218 114.621 160.227L117.811 163.417C115.729 165.724 113.173 167.466 110.142 168.643C107.11 169.819 103.853 170.407 100.369 170.407ZM148.29 170.407C144.716 170.407 141.39 169.819 138.314 168.643C135.282 167.421 132.635 165.724 130.373 163.553C128.156 161.336 126.414 158.779 125.147 155.883C123.926 152.943 123.315 149.73 123.315 146.246C123.315 142.762 123.926 139.573 125.147 136.677C126.414 133.736 128.156 131.18 130.373 129.008C132.635 126.791 135.282 125.094 138.314 123.918C141.345 122.696 144.671 122.085 148.29 122.085C151.865 122.085 155.168 122.696 158.199 123.918C161.23 125.094 163.855 126.768 166.072 128.94C168.334 131.112 170.076 133.668 171.297 136.609C172.564 139.55 173.198 142.762 173.198 146.246C173.198 149.73 172.564 152.943 171.297 155.883C170.076 158.824 168.334 161.381 166.072 163.553C163.855 165.724 161.23 167.421 158.199 168.643C155.168 169.819 151.865 170.407 148.29 170.407ZM148.29 165.928C151.141 165.928 153.765 165.453 156.163 164.503C158.606 163.507 160.71 162.127 162.475 160.363C164.284 158.553 165.687 156.472 166.682 154.119C167.678 151.721 168.176 149.097 168.176 146.246C168.176 143.396 167.678 140.794 166.682 138.441C165.687 136.043 164.284 133.962 162.475 132.198C160.71 130.388 158.606 129.008 156.163 128.058C153.765 127.062 151.141 126.565 148.29 126.565C145.44 126.565 142.793 127.062 140.35 128.058C137.907 129.008 135.78 130.388 133.97 132.198C132.206 133.962 130.803 136.043 129.762 138.441C128.767 140.794 128.269 143.396 128.269 146.246C128.269 149.051 128.767 151.653 129.762 154.051C130.803 156.449 132.206 158.553 133.97 160.363C135.78 162.127 137.907 163.507 140.35 164.503C142.793 165.453 145.44 165.928 148.29 165.928ZM184.455 170V122.493H188.595L221.375 163.756H219.203V122.493H224.158V170H220.018L187.305 128.736H189.477V170H184.455ZM239.664 170V122.493H259.006C264.073 122.493 268.508 123.511 272.308 125.547C276.154 127.537 279.14 130.32 281.267 133.894C283.393 137.469 284.456 141.586 284.456 146.246C284.456 150.907 283.393 155.024 281.267 158.598C279.14 162.173 276.154 164.978 272.308 167.014C268.508 169.005 264.073 170 259.006 170H239.664ZM244.686 165.656H258.735C262.942 165.656 266.585 164.842 269.661 163.213C272.783 161.539 275.204 159.254 276.923 156.359C278.642 153.418 279.502 150.047 279.502 146.246C279.502 142.4 278.642 139.03 276.923 136.134C275.204 133.238 272.783 130.976 269.661 129.347C266.585 127.673 262.942 126.836 258.735 126.836H244.686V165.656ZM295.734 170V122.493H300.756V170H295.734ZM325.444 170V126.836H308.748V122.493H347.162V126.836H330.466V170H325.444ZM355.185 170V122.493H360.207V170H355.185ZM396.432 170.407C392.858 170.407 389.532 169.819 386.455 168.643C383.424 167.421 380.777 165.724 378.515 163.553C376.298 161.336 374.556 158.779 373.289 155.883C372.067 152.943 371.457 149.73 371.457 146.246C371.457 142.762 372.067 139.573 373.289 136.677C374.556 133.736 376.298 131.18 378.515 129.008C380.777 126.791 383.424 125.094 386.455 123.918C389.487 122.696 392.812 122.085 396.432 122.085C400.006 122.085 403.309 122.696 406.341 123.918C409.372 125.094 411.996 126.768 414.213 128.94C416.476 131.112 418.218 133.668 419.439 136.609C420.706 139.55 421.339 142.762 421.339 146.246C421.339 149.73 420.706 152.943 419.439 155.883C418.218 158.824 416.476 161.381 414.213 163.553C411.996 165.724 409.372 167.421 406.341 168.643C403.309 169.819 400.006 170.407 396.432 170.407ZM396.432 165.928C399.282 165.928 401.907 165.453 404.305 164.503C406.748 163.507 408.852 162.127 410.616 160.363C412.426 158.553 413.829 156.472 414.824 154.119C415.82 151.721 416.317 149.097 416.317 146.246C416.317 143.396 415.82 140.794 414.824 138.441C413.829 136.043 412.426 133.962 410.616 132.198C408.852 130.388 406.748 129.008 404.305 128.058C401.907 127.062 399.282 126.565 396.432 126.565C393.582 126.565 390.935 127.062 388.491 128.058C386.048 129.008 383.922 130.388 382.112 132.198C380.347 133.962 378.945 136.043 377.904 138.441C376.909 140.794 376.411 143.396 376.411 146.246C376.411 149.051 376.909 151.653 377.904 154.051C378.945 156.449 380.347 158.553 382.112 160.363C383.922 162.127 386.048 163.507 388.491 164.503C390.935 165.453 393.582 165.928 396.432 165.928ZM432.596 170V122.493H436.736L469.517 163.756H467.345V122.493H472.299V170H468.159L435.447 128.736H437.619V170H432.596ZM500.904 170.407C497.375 170.407 493.981 169.842 490.724 168.711C487.511 167.534 485.023 166.041 483.258 164.231L485.226 160.363C486.9 161.992 489.14 163.372 491.945 164.503C494.796 165.589 497.782 166.132 500.904 166.132C503.89 166.132 506.311 165.77 508.166 165.046C510.066 164.276 511.446 163.258 512.306 161.992C513.211 160.725 513.663 159.322 513.663 157.784C513.663 155.929 513.12 154.436 512.034 153.305C510.994 152.173 509.614 151.291 507.894 150.658C506.175 149.979 504.275 149.391 502.193 148.893C500.112 148.395 498.031 147.875 495.95 147.332C493.868 146.744 491.945 145.975 490.181 145.025C488.461 144.074 487.059 142.83 485.973 141.292C484.932 139.708 484.412 137.65 484.412 135.116C484.412 132.763 485.023 130.614 486.244 128.669C487.511 126.678 489.434 125.094 492.013 123.918C494.592 122.696 497.895 122.085 501.922 122.085C504.591 122.085 507.238 122.47 509.862 123.239C512.487 123.963 514.749 124.981 516.649 126.293L514.953 130.297C512.916 128.94 510.745 127.945 508.437 127.311C506.175 126.678 503.981 126.361 501.854 126.361C499.004 126.361 496.651 126.746 494.796 127.515C492.941 128.284 491.561 129.325 490.656 130.637C489.796 131.904 489.366 133.351 489.366 134.98C489.366 136.835 489.887 138.328 490.927 139.459C492.013 140.591 493.416 141.473 495.135 142.106C496.9 142.74 498.823 143.305 500.904 143.803C502.985 144.301 505.044 144.844 507.08 145.432C509.161 146.02 511.061 146.789 512.781 147.739C514.545 148.644 515.948 149.866 516.989 151.404C518.074 152.943 518.617 154.956 518.617 157.444C518.617 159.752 517.984 161.901 516.717 163.892C515.45 165.837 513.505 167.421 510.88 168.643C508.301 169.819 504.976 170.407 500.904 170.407Z" fill="white"/>
<path fill-rule="evenodd" clip-rule="evenodd" d="M1000 127.5C1000 155.943 976.943 179 948.5 179C920.057 179 897 155.943 897 127.5C897 99.0573 920.057 76 948.5 76C976.943 76 1000 99.0573 1000 127.5ZM1005 127.5C1005 158.704 979.704 184 948.5 184C917.296 184 892 158.704 892 127.5C892 96.2959 917.296 71 948.5 71C979.704 71 1005 96.2959 1005 127.5ZM944.034 147.975L925.776 116.298C923.777 112.83 927.547 108.901 931.094 110.755L941.016 115.94C945.078 118.063 949.922 118.063 953.984 115.94L963.906 110.755C967.453 108.901 971.223 112.83 969.224 116.298L950.965 147.975C949.426 150.645 945.573 150.645 944.034 147.975ZM955.297 150.472C951.835 156.479 943.165 156.479 939.702 150.472L921.444 118.795C916.947 110.992 925.428 102.153 933.41 106.324L943.332 111.509C945.943 112.873 949.057 112.873 951.668 111.509L961.59 106.324C969.571 102.153 978.053 110.992 973.556 118.795L955.297 150.472Z" fill="white"/>
</svg>
