<svg width="1080" height="256" viewBox="0 0 1080 256" fill="none" xmlns="http://www.w3.org/2000/svg">
<rect width="1080" height="256" fill="#212121"/>
<path d="M79.7369 112V64.4925H99.0793C104.147 64.4925 108.581 65.5106 112.381 67.5466C116.227 69.5374 119.213 72.32 121.34 75.8943C123.466 79.4687 124.53 83.586 124.53 88.2463C124.53 92.9065 123.466 97.0238 121.34 100.598C119.213 104.173 116.227 106.978 112.381 109.014C108.581 111.005 104.147 112 99.0793 112H79.7369ZM84.7591 107.656H98.8078C103.016 107.656 106.658 106.842 109.735 105.213C112.856 103.539 115.277 101.254 116.996 98.3586C118.716 95.4176 119.575 92.0469 119.575 88.2463C119.575 84.4004 118.716 81.0297 116.996 78.134C115.277 75.2383 112.856 72.976 109.735 71.3472C106.658 69.6731 103.016 68.8361 98.8078 68.8361H84.7591V107.656ZM140.287 85.7352H165.398V90.0108H140.287V85.7352ZM140.83 107.656H169.402V112H135.807V64.4925H168.384V68.8361H140.83V107.656ZM194.306 112.407C190.777 112.407 187.383 111.842 184.126 110.711C180.913 109.534 178.425 108.041 176.66 106.231L178.628 102.363C180.302 103.992 182.542 105.372 185.347 106.503C188.198 107.589 191.184 108.132 194.306 108.132C197.292 108.132 199.713 107.77 201.568 107.046C203.468 106.276 204.848 105.258 205.708 103.992C206.612 102.725 207.065 101.322 207.065 99.7838C207.065 97.9287 206.522 96.4356 205.436 95.3045C204.395 94.1734 203.015 93.2911 201.296 92.6577C199.577 91.979 197.677 91.3908 195.595 90.8931C193.514 90.3954 191.433 89.8751 189.351 89.3322C187.27 88.744 185.347 87.9748 183.583 87.0246C181.863 86.0745 180.461 84.8303 179.375 83.2919C178.334 81.7083 177.814 79.6497 177.814 77.1159C177.814 74.7632 178.425 72.614 179.646 70.6685C180.913 68.6777 182.836 67.0941 185.415 65.9178C187.994 64.6961 191.297 64.0853 195.324 64.0853C197.993 64.0853 200.64 64.4699 203.264 65.2391C205.889 65.963 208.151 66.981 210.051 68.2931L208.354 72.2973C206.318 70.94 204.147 69.9446 201.839 69.3111C199.577 68.6777 197.382 68.361 195.256 68.361C192.405 68.361 190.053 68.7456 188.198 69.5148C186.343 70.2839 184.963 71.3246 184.058 72.6367C183.198 73.9035 182.768 75.3514 182.768 76.9802C182.768 78.8353 183.289 80.3284 184.329 81.4595C185.415 82.5906 186.818 83.4729 188.537 84.1063C190.302 84.7398 192.224 85.3053 194.306 85.803C196.387 86.3007 198.446 86.8437 200.482 87.4319C202.563 88.02 204.463 88.7892 206.183 89.7394C207.947 90.6443 209.35 91.8659 210.39 93.4042C211.476 94.9426 212.019 96.956 212.019 99.4445C212.019 101.752 211.386 103.901 210.119 105.892C208.852 107.837 206.907 109.421 204.282 110.643C201.703 111.819 198.378 112.407 194.306 112.407ZM227.305 100.191L227.102 94.0829L255.878 64.4925H261.647L240.675 86.4817L237.825 89.5358L227.305 100.191ZM222.962 112V64.4925H227.984V112H222.962ZM257.099 112L236.603 88.382L239.997 84.7171L263.072 112H257.099ZM271.212 112V64.4925H288.993C293.02 64.4925 296.481 65.1486 299.377 66.4607C302.272 67.7276 304.489 69.5826 306.028 72.0259C307.611 74.4239 308.403 77.3422 308.403 80.7808C308.403 84.129 307.611 87.0246 306.028 89.4679C304.489 91.8659 302.272 93.7209 299.377 95.033C296.481 96.2999 293.02 96.9333 288.993 96.9333H273.994L276.234 94.6258V112H271.212ZM303.652 112L291.436 94.7616H296.866L309.15 112H303.652ZM276.234 95.033L273.994 92.6577H288.857C293.608 92.6577 297.205 91.617 299.648 89.5358C302.137 87.4545 303.381 84.5362 303.381 80.7808C303.381 76.9802 302.137 74.0393 299.648 71.958C297.205 69.8767 293.608 68.8361 288.857 68.8361H273.994L276.234 66.4607V95.033ZM320.257 112V64.4925H325.279V112H320.257ZM340.736 112V64.4925H358.518C362.545 64.4925 366.006 65.1486 368.901 66.4607C371.797 67.7276 374.014 69.5826 375.553 72.0259C377.136 74.4239 377.928 77.3422 377.928 80.7808C377.928 84.129 377.136 87.0246 375.553 89.4679C374.014 91.8659 371.797 93.7209 368.901 95.033C366.006 96.3452 362.545 97.0012 358.518 97.0012H343.519L345.759 94.6258V112H340.736ZM345.759 95.033L343.519 92.5898H358.382C363.133 92.5898 366.73 91.5718 369.173 89.5358C371.661 87.4545 372.906 84.5362 372.906 80.7808C372.906 76.9802 371.661 74.0393 369.173 71.958C366.73 69.8767 363.133 68.8361 358.382 68.8361H343.519L345.759 66.4607V95.033ZM402.549 112.407C399.019 112.407 395.626 111.842 392.368 110.711C389.156 109.534 386.667 108.041 384.903 106.231L386.871 102.363C388.545 103.992 390.785 105.372 393.59 106.503C396.44 107.589 399.427 108.132 402.549 108.132C405.535 108.132 407.955 107.77 409.81 107.046C411.711 106.276 413.091 105.258 413.95 103.992C414.855 102.725 415.308 101.322 415.308 99.7838C415.308 97.9287 414.765 96.4356 413.679 95.3045C412.638 94.1734 411.258 93.2911 409.539 92.6577C407.82 91.979 405.919 91.3908 403.838 90.8931C401.757 90.3954 399.675 89.8751 397.594 89.3322C395.513 88.744 393.59 87.9748 391.825 87.0246C390.106 86.0745 388.704 84.8303 387.618 83.2919C386.577 81.7083 386.057 79.6497 386.057 77.1159C386.057 74.7632 386.667 72.614 387.889 70.6685C389.156 68.6777 391.079 67.0941 393.658 65.9178C396.237 64.6961 399.54 64.0853 403.567 64.0853C406.236 64.0853 408.883 64.4699 411.507 65.2391C414.131 65.963 416.394 66.981 418.294 68.2931L416.597 72.2973C414.561 70.94 412.389 69.9446 410.082 69.3111C407.82 68.6777 405.625 68.361 403.499 68.361C400.648 68.361 398.296 68.7456 396.44 69.5148C394.585 70.2839 393.205 71.3246 392.301 72.6367C391.441 73.9035 391.011 75.3514 391.011 76.9802C391.011 78.8353 391.531 80.3284 392.572 81.4595C393.658 82.5906 395.06 83.4729 396.78 84.1063C398.544 84.7398 400.467 85.3053 402.549 85.803C404.63 86.3007 406.688 86.8437 408.725 87.4319C410.806 88.02 412.706 88.7892 414.425 89.7394C416.19 90.6443 417.593 91.8659 418.633 93.4042C419.719 94.9426 420.262 96.956 420.262 99.4445C420.262 101.752 419.629 103.901 418.362 105.892C417.095 107.837 415.149 109.421 412.525 110.643C409.946 111.819 406.621 112.407 402.549 112.407ZM431.205 112V64.4925H436.227V112H431.205ZM79.7369 170V122.493H84.7591V165.656H111.363V170H79.7369ZM112.101 170L133.819 122.493H138.773L160.491 170H155.197L135.244 125.411H137.28L117.327 170H112.101ZM120.652 157.309L122.145 153.237H149.767L151.261 157.309H120.652ZM176.9 170V152.354L178.054 155.476L157.897 122.493H163.258L180.972 151.472H178.121L195.835 122.493H200.857L180.7 155.476L181.854 152.354V170H176.9ZM198.261 170L219.979 122.493H224.933L246.651 170H241.357L221.404 125.411H223.44L203.487 170H198.261ZM206.812 157.309L208.306 153.237H235.928L237.421 157.309H206.812ZM254.51 170V122.493H258.65L291.43 163.756H289.258V122.493H294.212V170H290.073L257.36 128.736H259.532V170H254.51ZM302.117 170L323.835 122.493H328.79L350.507 170H345.214L325.26 125.411H327.296L307.343 170H302.117ZM310.669 157.309L312.162 153.237H339.784L341.277 157.309H310.669ZM358.366 170V122.493H362.506L395.286 163.756H393.114V122.493H398.069V170H393.929L361.217 128.736H363.388V170H358.366Z" fill="white"/>
<path d="M82.9271 193.908L82.7077 189.48L88.7121 183.036H93.0607L87.0763 189.52L84.882 191.814L82.9271 193.908ZM79.3964 197V183.036H83.3062V197H79.3964ZM88.7719 197L84.2238 191.235L86.797 188.482L93.3599 197H88.7719ZM96.3963 197V183.036H100.346V193.868H107.009V197H96.3963ZM110.572 197V183.036H114.521V197H110.572ZM122.862 193.908L122.643 189.48L128.647 183.036H132.996L127.011 189.52L124.817 191.814L122.862 193.908ZM119.331 197V183.036H123.241V197H119.331ZM128.707 197L124.159 191.235L126.732 188.482L133.295 197H128.707ZM150.58 197.279C148.518 197.279 146.909 196.714 145.752 195.584C144.595 194.453 144.017 192.851 144.017 190.776V183.036H147.966V190.657C147.966 191.853 148.199 192.711 148.665 193.23C149.143 193.748 149.795 194.008 150.619 194.008C151.444 194.008 152.089 193.748 152.554 193.23C153.02 192.711 153.253 191.853 153.253 190.657V183.036H157.142V190.776C157.142 192.851 156.564 194.453 155.407 195.584C154.25 196.714 152.641 197.279 150.58 197.279ZM161.818 197V183.036H165.07L172.77 192.332H171.234V183.036H175.103V197H171.852L164.152 187.704H165.688V197H161.818ZM182.862 197V186.168H178.573V183.036H191.08V186.168H186.811V197H182.862ZM200.781 197.279C198.719 197.279 197.11 196.714 195.953 195.584C194.796 194.453 194.218 192.851 194.218 190.776V183.036H198.167V190.657C198.167 191.853 198.4 192.711 198.866 193.23C199.344 193.748 199.996 194.008 200.821 194.008C201.645 194.008 202.29 193.748 202.755 193.23C203.221 192.711 203.454 191.853 203.454 190.657V183.036H207.344V190.776C207.344 192.851 206.765 194.453 205.608 195.584C204.451 196.714 202.842 197.279 200.781 197.279ZM215.55 193.908L215.331 189.48L221.335 183.036H225.684L219.699 189.52L217.505 191.814L215.55 193.908ZM212.019 197V183.036H215.929V197H212.019ZM221.395 197L216.847 191.235L219.42 188.482L225.983 197H221.395ZM236.824 197V183.036H240.774V193.868H247.437V197H236.824ZM254.63 188.442H261.113V191.395H254.63V188.442ZM254.909 193.948H262.21V197H251V183.036H261.951V186.088H254.909V193.948ZM266.402 197V183.036H273.543C275.379 183.036 276.748 183.376 277.653 184.054C278.557 184.719 279.009 185.596 279.009 186.687C279.009 187.405 278.816 188.037 278.431 188.582C278.058 189.114 277.526 189.539 276.835 189.859C276.157 190.165 275.345 190.317 274.401 190.317L274.8 189.36C275.784 189.36 276.642 189.513 277.373 189.819C278.105 190.111 278.67 190.544 279.069 191.115C279.481 191.674 279.687 192.359 279.687 193.17C279.687 194.38 279.195 195.324 278.211 196.003C277.24 196.668 275.817 197 273.942 197H266.402ZM270.312 194.147H273.623C274.301 194.147 274.813 194.034 275.159 193.808C275.518 193.569 275.698 193.21 275.698 192.731C275.698 192.252 275.518 191.9 275.159 191.674C274.813 191.435 274.301 191.315 273.623 191.315H270.033V188.582H273.025C273.69 188.582 274.188 188.469 274.521 188.243C274.853 188.017 275.02 187.678 275.02 187.226C275.02 186.773 274.853 186.441 274.521 186.228C274.188 186.002 273.69 185.889 273.025 185.889H270.312V194.147ZM283.733 197V183.036H287.683V197H283.733ZM301.829 183.036H305.778V197H301.829V183.036ZM296.443 197H292.493V183.036H296.443V197ZM302.108 191.554H296.163V188.283H302.108V191.554ZM318.369 197V183.036H322.319V193.868H328.982V197H318.369ZM331.005 197L337.169 183.036H341.059L347.243 197H343.134L338.306 184.971H339.862L335.035 197H331.005ZM334.377 194.287L335.394 191.375H342.216L343.233 194.287H334.377ZM350.363 197V183.036H353.614L361.314 192.332H359.778V183.036H363.648V197H360.397L352.697 187.704H354.233V197H350.363ZM371.486 197.279C370.462 197.279 369.531 197.106 368.693 196.761C367.869 196.402 367.184 195.89 366.639 195.225L368.793 192.671C369.166 193.15 369.551 193.516 369.95 193.768C370.349 194.008 370.768 194.127 371.207 194.127C372.377 194.127 372.962 193.449 372.962 192.093V186.088H368.135V183.036H376.872V191.853C376.872 193.675 376.413 195.038 375.496 195.943C374.578 196.834 373.242 197.279 371.486 197.279ZM387.981 197.279C385.92 197.279 384.311 196.714 383.154 195.584C381.997 194.453 381.418 192.851 381.418 190.776V183.036H385.368V190.657C385.368 191.853 385.601 192.711 386.066 193.23C386.545 193.748 387.196 194.008 388.021 194.008C388.846 194.008 389.491 193.748 389.956 193.23C390.421 192.711 390.654 191.853 390.654 190.657V183.036H394.544V190.776C394.544 192.851 393.966 194.453 392.809 195.584C391.652 196.714 390.042 197.279 387.981 197.279ZM401.978 197V186.168H397.689V183.036H410.196V186.168H405.927V197H401.978Z" fill="white"/>
<path fill-rule="evenodd" clip-rule="evenodd" d="M1000 127.5C1000 155.943 976.943 179 948.5 179C920.057 179 897 155.943 897 127.5C897 99.0573 920.057 76 948.5 76C976.943 76 1000 99.0573 1000 127.5ZM1005 127.5C1005 158.704 979.704 184 948.5 184C917.296 184 892 158.704 892 127.5C892 96.2959 917.296 71 948.5 71C979.704 71 1005 96.2959 1005 127.5ZM944.034 147.975L925.776 116.298C923.777 112.83 927.547 108.901 931.094 110.755L941.016 115.94C945.078 118.063 949.922 118.063 953.984 115.94L963.906 110.755C967.453 108.901 971.223 112.83 969.224 116.298L950.965 147.975C949.426 150.645 945.573 150.645 944.034 147.975ZM955.297 150.472C951.835 156.479 943.165 156.479 939.702 150.472L921.444 118.795C916.947 110.992 925.428 102.153 933.41 106.324L943.332 111.509C945.943 112.873 949.057 112.873 951.668 111.509L961.59 106.324C969.571 102.153 978.053 110.992 973.556 118.795L955.297 150.472Z" fill="white"/>
</svg>
