<svg width="1080" height="256" viewBox="0 0 1080 256" fill="none" xmlns="http://www.w3.org/2000/svg">
<rect width="1080" height="256" fill="#212121"/>
<path d="M82.9271 193.908L82.7077 189.48L88.7121 183.036H93.0607L87.0763 189.52L84.882 191.814L82.9271 193.908ZM79.3964 197V183.036H83.3062V197H79.3964ZM88.7719 197L84.2238 191.235L86.797 188.482L93.3599 197H88.7719ZM96.3963 197V183.036H100.346V193.868H107.009V197H96.3963ZM110.572 197V183.036H114.521V197H110.572ZM122.862 193.908L122.643 189.48L128.647 183.036H132.996L127.011 189.52L124.817 191.814L122.862 193.908ZM119.331 197V183.036H123.241V197H119.331ZM128.707 197L124.159 191.235L126.732 188.482L133.295 197H128.707ZM150.58 197.279C148.518 197.279 146.909 196.714 145.752 195.584C144.595 194.453 144.017 192.851 144.017 190.776V183.036H147.966V190.657C147.966 191.853 148.199 192.711 148.665 193.23C149.143 193.748 149.795 194.008 150.619 194.008C151.444 194.008 152.089 193.748 152.554 193.23C153.02 192.711 153.253 191.853 153.253 190.657V183.036H157.142V190.776C157.142 192.851 156.564 194.453 155.407 195.584C154.25 196.714 152.641 197.279 150.58 197.279ZM161.818 197V183.036H165.07L172.77 192.332H171.234V183.036H175.103V197H171.852L164.152 187.704H165.688V197H161.818ZM182.862 197V186.168H178.573V183.036H191.08V186.168H186.811V197H182.862ZM200.781 197.279C198.719 197.279 197.11 196.714 195.953 195.584C194.796 194.453 194.218 192.851 194.218 190.776V183.036H198.167V190.657C198.167 191.853 198.4 192.711 198.866 193.23C199.344 193.748 199.996 194.008 200.821 194.008C201.645 194.008 202.29 193.748 202.755 193.23C203.221 192.711 203.454 191.853 203.454 190.657V183.036H207.344V190.776C207.344 192.851 206.765 194.453 205.608 195.584C204.451 196.714 202.842 197.279 200.781 197.279ZM215.55 193.908L215.331 189.48L221.335 183.036H225.684L219.699 189.52L217.505 191.814L215.55 193.908ZM212.019 197V183.036H215.929V197H212.019ZM221.395 197L216.847 191.235L219.42 188.482L225.983 197H221.395ZM236.824 197V183.036H240.774V193.868H247.437V197H236.824ZM254.63 188.442H261.113V191.395H254.63V188.442ZM254.909 193.948H262.21V197H251V183.036H261.951V186.088H254.909V193.948ZM266.402 197V183.036H273.543C275.379 183.036 276.748 183.376 277.653 184.054C278.557 184.719 279.009 185.596 279.009 186.687C279.009 187.405 278.816 188.037 278.431 188.582C278.058 189.114 277.526 189.539 276.835 189.859C276.157 190.165 275.345 190.317 274.401 190.317L274.8 189.36C275.784 189.36 276.642 189.513 277.373 189.819C278.105 190.111 278.67 190.544 279.069 191.115C279.481 191.674 279.687 192.359 279.687 193.17C279.687 194.38 279.195 195.324 278.211 196.003C277.24 196.668 275.817 197 273.942 197H266.402ZM270.312 194.147H273.623C274.301 194.147 274.813 194.034 275.159 193.808C275.518 193.569 275.698 193.21 275.698 192.731C275.698 192.252 275.518 191.9 275.159 191.674C274.813 191.435 274.301 191.315 273.623 191.315H270.033V188.582H273.025C273.69 188.582 274.188 188.469 274.521 188.243C274.853 188.017 275.02 187.678 275.02 187.226C275.02 186.773 274.853 186.441 274.521 186.228C274.188 186.002 273.69 185.889 273.025 185.889H270.312V194.147ZM283.733 197V183.036H287.683V197H283.733ZM301.829 183.036H305.778V197H301.829V183.036ZM296.443 197H292.493V183.036H296.443V197ZM302.108 191.554H296.163V188.283H302.108V191.554ZM318.369 197V183.036H322.319V193.868H328.982V197H318.369ZM331.005 197L337.169 183.036H341.059L347.243 197H343.134L338.306 184.971H339.862L335.035 197H331.005ZM334.377 194.287L335.394 191.375H342.216L343.233 194.287H334.377ZM350.363 197V183.036H353.614L361.314 192.332H359.778V183.036H363.648V197H360.397L352.697 187.704H354.233V197H350.363ZM371.486 197.279C370.462 197.279 369.531 197.106 368.693 196.761C367.869 196.402 367.184 195.89 366.639 195.225L368.793 192.671C369.166 193.15 369.551 193.516 369.95 193.768C370.349 194.008 370.768 194.127 371.207 194.127C372.377 194.127 372.962 193.449 372.962 192.093V186.088H368.135V183.036H376.872V191.853C376.872 193.675 376.413 195.038 375.496 195.943C374.578 196.834 373.242 197.279 371.486 197.279ZM387.981 197.279C385.92 197.279 384.311 196.714 383.154 195.584C381.997 194.453 381.418 192.851 381.418 190.776V183.036H385.368V190.657C385.368 191.853 385.601 192.711 386.066 193.23C386.545 193.748 387.196 194.008 388.021 194.008C388.846 194.008 389.491 193.748 389.956 193.23C390.421 192.711 390.654 191.853 390.654 190.657V183.036H394.544V190.776C394.544 192.851 393.966 194.453 392.809 195.584C391.652 196.714 390.042 197.279 387.981 197.279ZM401.978 197V186.168H397.689V183.036H410.196V186.168H405.927V197H401.978Z" fill="white"/>
<path d="M91.0709 112V94.3544L92.2246 97.4763L72.0679 64.4925H77.4294L95.1429 93.4721H92.2925L110.006 64.4925H115.028L94.8715 97.4763L96.0252 94.3544V112H91.0709ZM112.432 112L134.15 64.4925H139.104L160.822 112H155.528L135.575 67.4109H137.611L117.658 112H112.432ZM120.984 99.3087L122.477 95.2367H150.099L151.592 99.3087H120.984ZM168.681 112V64.4925H172.821L205.601 105.756H203.429V64.4925H208.384V112H204.244L171.531 70.7364H173.703V112H168.681ZM244.725 112.407C241.106 112.407 237.757 111.819 234.681 110.643C231.649 109.421 229.002 107.724 226.74 105.553C224.523 103.381 222.781 100.824 221.514 97.8835C220.293 94.9426 219.682 91.7301 219.682 88.2463C219.682 84.7624 220.293 81.55 221.514 78.609C222.781 75.6681 224.546 73.1117 226.808 70.94C229.07 68.7682 231.717 67.0941 234.749 65.9178C237.825 64.6961 241.173 64.0853 244.793 64.0853C248.413 64.0853 251.716 64.6509 254.702 65.782C257.733 66.9132 260.312 68.6325 262.439 70.94L259.317 74.1298C257.326 72.139 255.132 70.7137 252.734 69.8541C250.336 68.9944 247.757 68.5646 244.997 68.5646C242.056 68.5646 239.341 69.0623 236.852 70.0577C234.409 71.0078 232.26 72.3878 230.405 74.1976C228.595 75.9622 227.17 78.0435 226.129 80.4415C225.134 82.7942 224.636 85.3958 224.636 88.2463C224.636 91.0515 225.134 93.6531 226.129 96.0511C227.17 98.4491 228.595 100.553 230.405 102.363C232.26 104.127 234.409 105.507 236.852 106.503C239.341 107.453 242.033 107.928 244.929 107.928C247.643 107.928 250.2 107.521 252.598 106.706C255.041 105.892 257.281 104.512 259.317 102.566L262.167 106.367C259.905 108.358 257.258 109.873 254.227 110.914C251.195 111.91 248.028 112.407 244.725 112.407ZM257.349 105.756V88.2463H262.167V106.367L257.349 105.756ZM328.892 64.4925H333.846V112H328.892V64.4925ZM299.166 112H294.144V64.4925H299.166V112ZM329.367 90.0787H298.623V85.6673H329.367V90.0787ZM341.751 112L363.469 64.4925H368.423L390.141 112H384.847L364.894 67.4109H366.93L346.977 112H341.751ZM350.303 99.3087L351.796 95.2367H379.418L380.911 99.3087H350.303ZM398 112V64.4925H415.781C419.808 64.4925 423.269 65.1486 426.165 66.4607C429.061 67.7276 431.278 69.5826 432.816 72.0259C434.4 74.4239 435.191 77.3422 435.191 80.7808C435.191 84.129 434.4 87.0246 432.816 89.4679C431.278 91.8659 429.061 93.7209 426.165 95.033C423.269 96.2999 419.808 96.9333 415.781 96.9333H400.782L403.022 94.6258V112H398ZM430.441 112L418.224 94.7616H423.654L435.938 112H430.441ZM403.022 95.033L400.782 92.6577H415.645C420.396 92.6577 423.993 91.617 426.436 89.5358C428.925 87.4545 430.169 84.5362 430.169 80.7808C430.169 76.9802 428.925 74.0393 426.436 71.958C423.993 69.8767 420.396 68.8361 415.645 68.8361H400.782L403.022 66.4607V95.033ZM466.184 112.407C460.121 112.407 455.347 110.665 451.864 107.181C448.38 103.698 446.638 98.5396 446.638 91.7075V64.4925H451.66V91.5039C451.66 97.1143 452.927 101.254 455.461 103.924C457.994 106.593 461.569 107.928 466.184 107.928C470.844 107.928 474.441 106.593 476.975 103.924C479.508 101.254 480.775 97.1143 480.775 91.5039V64.4925H485.662V91.7075C485.662 98.5396 483.92 103.698 480.436 107.181C476.997 110.665 472.246 112.407 466.184 112.407ZM513.894 112.407C510.365 112.407 506.972 111.842 503.714 110.711C500.502 109.534 498.013 108.041 496.249 106.231L498.217 102.363C499.891 103.992 502.13 105.372 504.936 106.503C507.786 107.589 510.772 108.132 513.894 108.132C516.88 108.132 519.301 107.77 521.156 107.046C523.056 106.276 524.436 105.258 525.296 103.992C526.201 102.725 526.653 101.322 526.653 99.7838C526.653 97.9287 526.11 96.4356 525.024 95.3045C523.984 94.1734 522.604 93.2911 520.885 92.6577C519.165 91.979 517.265 91.3908 515.184 90.8931C513.102 90.3954 511.021 89.8751 508.94 89.3322C506.859 88.744 504.936 87.9748 503.171 87.0246C501.452 86.0745 500.049 84.8303 498.963 83.2919C497.923 81.7083 497.402 79.6497 497.402 77.1159C497.402 74.7632 498.013 72.614 499.235 70.6685C500.502 68.6777 502.425 67.0941 505.003 65.9178C507.582 64.6961 510.885 64.0853 514.912 64.0853C517.582 64.0853 520.228 64.4699 522.853 65.2391C525.477 65.963 527.739 66.981 529.639 68.2931L527.943 72.2973C525.907 70.94 523.735 69.9446 521.427 69.3111C519.165 68.6777 516.971 68.361 514.844 68.361C511.994 68.361 509.641 68.7456 507.786 69.5148C505.931 70.2839 504.551 71.3246 503.646 72.6367C502.786 73.9035 502.357 75.3514 502.357 76.9802C502.357 78.8353 502.877 80.3284 503.918 81.4595C505.003 82.5906 506.406 83.4729 508.125 84.1063C509.89 84.7398 511.813 85.3053 513.894 85.803C515.975 86.3007 518.034 86.8437 520.07 87.4319C522.151 88.02 524.052 88.7892 525.771 89.7394C527.536 90.6443 528.938 91.8659 529.979 93.4042C531.065 94.9426 531.608 96.956 531.608 99.4445C531.608 101.752 530.974 103.901 529.707 105.892C528.44 107.837 526.495 109.421 523.871 110.643C521.292 111.819 517.966 112.407 513.894 112.407ZM84.0805 158.191L83.8769 152.083L112.653 122.493H118.422L97.4504 144.482L94.6 147.536L84.0805 158.191ZM79.7369 170V122.493H84.7591V170H79.7369ZM113.874 170L93.3784 146.382L96.7717 142.717L119.847 170H113.874ZM127.987 170V122.493H133.009V165.656H159.613V170H127.987ZM167.952 170V122.493H172.974V170H167.952ZM192.911 143.735H218.022V148.011H192.911V143.735ZM193.454 165.656H222.026V170H188.431V122.493H221.008V126.836H193.454V165.656ZM233.831 170V122.493H237.971L270.751 163.756H268.58V122.493H273.534V170H269.394L236.682 128.736H238.854V170H233.831ZM319.901 170.407C316.372 170.407 312.978 169.842 309.721 168.711C306.508 167.534 304.02 166.041 302.255 164.231L304.223 160.363C305.898 161.992 308.137 163.372 310.942 164.503C313.793 165.589 316.779 166.132 319.901 166.132C322.887 166.132 325.308 165.77 327.163 165.046C329.063 164.276 330.443 163.258 331.303 161.992C332.208 160.725 332.66 159.322 332.66 157.784C332.66 155.929 332.117 154.436 331.031 153.305C329.991 152.173 328.611 151.291 326.891 150.658C325.172 149.979 323.272 149.391 321.19 148.893C319.109 148.395 317.028 147.875 314.947 147.332C312.865 146.744 310.942 145.975 309.178 145.025C307.459 144.074 306.056 142.83 304.97 141.292C303.929 139.708 303.409 137.65 303.409 135.116C303.409 132.763 304.02 130.614 305.241 128.669C306.508 126.678 308.431 125.094 311.01 123.918C313.589 122.696 316.892 122.085 320.919 122.085C323.588 122.085 326.235 122.47 328.859 123.239C331.484 123.963 333.746 124.981 335.646 126.293L333.95 130.297C331.914 128.94 329.742 127.945 327.434 127.311C325.172 126.678 322.978 126.361 320.851 126.361C318.001 126.361 315.648 126.746 313.793 127.515C311.938 128.284 310.558 129.325 309.653 130.637C308.793 131.904 308.363 133.351 308.363 134.98C308.363 136.835 308.884 138.328 309.924 139.459C311.01 140.591 312.413 141.473 314.132 142.106C315.897 142.74 317.82 143.305 319.901 143.803C321.982 144.301 324.041 144.844 326.077 145.432C328.158 146.02 330.058 146.789 331.778 147.739C333.542 148.644 334.945 149.866 335.986 151.404C337.071 152.943 337.614 154.956 337.614 157.444C337.614 159.752 336.981 161.901 335.714 163.892C334.447 165.837 332.502 167.421 329.878 168.643C327.299 169.819 323.973 170.407 319.901 170.407ZM348.557 170V122.493H353.579V170H348.557ZM361.436 170L383.153 122.493H388.108L409.825 170H404.532L384.578 125.411H386.614L366.661 170H361.436ZM369.987 157.309L371.48 153.237H399.102L400.595 157.309H369.987ZM417.684 170V122.493H435.466C439.492 122.493 442.954 123.149 445.849 124.461C448.745 125.728 450.962 127.583 452.5 130.026C454.084 132.424 454.876 135.342 454.876 138.781C454.876 142.129 454.084 145.025 452.5 147.468C450.962 149.866 448.745 151.721 445.849 153.033C442.954 154.345 439.492 155.001 435.466 155.001H420.467L422.706 152.626V170H417.684ZM422.706 153.033L420.467 150.59H435.33C440.081 150.59 443.678 149.572 446.121 147.536C448.609 145.454 449.853 142.536 449.853 138.781C449.853 134.98 448.609 132.039 446.121 129.958C443.678 127.877 440.081 126.836 435.33 126.836H420.467L422.706 124.461V153.033ZM470.079 158.191L469.875 152.083L498.651 122.493H504.42L483.449 144.482L480.598 147.536L470.079 158.191ZM465.735 170V122.493H470.757V170H465.735ZM499.873 170L479.376 146.382L482.77 142.717L505.845 170H499.873ZM504.528 170L526.246 122.493H531.2L552.918 170H547.624L527.671 125.411H529.707L509.754 170H504.528ZM513.079 157.309L514.572 153.237H542.195L543.688 157.309H513.079ZM560.777 170V122.493H564.916L597.697 163.756H595.525V122.493H600.479V170H596.339L563.627 128.736H565.799V170H560.777Z" fill="white"/>
<path fill-rule="evenodd" clip-rule="evenodd" d="M1000 127.5C1000 155.943 976.943 179 948.5 179C920.057 179 897 155.943 897 127.5C897 99.0573 920.057 76 948.5 76C976.943 76 1000 99.0573 1000 127.5ZM1005 127.5C1005 158.704 979.704 184 948.5 184C917.296 184 892 158.704 892 127.5C892 96.2959 917.296 71 948.5 71C979.704 71 1005 96.2959 1005 127.5ZM944.034 147.975L925.776 116.298C923.777 112.83 927.547 108.901 931.094 110.755L941.016 115.94C945.078 118.063 949.922 118.063 953.984 115.94L963.906 110.755C967.453 108.901 971.223 112.83 969.224 116.298L950.965 147.975C949.426 150.645 945.573 150.645 944.034 147.975ZM955.297 150.472C951.835 156.479 943.165 156.479 939.702 150.472L921.444 118.795C916.947 110.992 925.428 102.153 933.41 106.324L943.332 111.509C945.943 112.873 949.057 112.873 951.668 111.509L961.59 106.324C969.571 102.153 978.053 110.992 973.556 118.795L955.297 150.472Z" fill="white"/>
</svg>
