<svg width="1080" height="256" viewBox="0 0 1080 256" fill="none" xmlns="http://www.w3.org/2000/svg">
<rect width="1080" height="256" fill="#212121"/>
<path d="M82.9271 193.908L82.7077 189.48L88.7121 183.036H93.0607L87.0763 189.52L84.882 191.814L82.9271 193.908ZM79.3964 197V183.036H83.3062V197H79.3964ZM88.7719 197L84.2238 191.235L86.797 188.482L93.3599 197H88.7719ZM96.3963 197V183.036H100.346V193.868H107.009V197H96.3963ZM110.572 197V183.036H114.521V197H110.572ZM122.862 193.908L122.643 189.48L128.647 183.036H132.996L127.011 189.52L124.817 191.814L122.862 193.908ZM119.331 197V183.036H123.241V197H119.331ZM128.707 197L124.159 191.235L126.732 188.482L133.295 197H128.707ZM150.58 197.279C148.518 197.279 146.909 196.714 145.752 195.584C144.595 194.453 144.017 192.851 144.017 190.776V183.036H147.966V190.657C147.966 191.853 148.199 192.711 148.665 193.23C149.143 193.748 149.795 194.008 150.619 194.008C151.444 194.008 152.089 193.748 152.554 193.23C153.02 192.711 153.253 191.853 153.253 190.657V183.036H157.142V190.776C157.142 192.851 156.564 194.453 155.407 195.584C154.25 196.714 152.641 197.279 150.58 197.279ZM161.818 197V183.036H165.07L172.77 192.332H171.234V183.036H175.103V197H171.852L164.152 187.704H165.688V197H161.818ZM182.862 197V186.168H178.573V183.036H191.08V186.168H186.811V197H182.862ZM200.781 197.279C198.719 197.279 197.11 196.714 195.953 195.584C194.796 194.453 194.218 192.851 194.218 190.776V183.036H198.167V190.657C198.167 191.853 198.4 192.711 198.866 193.23C199.344 193.748 199.996 194.008 200.821 194.008C201.645 194.008 202.29 193.748 202.755 193.23C203.221 192.711 203.454 191.853 203.454 190.657V183.036H207.344V190.776C207.344 192.851 206.765 194.453 205.608 195.584C204.451 196.714 202.842 197.279 200.781 197.279ZM215.55 193.908L215.331 189.48L221.335 183.036H225.684L219.699 189.52L217.505 191.814L215.55 193.908ZM212.019 197V183.036H215.929V197H212.019ZM221.395 197L216.847 191.235L219.42 188.482L225.983 197H221.395ZM236.824 197V183.036H240.774V193.868H247.437V197H236.824ZM254.63 188.442H261.113V191.395H254.63V188.442ZM254.909 193.948H262.21V197H251V183.036H261.951V186.088H254.909V193.948ZM266.402 197V183.036H273.543C275.379 183.036 276.748 183.376 277.653 184.054C278.557 184.719 279.009 185.596 279.009 186.687C279.009 187.405 278.816 188.037 278.431 188.582C278.058 189.114 277.526 189.539 276.835 189.859C276.157 190.165 275.345 190.317 274.401 190.317L274.8 189.36C275.784 189.36 276.642 189.513 277.373 189.819C278.105 190.111 278.67 190.544 279.069 191.115C279.481 191.674 279.687 192.359 279.687 193.17C279.687 194.38 279.195 195.324 278.211 196.003C277.24 196.668 275.817 197 273.942 197H266.402ZM270.312 194.147H273.623C274.301 194.147 274.813 194.034 275.159 193.808C275.518 193.569 275.698 193.21 275.698 192.731C275.698 192.252 275.518 191.9 275.159 191.674C274.813 191.435 274.301 191.315 273.623 191.315H270.033V188.582H273.025C273.69 188.582 274.188 188.469 274.521 188.243C274.853 188.017 275.02 187.678 275.02 187.226C275.02 186.773 274.853 186.441 274.521 186.228C274.188 186.002 273.69 185.889 273.025 185.889H270.312V194.147ZM283.733 197V183.036H287.683V197H283.733ZM301.829 183.036H305.778V197H301.829V183.036ZM296.443 197H292.493V183.036H296.443V197ZM302.108 191.554H296.163V188.283H302.108V191.554ZM318.369 197V183.036H322.319V193.868H328.982V197H318.369ZM331.005 197L337.169 183.036H341.059L347.243 197H343.134L338.306 184.971H339.862L335.035 197H331.005ZM334.377 194.287L335.394 191.375H342.216L343.233 194.287H334.377ZM350.363 197V183.036H353.614L361.314 192.332H359.778V183.036H363.648V197H360.397L352.697 187.704H354.233V197H350.363ZM371.486 197.279C370.462 197.279 369.531 197.106 368.693 196.761C367.869 196.402 367.184 195.89 366.639 195.225L368.793 192.671C369.166 193.15 369.551 193.516 369.95 193.768C370.349 194.008 370.768 194.127 371.207 194.127C372.377 194.127 372.962 193.449 372.962 192.093V186.088H368.135V183.036H376.872V191.853C376.872 193.675 376.413 195.038 375.496 195.943C374.578 196.834 373.242 197.279 371.486 197.279ZM387.981 197.279C385.92 197.279 384.311 196.714 383.154 195.584C381.997 194.453 381.418 192.851 381.418 190.776V183.036H385.368V190.657C385.368 191.853 385.601 192.711 386.066 193.23C386.545 193.748 387.196 194.008 388.021 194.008C388.846 194.008 389.491 193.748 389.956 193.23C390.421 192.711 390.654 191.853 390.654 190.657V183.036H394.544V190.776C394.544 192.851 393.966 194.453 392.809 195.584C391.652 196.714 390.042 197.279 387.981 197.279ZM401.978 197V186.168H397.689V183.036H410.196V186.168H405.927V197H401.978Z" fill="white"/>
<path d="M79.7369 112V64.4925H97.5183C101.545 64.4925 105.006 65.1486 107.902 66.4607C110.798 67.7276 113.015 69.5826 114.553 72.0259C116.137 74.4239 116.928 77.3422 116.928 80.7808C116.928 84.129 116.137 87.0246 114.553 89.4679C113.015 91.8659 110.798 93.7209 107.902 95.033C105.006 96.3452 101.545 97.0012 97.5183 97.0012H82.5195L84.7591 94.6258V112H79.7369ZM84.7591 95.033L82.5195 92.5898H97.3826C102.133 92.5898 105.73 91.5718 108.174 89.5358C110.662 87.4545 111.906 84.5362 111.906 80.7808C111.906 76.9802 110.662 74.0393 108.174 71.958C105.73 69.8767 102.133 68.8361 97.3826 68.8361H82.5195L84.7591 66.4607V95.033ZM127.788 112V64.4925H145.569C149.596 64.4925 153.057 65.1486 155.953 66.4607C158.849 67.7276 161.066 69.5826 162.604 72.0259C164.188 74.4239 164.979 77.3422 164.979 80.7808C164.979 84.129 164.188 87.0246 162.604 89.4679C161.066 91.8659 158.849 93.7209 155.953 95.033C153.057 96.2999 149.596 96.9333 145.569 96.9333H130.57L132.81 94.6258V112H127.788ZM160.229 112L148.012 94.7616H153.442L165.726 112H160.229ZM132.81 95.033L130.57 92.6577H145.433C150.184 92.6577 153.781 91.617 156.224 89.5358C158.713 87.4545 159.957 84.5362 159.957 80.7808C159.957 76.9802 158.713 74.0393 156.224 71.958C153.781 69.8767 150.184 68.8361 145.433 68.8361H130.57L132.81 66.4607V95.033ZM197.601 112.407C194.026 112.407 190.701 111.819 187.624 110.643C184.593 109.421 181.946 107.724 179.683 105.553C177.466 103.336 175.724 100.779 174.458 97.8835C173.236 94.9426 172.625 91.7301 172.625 88.2463C172.625 84.7624 173.236 81.5726 174.458 78.6769C175.724 75.736 177.466 73.1796 179.683 71.0078C181.946 68.7908 184.593 67.0941 187.624 65.9178C190.655 64.6961 193.981 64.0853 197.601 64.0853C201.175 64.0853 204.478 64.6961 207.509 65.9178C210.541 67.0941 213.165 68.7682 215.382 70.94C217.644 73.1117 219.386 75.6681 220.608 78.609C221.875 81.55 222.508 84.7624 222.508 88.2463C222.508 91.7301 221.875 94.9426 220.608 97.8835C219.386 100.824 217.644 103.381 215.382 105.553C213.165 107.724 210.541 109.421 207.509 110.643C204.478 111.819 201.175 112.407 197.601 112.407ZM197.601 107.928C200.451 107.928 203.075 107.453 205.473 106.503C207.916 105.507 210.02 104.127 211.785 102.363C213.595 100.553 214.997 98.4717 215.993 96.1189C216.988 93.7209 217.486 91.0967 217.486 88.2463C217.486 85.3958 216.988 82.7942 215.993 80.4415C214.997 78.0435 213.595 75.9622 211.785 74.1976C210.02 72.3878 207.916 71.0078 205.473 70.0577C203.075 69.0623 200.451 68.5646 197.601 68.5646C194.75 68.5646 192.103 69.0623 189.66 70.0577C187.217 71.0078 185.09 72.3878 183.28 74.1976C181.516 75.9622 180.113 78.0435 179.073 80.4415C178.077 82.7942 177.58 85.3958 177.58 88.2463C177.58 91.0515 178.077 93.6531 179.073 96.0511C180.113 98.4491 181.516 100.553 183.28 102.363C185.09 104.127 187.217 105.507 189.66 106.503C192.103 107.453 194.75 107.928 197.601 107.928ZM246.864 112.407C243.334 112.407 239.941 111.842 236.683 110.711C233.471 109.534 230.982 108.041 229.218 106.231L231.186 102.363C232.86 103.992 235.1 105.372 237.905 106.503C240.755 107.589 243.742 108.132 246.864 108.132C249.85 108.132 252.27 107.77 254.125 107.046C256.026 106.276 257.406 105.258 258.265 103.992C259.17 102.725 259.623 101.322 259.623 99.7838C259.623 97.9287 259.08 96.4356 257.994 95.3045C256.953 94.1734 255.573 93.2911 253.854 92.6577C252.135 91.979 250.234 91.3908 248.153 90.8931C246.072 90.3954 243.99 89.8751 241.909 89.3322C239.828 88.744 237.905 87.9748 236.14 87.0246C234.421 86.0745 233.018 84.8303 231.933 83.2919C230.892 81.7083 230.372 79.6497 230.372 77.1159C230.372 74.7632 230.982 72.614 232.204 70.6685C233.471 68.6777 235.394 67.0941 237.973 65.9178C240.552 64.6961 243.855 64.0853 247.882 64.0853C250.551 64.0853 253.198 64.4699 255.822 65.2391C258.446 65.963 260.709 66.981 262.609 68.2931L260.912 72.2973C258.876 70.94 256.704 69.9446 254.397 69.3111C252.135 68.6777 249.94 68.361 247.814 68.361C244.963 68.361 242.61 68.7456 240.755 69.5148C238.9 70.2839 237.52 71.3246 236.615 72.6367C235.756 73.9035 235.326 75.3514 235.326 76.9802C235.326 78.8353 235.846 80.3284 236.887 81.4595C237.973 82.5906 239.375 83.4729 241.095 84.1063C242.859 84.7398 244.782 85.3053 246.864 85.803C248.945 86.3007 251.003 86.8437 253.039 87.4319C255.121 88.02 257.021 88.7892 258.74 89.7394C260.505 90.6443 261.908 91.8659 262.948 93.4042C264.034 94.9426 264.577 96.956 264.577 99.4445C264.577 101.752 263.944 103.901 262.677 105.892C261.41 107.837 259.464 109.421 256.84 110.643C254.261 111.819 250.936 112.407 246.864 112.407ZM279.999 85.7352H305.11V90.0108H279.999V85.7352ZM280.542 107.656H309.114V112H275.52V64.4925H308.096V68.8361H280.542V107.656ZM320.919 112V64.4925H340.262C345.329 64.4925 349.763 65.5106 353.564 67.5466C357.41 69.5374 360.396 72.32 362.522 75.8943C364.649 79.4687 365.712 83.586 365.712 88.2463C365.712 92.9065 364.649 97.0238 362.522 100.598C360.396 104.173 357.41 106.978 353.564 109.014C349.763 111.005 345.329 112 340.262 112H320.919ZM325.942 107.656H339.99C344.198 107.656 347.84 106.842 350.917 105.213C354.039 103.539 356.46 101.254 358.179 98.3586C359.898 95.4176 360.758 92.0469 360.758 88.2463C360.758 84.4004 359.898 81.0297 358.179 78.134C356.46 75.2383 354.039 72.976 350.917 71.3472C347.84 69.6731 344.198 68.8361 339.99 68.8361H325.942V107.656ZM396.129 112.407C390.066 112.407 385.292 110.665 381.809 107.181C378.325 103.698 376.583 98.5396 376.583 91.7075V64.4925H381.605V91.5039C381.605 97.1143 382.872 101.254 385.406 103.924C387.939 106.593 391.514 107.928 396.129 107.928C400.789 107.928 404.386 106.593 406.92 103.924C409.453 101.254 410.72 97.1143 410.72 91.5039V64.4925H415.607V91.7075C415.607 98.5396 413.865 103.698 410.381 107.181C406.942 110.665 402.192 112.407 396.129 112.407ZM430.741 112V64.4925H448.522C452.549 64.4925 456.01 65.1486 458.906 66.4607C461.802 67.7276 464.019 69.5826 465.557 72.0259C467.141 74.4239 467.932 77.3422 467.932 80.7808C467.932 84.129 467.141 87.0246 465.557 89.4679C464.019 91.8659 461.802 93.7209 458.906 95.033C456.01 96.2999 452.549 96.9333 448.522 96.9333H433.523L435.763 94.6258V112H430.741ZM463.182 112L450.965 94.7616H456.395L468.679 112H463.182ZM435.763 95.033L433.523 92.6577H448.386C453.137 92.6577 456.734 91.617 459.177 89.5358C461.666 87.4545 462.91 84.5362 462.91 80.7808C462.91 76.9802 461.666 74.0393 459.177 71.958C456.734 69.8767 453.137 68.8361 448.386 68.8361H433.523L435.763 66.4607V95.033ZM79.7369 170V122.493H84.7591V165.656H111.363V170H79.7369ZM112.101 170L133.819 122.493H138.773L160.491 170H155.197L135.244 125.411H137.28L117.327 170H112.101ZM120.652 157.309L122.145 153.237H149.767L151.261 157.309H120.652ZM176.9 170V152.354L178.054 155.476L157.897 122.493H163.258L180.972 151.472H178.121L195.835 122.493H200.857L180.7 155.476L181.854 152.354V170H176.9ZM198.261 170L219.979 122.493H224.933L246.651 170H241.357L221.404 125.411H223.44L203.487 170H198.261ZM206.812 157.309L208.306 153.237H235.928L237.421 157.309H206.812ZM254.51 170V122.493H258.65L291.43 163.756H289.258V122.493H294.212V170H290.073L257.36 128.736H259.532V170H254.51ZM302.117 170L323.835 122.493H328.79L350.507 170H345.214L325.26 125.411H327.296L307.343 170H302.117ZM310.669 157.309L312.162 153.237H339.784L341.277 157.309H310.669ZM358.366 170V122.493H362.506L395.286 163.756H393.114V122.493H398.069V170H393.929L361.217 128.736H363.388V170H358.366Z" fill="white"/>
<path fill-rule="evenodd" clip-rule="evenodd" d="M1000 127.5C1000 155.943 976.943 179 948.5 179C920.057 179 897 155.943 897 127.5C897 99.0573 920.057 76 948.5 76C976.943 76 1000 99.0573 1000 127.5ZM1005 127.5C1005 158.704 979.704 184 948.5 184C917.296 184 892 158.704 892 127.5C892 96.2959 917.296 71 948.5 71C979.704 71 1005 96.2959 1005 127.5ZM944.034 147.975L925.776 116.298C923.777 112.83 927.547 108.901 931.094 110.755L941.016 115.94C945.078 118.063 949.922 118.063 953.984 115.94L963.906 110.755C967.453 108.901 971.223 112.83 969.224 116.298L950.965 147.975C949.426 150.645 945.573 150.645 944.034 147.975ZM955.297 150.472C951.835 156.479 943.165 156.479 939.702 150.472L921.444 118.795C916.947 110.992 925.428 102.153 933.41 106.324L943.332 111.509C945.943 112.873 949.057 112.873 951.668 111.509L961.59 106.324C969.571 102.153 978.053 110.992 973.556 118.795L955.297 150.472Z" fill="white"/>
</svg>
